STARTFONT 2.3
FONT -FontForge-Rajdhani-Book-R-Normal--9-90-72-72-P-55-ISO10646-1
SIZE 9 72 72  2
FONTBOUNDINGBOX 22 12 -4 -3
COMMENT "Generated by fontforge, http://fontforge.sourceforge.net"
COMMENT "Copyright (c) 2014 Indian Type Foundry (info@indiantypefoundry.com)"
STARTPROPERTIES 41
FOUNDRY "FontForge"
FAMILY_NAME "Rajdhani"
WEIGHT_NAME "Book"
SLANT "R"
SETWIDTH_NAME "Normal"
ADD_STYLE_NAME ""
PIXEL_SIZE 9
POINT_SIZE 90
RESOLUTION_X 72
RESOLUTION_Y 72
SPACING "P"
AVERAGE_WIDTH 55
CHARSET_REGISTRY "ISO10646"
CHARSET_ENCODING "1"
FONTNAME_REGISTRY ""
CHARSET_COLLECTIONS "ISO8859-2 ISO8859-9 ISO8859-4 ISO10646-1"
BITS_PER_PIXEL 2
FONT_NAME "Rajdhani-Regular"
FACE_NAME "Rajdhani Regular"
COPYRIGHT "Copyright (c) 2014 Indian Type Foundry (info@indiantypefoundry.com)"
FONT_VERSION "1.201;PS 1.0;hotconv 1.0.78;makeotf.lib2.5.61930; ttfautohint (v1.1) -l 7 -r 28 -G 50 -x 13 -D latn -f deva -w G"
FONT_ASCENT 7
FONT_DESCENT 2
UNDERLINE_POSITION -1
UNDERLINE_THICKNESS 1
X_HEIGHT 4
CAP_HEIGHT 5
DEFAULT_CHAR 3
RAW_ASCENT 800
RAW_DESCENT 200
NORM_SPACE 2
RELATIVE_WEIGHT 40
RELATIVE_SETWIDTH 50
SUPERSCRIPT_X 0
SUPERSCRIPT_Y 3
SUPERSCRIPT_SIZE 5
SUBSCRIPT_X 0
SUBSCRIPT_Y 0
SUBSCRIPT_SIZE 5
AVG_LOWERCASE_WIDTH 41
AVG_UPPERCASE_WIDTH 46
ENDPROPERTIES
CHARS 1043
STARTCHAR NULL.dup1
ENCODING 0
SWIDTH 0 0
DWIDTH 0 0
BBX 1 1 0 0
BITMAP
00
ENDCHAR
STARTCHAR CR
ENCODING 13
SWIDTH 0 0
DWIDTH 0 0
BBX 1 1 0 0
BITMAP
00
ENDCHAR
STARTCHAR space
ENCODING 32
SWIDTH 267 0
DWIDTH 2 0
BBX 1 1 0 0
BITMAP
00
ENDCHAR
STARTCHAR exclam
ENCODING 33
SWIDTH 237 0
DWIDTH 2 0
BBX 2 6 0 0
BITMAP
50
50
10
10
10
10
ENDCHAR
STARTCHAR quotedbl
ENCODING 34
SWIDTH 330 0
DWIDTH 3 0
BBX 3 2 0 4
BITMAP
44
44
ENDCHAR
STARTCHAR numbersign
ENCODING 35
SWIDTH 677 0
DWIDTH 6 0
BBX 6 6 0 0
BITMAP
0440
1990
0440
1140
6640
1100
ENDCHAR
STARTCHAR dollar
ENCODING 36
SWIDTH 504 0
DWIDTH 5 0
BBX 4 8 0 -1
BITMAP
04
25
41
15
01
41
25
04
ENDCHAR
STARTCHAR percent
ENCODING 37
SWIDTH 717 0
DWIDTH 6 0
BBX 6 6 0 0
BITMAP
5440
4500
5500
0550
0510
0450
ENDCHAR
STARTCHAR ampersand
ENCODING 38
SWIDTH 597 0
DWIDTH 5 0
BBX 5 6 0 0
BITMAP
1600
1100
2000
4540
4100
2640
ENDCHAR
STARTCHAR quotesingle
ENCODING 39
SWIDTH 186 0
DWIDTH 2 0
BBX 1 2 0 4
BITMAP
40
40
ENDCHAR
STARTCHAR parenleft
ENCODING 40
SWIDTH 283 0
DWIDTH 3 0
BBX 2 8 0 -2
BITMAP
50
40
40
40
40
40
40
10
ENDCHAR
STARTCHAR parenright
ENCODING 41
SWIDTH 283 0
DWIDTH 3 0
BBX 2 8 0 -2
BITMAP
50
10
10
10
10
10
10
50
ENDCHAR
STARTCHAR asterisk
ENCODING 42
SWIDTH 406 0
DWIDTH 4 0
BBX 2 2 1 4
BITMAP
40
50
ENDCHAR
STARTCHAR plus
ENCODING 43
SWIDTH 523 0
DWIDTH 5 0
BBX 3 4 1 1
BITMAP
10
64
10
10
ENDCHAR
STARTCHAR comma
ENCODING 44
SWIDTH 191 0
DWIDTH 2 0
BBX 1 2 0 -1
BITMAP
40
40
ENDCHAR
STARTCHAR hyphen
ENCODING 45
SWIDTH 312 0
DWIDTH 3 0
BBX 3 1 0 3
BITMAP
54
ENDCHAR
STARTCHAR period
ENCODING 46
SWIDTH 191 0
DWIDTH 2 0
BBX 1 1 0 0
BITMAP
40
ENDCHAR
STARTCHAR slash
ENCODING 47
SWIDTH 396 0
DWIDTH 4 0
BBX 3 6 0 0
BITMAP
04
04
14
10
10
40
ENDCHAR
STARTCHAR zero
ENCODING 48
SWIDTH 514 0
DWIDTH 5 0
BBX 4 6 0 0
BITMAP
26
41
41
41
41
26
ENDCHAR
STARTCHAR one
ENCODING 49
SWIDTH 317 0
DWIDTH 3 0
BBX 2 6 0 0
BITMAP
60
10
10
10
10
10
ENDCHAR
STARTCHAR two
ENCODING 50
SWIDTH 478 0
DWIDTH 4 0
BBX 4 6 0 0
BITMAP
65
41
01
14
50
55
ENDCHAR
STARTCHAR three
ENCODING 51
SWIDTH 496 0
DWIDTH 4 0
BBX 4 6 0 0
BITMAP
65
41
05
01
41
15
ENDCHAR
STARTCHAR four
ENCODING 52
SWIDTH 520 0
DWIDTH 5 0
BBX 4 6 0 0
BITMAP
06
05
11
11
56
01
ENDCHAR
STARTCHAR five
ENCODING 53
SWIDTH 482 0
DWIDTH 4 0
BBX 4 6 0 0
BITMAP
55
40
55
01
41
65
ENDCHAR
STARTCHAR six
ENCODING 54
SWIDTH 497 0
DWIDTH 4 0
BBX 4 6 0 0
BITMAP
65
40
55
41
41
65
ENDCHAR
STARTCHAR seven
ENCODING 55
SWIDTH 380 0
DWIDTH 3 0
BBX 3 6 0 0
BITMAP
58
04
04
10
10
10
ENDCHAR
STARTCHAR eight
ENCODING 56
SWIDTH 519 0
DWIDTH 5 0
BBX 4 6 0 0
BITMAP
66
41
26
41
41
25
ENDCHAR
STARTCHAR nine
ENCODING 57
SWIDTH 497 0
DWIDTH 4 0
BBX 4 6 0 0
BITMAP
65
41
41
26
01
15
ENDCHAR
STARTCHAR colon
ENCODING 58
SWIDTH 191 0
DWIDTH 2 0
BBX 1 5 0 0
BITMAP
40
00
00
00
40
ENDCHAR
STARTCHAR semicolon
ENCODING 59
SWIDTH 191 0
DWIDTH 2 0
BBX 1 5 0 0
BITMAP
40
00
00
40
40
ENDCHAR
STARTCHAR less
ENCODING 60
SWIDTH 513 0
DWIDTH 5 0
BBX 3 4 1 1
BITMAP
04
54
50
04
ENDCHAR
STARTCHAR equal
ENCODING 61
SWIDTH 531 0
DWIDTH 5 0
BBX 3 3 1 2
BITMAP
54
00
54
ENDCHAR
STARTCHAR greater
ENCODING 62
SWIDTH 531 0
DWIDTH 5 0
BBX 3 3 1 1
BITMAP
54
14
40
ENDCHAR
STARTCHAR question
ENCODING 63
SWIDTH 473 0
DWIDTH 4 0
BBX 4 6 0 0
BITMAP
25
41
04
04
00
04
ENDCHAR
STARTCHAR at
ENCODING 64
SWIDTH 753 0
DWIDTH 7 0
BBX 6 7 0 -1
BITMAP
0550
1550
4450
4450
4490
1550
0540
ENDCHAR
STARTCHAR A
ENCODING 65
SWIDTH 533 0
DWIDTH 5 0
BBX 5 6 0 0
BITMAP
0800
1400
2100
2200
6600
4040
ENDCHAR
STARTCHAR B
ENCODING 66
SWIDTH 546 0
DWIDTH 5 0
BBX 5 6 0 0
BITMAP
6600
5140
6600
5140
5140
6600
ENDCHAR
STARTCHAR C
ENCODING 67
SWIDTH 542 0
DWIDTH 5 0
BBX 5 6 0 0
BITMAP
2600
4040
4000
4000
4040
2600
ENDCHAR
STARTCHAR D
ENCODING 68
SWIDTH 557 0
DWIDTH 5 0
BBX 5 6 0 0
BITMAP
6600
5040
5040
5040
5040
6600
ENDCHAR
STARTCHAR E
ENCODING 69
SWIDTH 481 0
DWIDTH 4 0
BBX 4 6 0 0
BITMAP
65
50
65
50
50
65
ENDCHAR
STARTCHAR F
ENCODING 70
SWIDTH 459 0
DWIDTH 4 0
BBX 4 6 0 0
BITMAP
65
50
65
50
50
50
ENDCHAR
STARTCHAR G
ENCODING 71
SWIDTH 539 0
DWIDTH 5 0
BBX 5 6 0 0
BITMAP
2600
4000
4600
4140
4100
2600
ENDCHAR
STARTCHAR H
ENCODING 72
SWIDTH 570 0
DWIDTH 5 0
BBX 5 6 0 0
BITMAP
5040
5040
6540
5040
5040
5040
ENDCHAR
STARTCHAR I
ENCODING 73
SWIDTH 230 0
DWIDTH 2 0
BBX 2 6 0 0
BITMAP
50
50
50
50
50
50
ENDCHAR
STARTCHAR J
ENCODING 74
SWIDTH 499 0
DWIDTH 4 0
BBX 4 6 0 0
BITMAP
01
01
01
01
41
55
ENDCHAR
STARTCHAR K
ENCODING 75
SWIDTH 530 0
DWIDTH 5 0
BBX 5 6 0 0
BITMAP
5100
5500
5800
6400
5100
5140
ENDCHAR
STARTCHAR L
ENCODING 76
SWIDTH 451 0
DWIDTH 4 0
BBX 4 6 0 0
BITMAP
50
50
50
50
50
65
ENDCHAR
STARTCHAR M
ENCODING 77
SWIDTH 696 0
DWIDTH 6 0
BBX 6 6 0 0
BITMAP
6050
6050
5450
5510
5110
5010
ENDCHAR
STARTCHAR N
ENCODING 78
SWIDTH 579 0
DWIDTH 5 0
BBX 5 6 0 0
BITMAP
5040
6040
5440
5440
5140
5140
ENDCHAR
STARTCHAR O
ENCODING 79
SWIDTH 553 0
DWIDTH 5 0
BBX 5 6 0 0
BITMAP
2600
4040
4040
4040
4040
2600
ENDCHAR
STARTCHAR P
ENCODING 80
SWIDTH 524 0
DWIDTH 5 0
BBX 5 6 0 0
BITMAP
6600
5140
5100
6500
5000
5000
ENDCHAR
STARTCHAR Q
ENCODING 81
SWIDTH 556 0
DWIDTH 5 0
BBX 5 7 0 -1
BITMAP
2600
4040
4040
4040
4040
2600
0100
ENDCHAR
STARTCHAR R
ENCODING 82
SWIDTH 534 0
DWIDTH 5 0
BBX 4 6 0 0
BITMAP
66
51
51
66
51
51
ENDCHAR
STARTCHAR S
ENCODING 83
SWIDTH 562 0
DWIDTH 5 0
BBX 5 6 0 0
BITMAP
2600
5040
2400
0600
4040
2600
ENDCHAR
STARTCHAR T
ENCODING 84
SWIDTH 420 0
DWIDTH 4 0
BBX 4 6 0 0
BITMAP
69
10
10
10
10
10
ENDCHAR
STARTCHAR U
ENCODING 85
SWIDTH 552 0
DWIDTH 5 0
BBX 5 6 0 0
BITMAP
4140
5140
5140
5140
5140
2600
ENDCHAR
STARTCHAR V
ENCODING 86
SWIDTH 500 0
DWIDTH 5 0
BBX 4 6 0 0
BITMAP
41
41
11
15
14
18
ENDCHAR
STARTCHAR W
ENCODING 87
SWIDTH 794 0
DWIDTH 7 0
BBX 7 6 0 0
BITMAP
4204
4244
5444
1450
1450
1460
ENDCHAR
STARTCHAR X
ENCODING 88
SWIDTH 504 0
DWIDTH 5 0
BBX 4 6 0 0
BITMAP
41
11
18
18
11
41
ENDCHAR
STARTCHAR Y
ENCODING 89
SWIDTH 493 0
DWIDTH 4 0
BBX 4 6 0 0
BITMAP
41
11
14
08
04
04
ENDCHAR
STARTCHAR Z
ENCODING 90
SWIDTH 482 0
DWIDTH 4 0
BBX 4 6 0 0
BITMAP
56
05
08
10
10
A5
ENDCHAR
STARTCHAR bracketleft
ENCODING 91
SWIDTH 287 0
DWIDTH 3 0
BBX 2 8 0 -2
BITMAP
50
40
40
40
40
40
40
50
ENDCHAR
STARTCHAR backslash
ENCODING 92
SWIDTH 396 0
DWIDTH 4 0
BBX 3 6 0 0
BITMAP
40
10
10
14
04
04
ENDCHAR
STARTCHAR bracketright
ENCODING 93
SWIDTH 287 0
DWIDTH 3 0
BBX 2 8 0 -2
BITMAP
60
10
10
10
10
10
10
10
ENDCHAR
STARTCHAR asciicircum
ENCODING 94
SWIDTH 465 0
DWIDTH 4 0
BBX 4 3 0 3
BITMAP
14
15
41
ENDCHAR
STARTCHAR underscore
ENCODING 95
SWIDTH 372 0
DWIDTH 3 0
BBX 3 1 0 -1
BITMAP
54
ENDCHAR
STARTCHAR grave
ENCODING 96
SWIDTH 269 0
DWIDTH 2 0
BBX 1 2 1 5
BITMAP
40
40
ENDCHAR
STARTCHAR a
ENCODING 97
SWIDTH 502 0
DWIDTH 5 0
BBX 4 5 0 0
BITMAP
26
41
41
41
26
ENDCHAR
STARTCHAR b
ENCODING 98
SWIDTH 504 0
DWIDTH 5 0
BBX 4 7 0 0
BITMAP
40
40
65
41
41
41
65
ENDCHAR
STARTCHAR c
ENCODING 99
SWIDTH 394 0
DWIDTH 4 0
BBX 3 5 0 0
BITMAP
24
40
40
40
24
ENDCHAR
STARTCHAR d
ENCODING 100
SWIDTH 504 0
DWIDTH 5 0
BBX 4 7 0 0
BITMAP
01
01
26
41
41
41
26
ENDCHAR
STARTCHAR e
ENCODING 101
SWIDTH 492 0
DWIDTH 4 0
BBX 4 5 0 0
BITMAP
25
41
55
40
25
ENDCHAR
STARTCHAR f
ENCODING 102
SWIDTH 303 0
DWIDTH 3 0
BBX 3 7 0 0
BITMAP
14
10
64
10
10
10
10
ENDCHAR
STARTCHAR g
ENCODING 103
SWIDTH 506 0
DWIDTH 5 0
BBX 4 6 0 -1
BITMAP
26
41
41
42
16
15
ENDCHAR
STARTCHAR h
ENCODING 104
SWIDTH 507 0
DWIDTH 5 0
BBX 4 7 0 0
BITMAP
40
40
65
41
41
41
41
ENDCHAR
STARTCHAR i
ENCODING 105
SWIDTH 210 0
DWIDTH 2 0
BBX 2 7 0 0
BITMAP
40
00
40
50
50
50
40
ENDCHAR
STARTCHAR j
ENCODING 106
SWIDTH 210 0
DWIDTH 2 0
BBX 3 8 -1 -1
BITMAP
10
00
10
14
14
14
10
60
ENDCHAR
STARTCHAR k
ENCODING 107
SWIDTH 431 0
DWIDTH 4 0
BBX 4 7 0 0
BITMAP
40
40
45
48
54
44
41
ENDCHAR
STARTCHAR l
ENCODING 108
SWIDTH 210 0
DWIDTH 2 0
BBX 2 7 0 0
BITMAP
40
50
50
50
50
50
40
ENDCHAR
STARTCHAR m
ENCODING 109
SWIDTH 769 0
DWIDTH 7 0
BBX 7 5 0 0
BITMAP
6660
4214
4114
4114
4104
ENDCHAR
STARTCHAR n
ENCODING 110
SWIDTH 507 0
DWIDTH 5 0
BBX 4 5 0 0
BITMAP
65
41
41
41
41
ENDCHAR
STARTCHAR o
ENCODING 111
SWIDTH 496 0
DWIDTH 4 0
BBX 4 5 0 0
BITMAP
25
41
41
41
25
ENDCHAR
STARTCHAR p
ENCODING 112
SWIDTH 504 0
DWIDTH 5 0
BBX 4 6 0 -1
BITMAP
65
41
41
41
65
40
ENDCHAR
STARTCHAR q
ENCODING 113
SWIDTH 502 0
DWIDTH 5 0
BBX 4 6 0 -1
BITMAP
26
41
41
41
26
01
ENDCHAR
STARTCHAR r
ENCODING 114
SWIDTH 313 0
DWIDTH 3 0
BBX 3 5 0 0
BITMAP
64
50
40
40
40
ENDCHAR
STARTCHAR s
ENCODING 115
SWIDTH 431 0
DWIDTH 4 0
BBX 4 5 0 0
BITMAP
54
40
14
01
59
ENDCHAR
STARTCHAR t
ENCODING 116
SWIDTH 347 0
DWIDTH 3 0
BBX 3 6 0 0
BITMAP
10
64
10
10
10
24
ENDCHAR
STARTCHAR u
ENCODING 117
SWIDTH 507 0
DWIDTH 5 0
BBX 4 5 0 0
BITMAP
41
41
41
41
26
ENDCHAR
STARTCHAR v
ENCODING 118
SWIDTH 416 0
DWIDTH 4 0
BBX 4 5 0 0
BITMAP
41
44
14
14
14
ENDCHAR
STARTCHAR w
ENCODING 119
SWIDTH 683 0
DWIDTH 6 0
BBX 6 5 0 0
BITMAP
4510
4510
5510
1580
2080
ENDCHAR
STARTCHAR x
ENCODING 120
SWIDTH 413 0
DWIDTH 4 0
BBX 4 5 0 0
BITMAP
45
14
24
14
45
ENDCHAR
STARTCHAR y
ENCODING 121
SWIDTH 459 0
DWIDTH 4 0
BBX 4 6 0 -1
BITMAP
41
51
14
14
14
60
ENDCHAR
STARTCHAR z
ENCODING 122
SWIDTH 405 0
DWIDTH 4 0
BBX 4 5 0 0
BITMAP
59
08
10
10
94
ENDCHAR
STARTCHAR braceleft
ENCODING 123
SWIDTH 298 0
DWIDTH 3 0
BBX 2 8 0 -2
BITMAP
20
10
10
40
10
10
10
10
ENDCHAR
STARTCHAR bar
ENCODING 124
SWIDTH 207 0
DWIDTH 2 0
BBX 1 6 0 0
BITMAP
40
40
40
40
40
40
ENDCHAR
STARTCHAR braceright
ENCODING 125
SWIDTH 298 0
DWIDTH 3 0
BBX 2 8 0 -2
BITMAP
50
10
10
20
10
10
10
40
ENDCHAR
STARTCHAR asciitilde
ENCODING 126
SWIDTH 523 0
DWIDTH 5 0
BBX 3 1 1 3
BITMAP
54
ENDCHAR
STARTCHAR uni00A0
ENCODING 160
SWIDTH 267 0
DWIDTH 2 0
BBX 1 1 0 0
BITMAP
00
ENDCHAR
STARTCHAR exclamdown
ENCODING 161
SWIDTH 237 0
DWIDTH 2 0
BBX 2 6 0 0
BITMAP
10
10
10
10
50
50
ENDCHAR
STARTCHAR cent
ENCODING 162
SWIDTH 414 0
DWIDTH 4 0
BBX 4 7 0 -1
BITMAP
04
25
40
40
40
24
04
ENDCHAR
STARTCHAR sterling
ENCODING 163
SWIDTH 528 0
DWIDTH 5 0
BBX 4 6 0 0
BITMAP
26
11
10
64
10
65
ENDCHAR
STARTCHAR yen
ENCODING 165
SWIDTH 499 0
DWIDTH 4 0
BBX 4 6 0 0
BITMAP
41
11
69
08
59
04
ENDCHAR
STARTCHAR brokenbar
ENCODING 166
SWIDTH 201 0
DWIDTH 2 0
BBX 1 6 0 0
BITMAP
40
40
40
40
40
40
ENDCHAR
STARTCHAR section
ENCODING 167
SWIDTH 454 0
DWIDTH 4 0
BBX 4 6 0 0
BITMAP
64
50
55
15
02
15
ENDCHAR
STARTCHAR dieresis
ENCODING 168
SWIDTH 345 0
DWIDTH 3 0
BBX 3 1 0 6
BITMAP
44
ENDCHAR
STARTCHAR copyright
ENCODING 169
SWIDTH 723 0
DWIDTH 7 0
BBX 6 6 0 0
BITMAP
1550
4550
4410
4450
4510
1550
ENDCHAR
STARTCHAR guillemotleft
ENCODING 171
SWIDTH 431 0
DWIDTH 4 0
BBX 3 3 0 1
BITMAP
14
54
14
ENDCHAR
STARTCHAR registered
ENCODING 174
SWIDTH 439 0
DWIDTH 4 0
BBX 4 4 0 3
BITMAP
14
55
55
14
ENDCHAR
STARTCHAR macron
ENCODING 175
SWIDTH 358 0
DWIDTH 3 0
BBX 2 1 1 5
BITMAP
50
ENDCHAR
STARTCHAR degree
ENCODING 176
SWIDTH 298 0
DWIDTH 3 0
BBX 2 2 0 5
BITMAP
50
10
ENDCHAR
STARTCHAR plusminus
ENCODING 177
SWIDTH 523 0
DWIDTH 5 0
BBX 3 4 1 1
BITMAP
10
64
10
54
ENDCHAR
STARTCHAR acute
ENCODING 180
SWIDTH 269 0
DWIDTH 2 0
BBX 1 1 1 6
BITMAP
40
ENDCHAR
STARTCHAR paragraph
ENCODING 182
SWIDTH 513 0
DWIDTH 5 0
BBX 4 6 0 0
BITMAP
76
B1
71
11
11
11
ENDCHAR
STARTCHAR periodcentered
ENCODING 183
SWIDTH 207 0
DWIDTH 2 0
BBX 2 1 0 3
BITMAP
50
ENDCHAR
STARTCHAR cedilla
ENCODING 184
SWIDTH 257 0
DWIDTH 2 0
BBX 2 2 0 -2
BITMAP
50
10
ENDCHAR
STARTCHAR guillemotright
ENCODING 187
SWIDTH 431 0
DWIDTH 4 0
BBX 4 3 0 1
BITMAP
54
15
14
ENDCHAR
STARTCHAR questiondown
ENCODING 191
SWIDTH 473 0
DWIDTH 4 0
BBX 4 6 0 0
BITMAP
14
00
14
10
41
25
ENDCHAR
STARTCHAR Agrave
ENCODING 192
SWIDTH 532 0
DWIDTH 5 0
BBX 5 8 0 0
BITMAP
1400
0000
0800
1400
2100
2200
6600
4040
ENDCHAR
STARTCHAR Aacute
ENCODING 193
SWIDTH 532 0
DWIDTH 5 0
BBX 5 8 0 0
BITMAP
0400
0000
0800
1400
2100
2200
6600
4040
ENDCHAR
STARTCHAR Acircumflex
ENCODING 194
SWIDTH 532 0
DWIDTH 5 0
BBX 5 8 0 0
BITMAP
1400
0000
0800
1400
2100
2200
6600
4040
ENDCHAR
STARTCHAR Atilde
ENCODING 195
SWIDTH 532 0
DWIDTH 5 0
BBX 5 6 0 0
BITMAP
0800
1400
2100
2200
6600
4040
ENDCHAR
STARTCHAR Adieresis
ENCODING 196
SWIDTH 532 0
DWIDTH 5 0
BBX 5 8 0 0
BITMAP
1100
0000
0800
1400
2100
2200
6600
4040
ENDCHAR
STARTCHAR Aring
ENCODING 197
SWIDTH 532 0
DWIDTH 5 0
BBX 5 9 0 0
BITMAP
0400
1400
0400
0800
1400
2100
2200
6600
4040
ENDCHAR
STARTCHAR AE
ENCODING 198
SWIDTH 773 0
DWIDTH 7 0
BBX 6 6 0 0
BITMAP
0350
0900
1650
2100
6600
8250
ENDCHAR
STARTCHAR Ccedilla
ENCODING 199
SWIDTH 542 0
DWIDTH 5 0
BBX 5 8 0 -2
BITMAP
2600
4040
4000
4000
4040
2600
0400
0400
ENDCHAR
STARTCHAR Egrave
ENCODING 200
SWIDTH 481 0
DWIDTH 4 0
BBX 4 8 0 0
BITMAP
14
00
65
50
65
50
50
65
ENDCHAR
STARTCHAR Eacute
ENCODING 201
SWIDTH 481 0
DWIDTH 4 0
BBX 4 8 0 0
BITMAP
04
00
65
50
65
50
50
65
ENDCHAR
STARTCHAR Ecircumflex
ENCODING 202
SWIDTH 481 0
DWIDTH 4 0
BBX 4 8 0 0
BITMAP
14
00
65
50
65
50
50
65
ENDCHAR
STARTCHAR Edieresis
ENCODING 203
SWIDTH 481 0
DWIDTH 4 0
BBX 4 8 0 0
BITMAP
15
00
65
50
65
50
50
65
ENDCHAR
STARTCHAR Igrave
ENCODING 204
SWIDTH 230 0
DWIDTH 2 0
BBX 2 8 0 0
BITMAP
40
00
50
50
50
50
50
50
ENDCHAR
STARTCHAR Iacute
ENCODING 205
SWIDTH 231 0
DWIDTH 2 0
BBX 2 8 0 0
BITMAP
10
00
50
50
50
50
50
50
ENDCHAR
STARTCHAR Icircumflex
ENCODING 206
SWIDTH 229 0
DWIDTH 2 0
BBX 2 8 0 0
BITMAP
50
00
50
50
50
50
50
50
ENDCHAR
STARTCHAR Idieresis
ENCODING 207
SWIDTH 230 0
DWIDTH 2 0
BBX 2 8 0 0
BITMAP
50
00
50
50
50
50
50
50
ENDCHAR
STARTCHAR Eth
ENCODING 208
SWIDTH 514 0
DWIDTH 5 0
BBX 5 6 0 0
BITMAP
6600
5040
6440
5040
5040
6600
ENDCHAR
STARTCHAR Ntilde
ENCODING 209
SWIDTH 579 0
DWIDTH 5 0
BBX 5 8 0 0
BITMAP
0400
0000
5040
6040
5440
5440
5140
5140
ENDCHAR
STARTCHAR Ograve
ENCODING 210
SWIDTH 553 0
DWIDTH 5 0
BBX 5 8 0 0
BITMAP
1400
0000
2600
4040
4040
4040
4040
2600
ENDCHAR
STARTCHAR Oacute
ENCODING 211
SWIDTH 553 0
DWIDTH 5 0
BBX 5 8 0 0
BITMAP
0400
0000
2600
4040
4040
4040
4040
2600
ENDCHAR
STARTCHAR Ocircumflex
ENCODING 212
SWIDTH 553 0
DWIDTH 5 0
BBX 5 8 0 0
BITMAP
0400
0000
2600
4040
4040
4040
4040
2600
ENDCHAR
STARTCHAR Otilde
ENCODING 213
SWIDTH 553 0
DWIDTH 5 0
BBX 5 6 0 0
BITMAP
2600
4040
4040
4040
4040
2600
ENDCHAR
STARTCHAR Odieresis
ENCODING 214
SWIDTH 553 0
DWIDTH 5 0
BBX 5 8 0 0
BITMAP
1100
0000
2600
4040
4040
4040
4040
2600
ENDCHAR
STARTCHAR multiply
ENCODING 215
SWIDTH 493 0
DWIDTH 4 0
BBX 3 3 1 1
BITMAP
94
60
44
ENDCHAR
STARTCHAR Oslash
ENCODING 216
SWIDTH 559 0
DWIDTH 5 0
BBX 5 6 0 0
BITMAP
2640
4140
4540
5440
6040
6600
ENDCHAR
STARTCHAR Ugrave
ENCODING 217
SWIDTH 552 0
DWIDTH 5 0
BBX 5 8 0 0
BITMAP
0400
0000
4140
5140
5140
5140
5140
2600
ENDCHAR
STARTCHAR Uacute
ENCODING 218
SWIDTH 552 0
DWIDTH 5 0
BBX 5 8 0 0
BITMAP
0400
0000
4140
5140
5140
5140
5140
2600
ENDCHAR
STARTCHAR Ucircumflex
ENCODING 219
SWIDTH 552 0
DWIDTH 5 0
BBX 5 8 0 0
BITMAP
0400
0000
4140
5140
5140
5140
5140
2600
ENDCHAR
STARTCHAR Udieresis
ENCODING 220
SWIDTH 552 0
DWIDTH 5 0
BBX 5 8 0 0
BITMAP
1100
0000
4140
5140
5140
5140
5140
2600
ENDCHAR
STARTCHAR Yacute
ENCODING 221
SWIDTH 493 0
DWIDTH 4 0
BBX 4 8 0 0
BITMAP
04
00
41
11
14
08
04
04
ENDCHAR
STARTCHAR Thorn
ENCODING 222
SWIDTH 501 0
DWIDTH 5 0
BBX 3 6 1 0
BITMAP
40
94
44
44
94
40
ENDCHAR
STARTCHAR germandbls
ENCODING 223
SWIDTH 540 0
DWIDTH 5 0
BBX 5 6 0 0
BITMAP
2600
5100
4600
4100
4140
4600
ENDCHAR
STARTCHAR agrave
ENCODING 224
SWIDTH 502 0
DWIDTH 5 0
BBX 4 7 0 0
BITMAP
14
00
26
41
41
41
26
ENDCHAR
STARTCHAR aacute
ENCODING 225
SWIDTH 502 0
DWIDTH 5 0
BBX 4 7 0 0
BITMAP
04
00
26
41
41
41
26
ENDCHAR
STARTCHAR acircumflex
ENCODING 226
SWIDTH 502 0
DWIDTH 5 0
BBX 4 7 0 0
BITMAP
08
00
26
41
41
41
26
ENDCHAR
STARTCHAR atilde
ENCODING 227
SWIDTH 504 0
DWIDTH 5 0
BBX 4 7 0 0
BITMAP
15
15
26
41
41
41
26
ENDCHAR
STARTCHAR adieresis
ENCODING 228
SWIDTH 502 0
DWIDTH 5 0
BBX 4 7 0 0
BITMAP
11
00
26
41
41
41
26
ENDCHAR
STARTCHAR aring
ENCODING 229
SWIDTH 502 0
DWIDTH 5 0
BBX 4 8 0 0
BITMAP
04
14
04
26
41
41
41
26
ENDCHAR
STARTCHAR ae
ENCODING 230
SWIDTH 795 0
DWIDTH 7 0
BBX 7 5 0 0
BITMAP
1654
0204
0254
4200
6654
ENDCHAR
STARTCHAR ccedilla
ENCODING 231
SWIDTH 394 0
DWIDTH 4 0
BBX 3 7 0 -2
BITMAP
24
40
40
40
24
04
04
ENDCHAR
STARTCHAR egrave
ENCODING 232
SWIDTH 492 0
DWIDTH 4 0
BBX 4 7 0 0
BITMAP
10
00
25
41
55
40
25
ENDCHAR
STARTCHAR eacute
ENCODING 233
SWIDTH 492 0
DWIDTH 4 0
BBX 4 7 0 0
BITMAP
04
00
25
41
55
40
25
ENDCHAR
STARTCHAR ecircumflex
ENCODING 234
SWIDTH 492 0
DWIDTH 4 0
BBX 4 7 0 0
BITMAP
14
00
25
41
55
40
25
ENDCHAR
STARTCHAR edieresis
ENCODING 235
SWIDTH 492 0
DWIDTH 4 0
BBX 4 7 0 0
BITMAP
15
00
25
41
55
40
25
ENDCHAR
STARTCHAR igrave
ENCODING 236
SWIDTH 210 0
DWIDTH 2 0
BBX 2 7 0 0
BITMAP
40
00
40
50
50
50
40
ENDCHAR
STARTCHAR iacute
ENCODING 237
SWIDTH 208 0
DWIDTH 2 0
BBX 2 7 0 0
BITMAP
20
00
40
50
50
50
40
ENDCHAR
STARTCHAR icircumflex
ENCODING 238
SWIDTH 210 0
DWIDTH 2 0
BBX 2 7 0 0
BITMAP
50
00
40
50
50
50
40
ENDCHAR
STARTCHAR idieresis
ENCODING 239
SWIDTH 210 0
DWIDTH 2 0
BBX 2 7 0 0
BITMAP
50
00
40
50
50
50
40
ENDCHAR
STARTCHAR eth
ENCODING 240
SWIDTH 488 0
DWIDTH 4 0
BBX 4 7 0 0
BITMAP
10
18
15
16
42
41
65
ENDCHAR
STARTCHAR ntilde
ENCODING 241
SWIDTH 507 0
DWIDTH 5 0
BBX 4 7 0 0
BITMAP
15
10
65
41
41
41
41
ENDCHAR
STARTCHAR ograve
ENCODING 242
SWIDTH 496 0
DWIDTH 4 0
BBX 4 7 0 0
BITMAP
10
00
25
41
41
41
25
ENDCHAR
STARTCHAR oacute
ENCODING 243
SWIDTH 496 0
DWIDTH 4 0
BBX 4 7 0 0
BITMAP
04
00
25
41
41
41
25
ENDCHAR
STARTCHAR ocircumflex
ENCODING 244
SWIDTH 496 0
DWIDTH 4 0
BBX 4 7 0 0
BITMAP
14
00
25
41
41
41
25
ENDCHAR
STARTCHAR otilde
ENCODING 245
SWIDTH 496 0
DWIDTH 4 0
BBX 4 7 0 0
BITMAP
14
14
25
41
41
41
25
ENDCHAR
STARTCHAR odieresis
ENCODING 246
SWIDTH 496 0
DWIDTH 4 0
BBX 4 7 0 0
BITMAP
15
00
25
41
41
41
25
ENDCHAR
STARTCHAR divide
ENCODING 247
SWIDTH 510 0
DWIDTH 5 0
BBX 3 4 1 1
BITMAP
10
54
00
10
ENDCHAR
STARTCHAR oslash
ENCODING 248
SWIDTH 521 0
DWIDTH 5 0
BBX 4 5 0 0
BITMAP
26
42
55
61
66
ENDCHAR
STARTCHAR ugrave
ENCODING 249
SWIDTH 507 0
DWIDTH 5 0
BBX 4 7 0 0
BITMAP
10
00
41
41
41
41
26
ENDCHAR
STARTCHAR uacute
ENCODING 250
SWIDTH 507 0
DWIDTH 5 0
BBX 4 7 0 0
BITMAP
04
00
41
41
41
41
26
ENDCHAR
STARTCHAR ucircumflex
ENCODING 251
SWIDTH 507 0
DWIDTH 5 0
BBX 4 7 0 0
BITMAP
14
00
41
41
41
41
26
ENDCHAR
STARTCHAR udieresis
ENCODING 252
SWIDTH 507 0
DWIDTH 5 0
BBX 4 7 0 0
BITMAP
15
00
41
41
41
41
26
ENDCHAR
STARTCHAR yacute
ENCODING 253
SWIDTH 459 0
DWIDTH 4 0
BBX 4 8 0 -1
BITMAP
04
00
41
51
14
14
14
60
ENDCHAR
STARTCHAR thorn
ENCODING 254
SWIDTH 508 0
DWIDTH 5 0
BBX 4 8 0 -1
BITMAP
40
40
66
51
41
51
66
40
ENDCHAR
STARTCHAR ydieresis
ENCODING 255
SWIDTH 459 0
DWIDTH 4 0
BBX 4 8 0 -1
BITMAP
14
00
41
51
14
14
14
60
ENDCHAR
STARTCHAR Amacron
ENCODING 256
SWIDTH 532 0
DWIDTH 5 0
BBX 5 8 0 0
BITMAP
1400
0000
0800
1400
2100
2200
6600
4040
ENDCHAR
STARTCHAR amacron
ENCODING 257
SWIDTH 502 0
DWIDTH 5 0
BBX 4 6 0 0
BITMAP
15
26
41
41
41
26
ENDCHAR
STARTCHAR Abreve
ENCODING 258
SWIDTH 532 0
DWIDTH 5 0
BBX 5 9 0 0
BITMAP
1100
0400
0000
0800
1400
2100
2200
6600
4040
ENDCHAR
STARTCHAR abreve
ENCODING 259
SWIDTH 502 0
DWIDTH 5 0
BBX 4 7 0 0
BITMAP
11
04
26
41
41
41
26
ENDCHAR
STARTCHAR Aogonek
ENCODING 260
SWIDTH 532 0
DWIDTH 5 0
BBX 5 7 0 -1
BITMAP
0800
1400
2100
2200
6600
4040
0100
ENDCHAR
STARTCHAR aogonek
ENCODING 261
SWIDTH 502 0
DWIDTH 5 0
BBX 4 6 0 -1
BITMAP
26
41
41
41
26
01
ENDCHAR
STARTCHAR Cacute
ENCODING 262
SWIDTH 542 0
DWIDTH 5 0
BBX 5 8 0 0
BITMAP
0400
0000
2600
4040
4000
4000
4040
2600
ENDCHAR
STARTCHAR cacute
ENCODING 263
SWIDTH 394 0
DWIDTH 4 0
BBX 3 7 0 0
BITMAP
08
00
24
40
40
40
24
ENDCHAR
STARTCHAR Cdotaccent
ENCODING 266
SWIDTH 542 0
DWIDTH 5 0
BBX 5 8 0 0
BITMAP
0400
0000
2600
4040
4000
4000
4040
2600
ENDCHAR
STARTCHAR cdotaccent
ENCODING 267
SWIDTH 394 0
DWIDTH 4 0
BBX 3 7 0 0
BITMAP
04
00
24
40
40
40
24
ENDCHAR
STARTCHAR Ccaron
ENCODING 268
SWIDTH 542 0
DWIDTH 5 0
BBX 5 8 0 0
BITMAP
0400
0000
2600
4040
4000
4000
4040
2600
ENDCHAR
STARTCHAR ccaron
ENCODING 269
SWIDTH 394 0
DWIDTH 4 0
BBX 3 7 0 0
BITMAP
14
00
24
40
40
40
24
ENDCHAR
STARTCHAR Dcaron
ENCODING 270
SWIDTH 557 0
DWIDTH 5 0
BBX 5 8 0 0
BITMAP
0400
0000
6600
5040
5040
5040
5040
6600
ENDCHAR
STARTCHAR dcaron
ENCODING 271
SWIDTH 534 0
DWIDTH 5 0
BBX 5 7 0 0
BITMAP
0140
0140
1600
4100
4100
4100
2600
ENDCHAR
STARTCHAR Dcroat
ENCODING 272
SWIDTH 514 0
DWIDTH 5 0
BBX 5 6 0 0
BITMAP
6600
5040
6440
5040
5040
6600
ENDCHAR
STARTCHAR dcroat
ENCODING 273
SWIDTH 539 0
DWIDTH 5 0
BBX 5 7 0 0
BITMAP
0100
0640
1600
4200
4100
4100
2600
ENDCHAR
STARTCHAR Emacron
ENCODING 274
SWIDTH 481 0
DWIDTH 4 0
BBX 4 8 0 0
BITMAP
14
00
65
50
65
50
50
65
ENDCHAR
STARTCHAR emacron
ENCODING 275
SWIDTH 492 0
DWIDTH 4 0
BBX 4 6 0 0
BITMAP
14
25
41
55
40
25
ENDCHAR
STARTCHAR Ebreve
ENCODING 276
SWIDTH 481 0
DWIDTH 4 0
BBX 4 9 0 0
BITMAP
10
14
00
65
50
65
50
50
65
ENDCHAR
STARTCHAR ebreve
ENCODING 277
SWIDTH 492 0
DWIDTH 4 0
BBX 4 7 0 0
BITMAP
14
14
25
41
55
40
25
ENDCHAR
STARTCHAR Edotaccent
ENCODING 278
SWIDTH 496 0
DWIDTH 4 0
BBX 4 8 0 0
BITMAP
04
00
65
50
65
50
50
65
ENDCHAR
STARTCHAR edotaccent
ENCODING 279
SWIDTH 492 0
DWIDTH 4 0
BBX 4 7 0 0
BITMAP
04
00
25
41
55
40
25
ENDCHAR
STARTCHAR Eogonek
ENCODING 280
SWIDTH 481 0
DWIDTH 4 0
BBX 4 7 0 -1
BITMAP
65
50
65
50
50
65
04
ENDCHAR
STARTCHAR eogonek
ENCODING 281
SWIDTH 492 0
DWIDTH 4 0
BBX 4 6 0 -1
BITMAP
25
41
55
40
25
04
ENDCHAR
STARTCHAR Ecaron
ENCODING 282
SWIDTH 481 0
DWIDTH 4 0
BBX 4 8 0 0
BITMAP
14
00
65
50
65
50
50
65
ENDCHAR
STARTCHAR ecaron
ENCODING 283
SWIDTH 492 0
DWIDTH 4 0
BBX 4 7 0 0
BITMAP
14
04
25
41
55
40
25
ENDCHAR
STARTCHAR Gcircumflex
ENCODING 284
SWIDTH 539 0
DWIDTH 5 0
BBX 5 8 0 0
BITMAP
0400
0000
2600
4000
4600
4140
4100
2600
ENDCHAR
STARTCHAR gcircumflex
ENCODING 285
SWIDTH 506 0
DWIDTH 5 0
BBX 4 8 0 -1
BITMAP
08
00
26
41
41
42
16
15
ENDCHAR
STARTCHAR Gbreve
ENCODING 286
SWIDTH 539 0
DWIDTH 5 0
BBX 5 9 0 0
BITMAP
1100
0400
0000
2600
4000
4600
4140
4100
2600
ENDCHAR
STARTCHAR gbreve
ENCODING 287
SWIDTH 506 0
DWIDTH 5 0
BBX 4 8 0 -1
BITMAP
04
00
26
41
41
42
16
15
ENDCHAR
STARTCHAR Gdotaccent
ENCODING 288
SWIDTH 539 0
DWIDTH 5 0
BBX 5 8 0 0
BITMAP
0400
0000
2600
4000
4600
4140
4100
2600
ENDCHAR
STARTCHAR gdotaccent
ENCODING 289
SWIDTH 506 0
DWIDTH 5 0
BBX 4 8 0 -1
BITMAP
04
00
26
41
41
42
16
15
ENDCHAR
STARTCHAR uni0122
ENCODING 290
SWIDTH 539 0
DWIDTH 5 0
BBX 5 8 0 -2
BITMAP
2600
4000
4600
4140
4100
2600
0400
0400
ENDCHAR
STARTCHAR uni0123
ENCODING 291
SWIDTH 506 0
DWIDTH 5 0
BBX 4 9 0 -1
BITMAP
04
04
00
26
41
41
42
16
15
ENDCHAR
STARTCHAR hcircumflex
ENCODING 293
SWIDTH 507 0
DWIDTH 5 0
BBX 4 8 0 0
BITMAP
04
54
40
65
41
41
41
41
ENDCHAR
STARTCHAR Hbar
ENCODING 294
SWIDTH 523 0
DWIDTH 5 0
BBX 5 6 0 0
BITMAP
5040
6580
6540
5040
5040
5040
ENDCHAR
STARTCHAR hbar
ENCODING 295
SWIDTH 544 0
DWIDTH 5 0
BBX 5 7 0 0
BITMAP
1000
6400
2500
2140
1140
1140
1140
ENDCHAR
STARTCHAR Itilde
ENCODING 296
SWIDTH 230 0
DWIDTH 2 0
BBX 2 8 0 0
BITMAP
40
00
50
50
50
50
50
50
ENDCHAR
STARTCHAR itilde
ENCODING 297
SWIDTH 210 0
DWIDTH 2 0
BBX 2 7 0 0
BITMAP
50
50
40
50
50
50
40
ENDCHAR
STARTCHAR Imacron
ENCODING 298
SWIDTH 230 0
DWIDTH 2 0
BBX 2 8 0 0
BITMAP
50
00
50
50
50
50
50
50
ENDCHAR
STARTCHAR imacron
ENCODING 299
SWIDTH 208 0
DWIDTH 2 0
BBX 2 6 0 0
BITMAP
50
40
50
50
50
40
ENDCHAR
STARTCHAR Ibreve
ENCODING 300
SWIDTH 231 0
DWIDTH 2 0
BBX 2 9 0 0
BITMAP
50
50
00
50
50
50
50
50
50
ENDCHAR
STARTCHAR ibreve
ENCODING 301
SWIDTH 211 0
DWIDTH 2 0
BBX 2 7 0 0
BITMAP
50
50
40
50
50
50
40
ENDCHAR
STARTCHAR Iogonek
ENCODING 302
SWIDTH 230 0
DWIDTH 2 0
BBX 2 7 0 -1
BITMAP
50
50
50
50
50
50
40
ENDCHAR
STARTCHAR iogonek
ENCODING 303
SWIDTH 210 0
DWIDTH 2 0
BBX 2 8 0 -1
BITMAP
40
00
40
50
50
50
40
40
ENDCHAR
STARTCHAR Idotaccent
ENCODING 304
SWIDTH 230 0
DWIDTH 2 0
BBX 2 8 0 0
BITMAP
50
00
50
50
50
50
50
50
ENDCHAR
STARTCHAR dotlessi
ENCODING 305
SWIDTH 212 0
DWIDTH 2 0
BBX 2 5 0 0
BITMAP
40
50
50
50
40
ENDCHAR
STARTCHAR IJ
ENCODING 306
SWIDTH 721 0
DWIDTH 6 0
BBX 6 6 0 0
BITMAP
5010
5010
5010
5010
5410
5550
ENDCHAR
STARTCHAR ij
ENCODING 307
SWIDTH 419 0
DWIDTH 4 0
BBX 3 8 0 -1
BITMAP
44
00
44
54
54
54
44
18
ENDCHAR
STARTCHAR Jcircumflex
ENCODING 308
SWIDTH 494 0
DWIDTH 4 0
BBX 4 8 0 0
BITMAP
01
00
01
01
01
01
41
55
ENDCHAR
STARTCHAR jcircumflex
ENCODING 309
SWIDTH 209 0
DWIDTH 2 0
BBX 3 8 -1 -1
BITMAP
14
00
10
14
14
14
10
60
ENDCHAR
STARTCHAR uni0136
ENCODING 310
SWIDTH 530 0
DWIDTH 5 0
BBX 5 8 0 -2
BITMAP
5100
5500
5800
6400
5100
5140
0400
0400
ENDCHAR
STARTCHAR uni0137
ENCODING 311
SWIDTH 431 0
DWIDTH 4 0
BBX 4 9 0 -2
BITMAP
40
40
45
48
54
44
41
04
04
ENDCHAR
STARTCHAR Lacute
ENCODING 313
SWIDTH 451 0
DWIDTH 4 0
BBX 4 8 0 0
BITMAP
10
00
50
50
50
50
50
65
ENDCHAR
STARTCHAR lacute
ENCODING 314
SWIDTH 207 0
DWIDTH 2 0
BBX 2 9 0 0
BITMAP
10
00
40
50
50
50
50
50
40
ENDCHAR
STARTCHAR uni013B
ENCODING 315
SWIDTH 451 0
DWIDTH 4 0
BBX 4 8 0 -2
BITMAP
50
50
50
50
50
65
04
04
ENDCHAR
STARTCHAR uni013C
ENCODING 316
SWIDTH 211 0
DWIDTH 2 0
BBX 2 9 0 -2
BITMAP
40
50
50
50
50
50
40
40
40
ENDCHAR
STARTCHAR Lcaron
ENCODING 317
SWIDTH 451 0
DWIDTH 4 0
BBX 4 6 0 0
BITMAP
55
54
50
50
50
65
ENDCHAR
STARTCHAR lcaron
ENCODING 318
SWIDTH 274 0
DWIDTH 2 0
BBX 3 7 0 0
BITMAP
54
54
50
50
50
50
40
ENDCHAR
STARTCHAR Ldot
ENCODING 319
SWIDTH 500 0
DWIDTH 5 0
BBX 4 6 0 0
BITMAP
50
50
54
50
50
65
ENDCHAR
STARTCHAR ldot
ENCODING 320
SWIDTH 314 0
DWIDTH 3 0
BBX 3 7 0 0
BITMAP
50
50
50
54
50
50
50
ENDCHAR
STARTCHAR Lslash
ENCODING 321
SWIDTH 504 0
DWIDTH 5 0
BBX 4 6 0 0
BITMAP
10
60
50
50
50
25
ENDCHAR
STARTCHAR lslash
ENCODING 322
SWIDTH 296 0
DWIDTH 3 0
BBX 3 7 0 0
BITMAP
10
10
24
50
10
10
10
ENDCHAR
STARTCHAR Nacute
ENCODING 323
SWIDTH 579 0
DWIDTH 5 0
BBX 5 8 0 0
BITMAP
0500
0000
5040
6040
5440
5440
5140
5140
ENDCHAR
STARTCHAR nacute
ENCODING 324
SWIDTH 507 0
DWIDTH 5 0
BBX 4 7 0 0
BITMAP
04
00
65
41
41
41
41
ENDCHAR
STARTCHAR uni0145
ENCODING 325
SWIDTH 579 0
DWIDTH 5 0
BBX 5 8 0 -2
BITMAP
5040
6040
5440
5440
5140
5140
0400
0400
ENDCHAR
STARTCHAR uni0146
ENCODING 326
SWIDTH 505 0
DWIDTH 5 0
BBX 4 7 0 -2
BITMAP
65
41
41
41
41
04
04
ENDCHAR
STARTCHAR Ncaron
ENCODING 327
SWIDTH 579 0
DWIDTH 5 0
BBX 5 8 0 0
BITMAP
0500
0000
5040
6040
5440
5440
5140
5140
ENDCHAR
STARTCHAR ncaron
ENCODING 328
SWIDTH 507 0
DWIDTH 5 0
BBX 4 7 0 0
BITMAP
14
04
65
41
41
41
41
ENDCHAR
STARTCHAR Eng
ENCODING 330
SWIDTH 519 0
DWIDTH 5 0
BBX 5 7 0 -1
BITMAP
5040
6040
5440
5440
5140
5140
0240
ENDCHAR
STARTCHAR eng
ENCODING 331
SWIDTH 507 0
DWIDTH 5 0
BBX 4 6 0 -1
BITMAP
65
41
41
41
41
06
ENDCHAR
STARTCHAR Omacron
ENCODING 332
SWIDTH 553 0
DWIDTH 5 0
BBX 5 8 0 0
BITMAP
1500
0000
2600
4040
4040
4040
4040
2600
ENDCHAR
STARTCHAR omacron
ENCODING 333
SWIDTH 496 0
DWIDTH 4 0
BBX 4 6 0 0
BITMAP
14
25
41
41
41
25
ENDCHAR
STARTCHAR Obreve
ENCODING 334
SWIDTH 553 0
DWIDTH 5 0
BBX 5 9 0 0
BITMAP
1100
0400
0000
2600
4040
4040
4040
4040
2600
ENDCHAR
STARTCHAR obreve
ENCODING 335
SWIDTH 496 0
DWIDTH 4 0
BBX 4 7 0 0
BITMAP
14
14
25
41
41
41
25
ENDCHAR
STARTCHAR Ohungarumlaut
ENCODING 336
SWIDTH 553 0
DWIDTH 5 0
BBX 5 8 0 0
BITMAP
0500
0000
2600
4040
4040
4040
4040
2600
ENDCHAR
STARTCHAR ohungarumlaut
ENCODING 337
SWIDTH 496 0
DWIDTH 4 0
BBX 4 7 0 0
BITMAP
05
00
25
41
41
41
25
ENDCHAR
STARTCHAR OE
ENCODING 338
SWIDTH 775 0
DWIDTH 7 0
BBX 6 6 0 0
BITMAP
2650
4100
4250
4100
4100
2650
ENDCHAR
STARTCHAR oe
ENCODING 339
SWIDTH 812 0
DWIDTH 7 0
BBX 7 5 0 0
BITMAP
2654
4204
4254
4200
2654
ENDCHAR
STARTCHAR Racute
ENCODING 340
SWIDTH 534 0
DWIDTH 5 0
BBX 4 8 0 0
BITMAP
04
00
66
51
51
66
51
51
ENDCHAR
STARTCHAR racute
ENCODING 341
SWIDTH 313 0
DWIDTH 3 0
BBX 3 7 0 0
BITMAP
10
00
64
50
40
40
40
ENDCHAR
STARTCHAR uni0156
ENCODING 342
SWIDTH 534 0
DWIDTH 5 0
BBX 4 8 0 -2
BITMAP
66
51
51
66
51
51
04
04
ENDCHAR
STARTCHAR uni0157
ENCODING 343
SWIDTH 313 0
DWIDTH 3 0
BBX 3 7 0 -2
BITMAP
64
50
40
40
40
40
40
ENDCHAR
STARTCHAR Rcaron
ENCODING 344
SWIDTH 534 0
DWIDTH 5 0
BBX 4 8 0 0
BITMAP
14
00
66
51
51
66
51
51
ENDCHAR
STARTCHAR rcaron
ENCODING 345
SWIDTH 313 0
DWIDTH 3 0
BBX 3 7 0 0
BITMAP
14
10
64
50
40
40
40
ENDCHAR
STARTCHAR Sacute
ENCODING 346
SWIDTH 562 0
DWIDTH 5 0
BBX 5 8 0 0
BITMAP
0400
0000
2600
5040
2400
0600
4040
2600
ENDCHAR
STARTCHAR sacute
ENCODING 347
SWIDTH 427 0
DWIDTH 4 0
BBX 4 7 0 0
BITMAP
04
00
54
40
14
01
59
ENDCHAR
STARTCHAR Scircumflex
ENCODING 348
SWIDTH 562 0
DWIDTH 5 0
BBX 5 8 0 0
BITMAP
0400
0000
2600
5040
2400
0600
4040
2600
ENDCHAR
STARTCHAR scircumflex
ENCODING 349
SWIDTH 427 0
DWIDTH 4 0
BBX 4 7 0 0
BITMAP
14
00
54
40
14
01
59
ENDCHAR
STARTCHAR uni015E
ENCODING 350
SWIDTH 562 0
DWIDTH 5 0
BBX 5 8 0 -2
BITMAP
2600
5040
2400
0600
4040
2600
0400
0400
ENDCHAR
STARTCHAR uni015F
ENCODING 351
SWIDTH 427 0
DWIDTH 4 0
BBX 4 7 0 -2
BITMAP
64
40
14
01
59
14
04
ENDCHAR
STARTCHAR Scaron
ENCODING 352
SWIDTH 562 0
DWIDTH 5 0
BBX 5 8 0 0
BITMAP
0400
0000
2600
5040
2400
0600
4040
2600
ENDCHAR
STARTCHAR scaron
ENCODING 353
SWIDTH 427 0
DWIDTH 4 0
BBX 4 7 0 0
BITMAP
14
00
54
40
14
01
59
ENDCHAR
STARTCHAR uni0162
ENCODING 354
SWIDTH 420 0
DWIDTH 4 0
BBX 4 8 0 -2
BITMAP
69
10
10
10
10
10
10
10
ENDCHAR
STARTCHAR uni0163
ENCODING 355
SWIDTH 347 0
DWIDTH 3 0
BBX 3 8 0 -2
BITMAP
10
64
10
10
10
24
10
10
ENDCHAR
STARTCHAR Tcaron
ENCODING 356
SWIDTH 420 0
DWIDTH 4 0
BBX 4 8 0 0
BITMAP
14
00
69
10
10
10
10
10
ENDCHAR
STARTCHAR tcaron
ENCODING 357
SWIDTH 396 0
DWIDTH 4 0
BBX 4 6 0 0
BITMAP
11
65
10
10
10
24
ENDCHAR
STARTCHAR Tbar
ENCODING 358
SWIDTH 501 0
DWIDTH 5 0
BBX 4 6 0 0
BITMAP
69
10
28
10
10
10
ENDCHAR
STARTCHAR tbar
ENCODING 359
SWIDTH 350 0
DWIDTH 3 0
BBX 3 6 0 0
BITMAP
10
64
10
64
10
24
ENDCHAR
STARTCHAR Utilde
ENCODING 360
SWIDTH 552 0
DWIDTH 5 0
BBX 5 6 0 0
BITMAP
4140
5140
5140
5140
5140
2600
ENDCHAR
STARTCHAR utilde
ENCODING 361
SWIDTH 507 0
DWIDTH 5 0
BBX 4 7 0 0
BITMAP
14
10
41
41
41
41
26
ENDCHAR
STARTCHAR Umacron
ENCODING 362
SWIDTH 552 0
DWIDTH 5 0
BBX 5 8 0 0
BITMAP
1500
0000
4140
5140
5140
5140
5140
2600
ENDCHAR
STARTCHAR umacron
ENCODING 363
SWIDTH 507 0
DWIDTH 5 0
BBX 4 6 0 0
BITMAP
14
41
41
41
41
26
ENDCHAR
STARTCHAR Ubreve
ENCODING 364
SWIDTH 552 0
DWIDTH 5 0
BBX 5 9 0 0
BITMAP
1100
0400
0000
4140
5140
5140
5140
5140
2600
ENDCHAR
STARTCHAR ubreve
ENCODING 365
SWIDTH 507 0
DWIDTH 5 0
BBX 4 7 0 0
BITMAP
14
14
41
41
41
41
26
ENDCHAR
STARTCHAR Uring
ENCODING 366
SWIDTH 552 0
DWIDTH 5 0
BBX 5 9 0 0
BITMAP
0400
1500
0400
4140
5140
5140
5140
5140
2600
ENDCHAR
STARTCHAR uring
ENCODING 367
SWIDTH 507 0
DWIDTH 5 0
BBX 4 8 0 0
BITMAP
14
14
14
41
41
41
41
26
ENDCHAR
STARTCHAR Uhungarumlaut
ENCODING 368
SWIDTH 552 0
DWIDTH 5 0
BBX 5 8 0 0
BITMAP
0500
0000
4140
5140
5140
5140
5140
2600
ENDCHAR
STARTCHAR uhungarumlaut
ENCODING 369
SWIDTH 507 0
DWIDTH 5 0
BBX 4 7 0 0
BITMAP
05
00
41
41
41
41
26
ENDCHAR
STARTCHAR Uogonek
ENCODING 370
SWIDTH 552 0
DWIDTH 5 0
BBX 5 7 0 -1
BITMAP
4140
5140
5140
5140
5140
2600
0400
ENDCHAR
STARTCHAR uogonek
ENCODING 371
SWIDTH 503 0
DWIDTH 5 0
BBX 4 6 0 -1
BITMAP
41
41
41
41
26
01
ENDCHAR
STARTCHAR Wcircumflex
ENCODING 372
SWIDTH 795 0
DWIDTH 7 0
BBX 7 8 0 0
BITMAP
0100
0000
4204
4244
5444
1450
1450
1460
ENDCHAR
STARTCHAR wcircumflex
ENCODING 373
SWIDTH 682 0
DWIDTH 6 0
BBX 6 7 0 0
BITMAP
0500
0000
4510
4510
5510
1580
2080
ENDCHAR
STARTCHAR Ycircumflex
ENCODING 374
SWIDTH 493 0
DWIDTH 4 0
BBX 4 8 0 0
BITMAP
14
00
41
11
14
08
04
04
ENDCHAR
STARTCHAR ycircumflex
ENCODING 375
SWIDTH 459 0
DWIDTH 4 0
BBX 4 8 0 -1
BITMAP
14
00
41
51
14
14
14
60
ENDCHAR
STARTCHAR Ydieresis
ENCODING 376
SWIDTH 493 0
DWIDTH 4 0
BBX 4 8 0 0
BITMAP
15
00
41
11
14
08
04
04
ENDCHAR
STARTCHAR Zacute
ENCODING 377
SWIDTH 482 0
DWIDTH 4 0
BBX 4 8 0 0
BITMAP
04
00
56
05
08
10
10
A5
ENDCHAR
STARTCHAR zacute
ENCODING 378
SWIDTH 405 0
DWIDTH 4 0
BBX 4 7 0 0
BITMAP
08
00
59
08
10
10
94
ENDCHAR
STARTCHAR Zdotaccent
ENCODING 379
SWIDTH 482 0
DWIDTH 4 0
BBX 4 8 0 0
BITMAP
04
00
56
05
08
10
10
A5
ENDCHAR
STARTCHAR zdotaccent
ENCODING 380
SWIDTH 405 0
DWIDTH 4 0
BBX 4 7 0 0
BITMAP
14
00
59
08
10
10
94
ENDCHAR
STARTCHAR Zcaron
ENCODING 381
SWIDTH 482 0
DWIDTH 4 0
BBX 4 8 0 0
BITMAP
14
00
56
05
08
10
10
A5
ENDCHAR
STARTCHAR zcaron
ENCODING 382
SWIDTH 405 0
DWIDTH 4 0
BBX 4 7 0 0
BITMAP
14
00
59
08
10
10
94
ENDCHAR
STARTCHAR florin
ENCODING 402
SWIDTH 494 0
DWIDTH 4 0
BBX 4 8 0 -1
BITMAP
02
04
04
19
04
14
10
50
ENDCHAR
STARTCHAR AEacute
ENCODING 508
SWIDTH 773 0
DWIDTH 7 0
BBX 6 8 0 0
BITMAP
0040
0000
0350
0900
1650
2100
6600
8250
ENDCHAR
STARTCHAR aeacute
ENCODING 509
SWIDTH 795 0
DWIDTH 7 0
BBX 7 7 0 0
BITMAP
0040
0000
1654
0204
0254
4200
6654
ENDCHAR
STARTCHAR Oslashacute
ENCODING 510
SWIDTH 558 0
DWIDTH 5 0
BBX 5 8 0 0
BITMAP
0400
0000
2640
4140
4540
5440
6040
6600
ENDCHAR
STARTCHAR oslashacute
ENCODING 511
SWIDTH 521 0
DWIDTH 5 0
BBX 4 7 0 0
BITMAP
05
00
26
42
55
61
66
ENDCHAR
STARTCHAR uni0218
ENCODING 536
SWIDTH 562 0
DWIDTH 5 0
BBX 5 8 0 -2
BITMAP
2600
5040
2400
0600
4040
2600
0400
0400
ENDCHAR
STARTCHAR uni0219
ENCODING 537
SWIDTH 427 0
DWIDTH 4 0
BBX 4 7 0 -2
BITMAP
54
40
14
01
59
00
10
ENDCHAR
STARTCHAR circumflex
ENCODING 710
SWIDTH 326 0
DWIDTH 3 0
BBX 1 1 1 6
BITMAP
80
ENDCHAR
STARTCHAR caron
ENCODING 711
SWIDTH 326 0
DWIDTH 3 0
BBX 2 2 0 5
BITMAP
50
10
ENDCHAR
STARTCHAR uni02C9
ENCODING 713
SWIDTH 358 0
DWIDTH 3 0
BBX 2 1 1 5
BITMAP
50
ENDCHAR
STARTCHAR breve
ENCODING 728
SWIDTH 332 0
DWIDTH 3 0
BBX 3 2 0 5
BITMAP
44
10
ENDCHAR
STARTCHAR dotaccent
ENCODING 729
SWIDTH 183 0
DWIDTH 2 0
BBX 1 1 0 6
BITMAP
40
ENDCHAR
STARTCHAR ring
ENCODING 730
SWIDTH 297 0
DWIDTH 3 0
BBX 2 2 0 5
BITMAP
50
50
ENDCHAR
STARTCHAR ogonek
ENCODING 731
SWIDTH 243 0
DWIDTH 2 0
BBX 2 1 0 -1
BITMAP
50
ENDCHAR
STARTCHAR tilde
ENCODING 732
SWIDTH 369 0
DWIDTH 3 0
BBX 3 2 0 5
BITMAP
54
14
ENDCHAR
STARTCHAR hungarumlaut
ENCODING 733
SWIDTH 377 0
DWIDTH 3 0
BBX 2 1 1 6
BITMAP
50
ENDCHAR
STARTCHAR Mu
ENCODING 924
SWIDTH 527 0
DWIDTH 5 0
BBX 4 6 0 -1
BITMAP
51
51
51
51
66
50
ENDCHAR
STARTCHAR Pi
ENCODING 928
SWIDTH 605 0
DWIDTH 5 0
BBX 5 6 0 0
BITMAP
6680
1100
1100
1100
1100
1100
ENDCHAR
STARTCHAR Sigma
ENCODING 931
SWIDTH 481 0
DWIDTH 4 0
BBX 4 6 0 0
BITMAP
65
20
14
14
10
65
ENDCHAR
STARTCHAR uni0901
ENCODING 2305
SWIDTH 0 0
DWIDTH 0 0
BBX 3 2 -3 6
BITMAP
40
14
ENDCHAR
STARTCHAR uni0902
ENCODING 2306
SWIDTH 0 0
DWIDTH 0 0
BBX 1 1 -2 7
BITMAP
40
ENDCHAR
STARTCHAR uni0903
ENCODING 2307
SWIDTH 247 0
DWIDTH 2 0
BBX 1 4 1 0
BITMAP
40
00
00
40
ENDCHAR
STARTCHAR uni0905
ENCODING 2309
SWIDTH 598 0
DWIDTH 5 0
BBX 6 6 0 0
BITMAP
1490
0440
1440
0940
0440
5440
ENDCHAR
STARTCHAR uni0906
ENCODING 2310
SWIDTH 828 0
DWIDTH 7 0
BBX 8 6 0 0
BITMAP
1499
0444
1444
0944
0444
5444
ENDCHAR
STARTCHAR uni0907
ENCODING 2311
SWIDTH 478 0
DWIDTH 4 0
BBX 4 6 0 0
BITMAP
56
15
40
15
41
55
ENDCHAR
STARTCHAR uni0908
ENCODING 2312
SWIDTH 478 0
DWIDTH 4 0
BBX 4 8 0 0
BITMAP
05
04
56
15
40
15
41
55
ENDCHAR
STARTCHAR uni0909
ENCODING 2313
SWIDTH 471 0
DWIDTH 4 0
BBX 4 6 0 0
BITMAP
56
01
09
01
41
55
ENDCHAR
STARTCHAR uni090A
ENCODING 2314
SWIDTH 661 0
DWIDTH 6 0
BBX 6 6 0 0
BITMAP
5650
0100
0900
0150
4110
5550
ENDCHAR
STARTCHAR uni090B
ENCODING 2315
SWIDTH 753 0
DWIDTH 7 0
BBX 7 6 0 0
BITMAP
5654
0100
1560
4260
0940
1150
ENDCHAR
STARTCHAR uni090C
ENCODING 2316
SWIDTH 676 0
DWIDTH 6 0
BBX 6 8 0 -2
BITMAP
55A0
0050
1590
4550
4050
2450
0140
0050
ENDCHAR
STARTCHAR uni090D
ENCODING 2317
SWIDTH 521 0
DWIDTH 5 0
BBX 5 8 0 0
BITMAP
1100
1500
A640
5100
5100
5500
1000
2500
ENDCHAR
STARTCHAR uni090E
ENCODING 2318
SWIDTH 522 0
DWIDTH 5 0
BBX 5 8 0 0
BITMAP
0400
0100
A640
5100
5100
5500
1000
2500
ENDCHAR
STARTCHAR uni090F
ENCODING 2319
SWIDTH 526 0
DWIDTH 5 0
BBX 5 6 0 0
BITMAP
A640
5100
5100
5500
1000
2500
ENDCHAR
STARTCHAR uni0910
ENCODING 2320
SWIDTH 526 0
DWIDTH 5 0
BBX 5 8 0 0
BITMAP
0400
0100
A640
5100
5100
5500
1000
2500
ENDCHAR
STARTCHAR uni0911
ENCODING 2321
SWIDTH 829 0
DWIDTH 7 0
BBX 8 8 0 0
BITMAP
0044
0054
1499
0444
1444
0944
0444
5444
ENDCHAR
STARTCHAR uni0912
ENCODING 2322
SWIDTH 828 0
DWIDTH 7 0
BBX 8 8 0 0
BITMAP
0040
0014
1499
0444
1444
0944
0444
5444
ENDCHAR
STARTCHAR uni0913
ENCODING 2323
SWIDTH 829 0
DWIDTH 7 0
BBX 8 8 0 0
BITMAP
0010
0014
1499
0444
1444
0944
0444
5444
ENDCHAR
STARTCHAR uni0914
ENCODING 2324
SWIDTH 829 0
DWIDTH 7 0
BBX 8 8 0 0
BITMAP
0014
0014
1499
0444
1444
0944
0444
5444
ENDCHAR
STARTCHAR uni0915
ENCODING 2325
SWIDTH 725 0
DWIDTH 7 0
BBX 7 6 0 0
BITMAP
5654
1250
4110
4110
1550
0100
ENDCHAR
STARTCHAR uni0916
ENCODING 2326
SWIDTH 696 0
DWIDTH 6 0
BBX 6 6 0 0
BITMAP
5960
0510
1510
5110
1150
1410
ENDCHAR
STARTCHAR uni0917
ENCODING 2327
SWIDTH 494 0
DWIDTH 4 0
BBX 5 6 0 0
BITMAP
6640
1100
1100
5100
0100
0100
ENDCHAR
STARTCHAR uni0918
ENCODING 2328
SWIDTH 559 0
DWIDTH 5 0
BBX 5 6 0 0
BITMAP
A680
4140
2540
4140
4140
1640
ENDCHAR
STARTCHAR uni0919
ENCODING 2329
SWIDTH 505 0
DWIDTH 5 0
BBX 5 6 0 0
BITMAP
5640
1500
4000
1500
0100
5500
ENDCHAR
STARTCHAR uni091A
ENCODING 2330
SWIDTH 563 0
DWIDTH 5 0
BBX 5 6 0 0
BITMAP
5680
0140
6540
1140
1640
0140
ENDCHAR
STARTCHAR uni091B
ENCODING 2331
SWIDTH 581 0
DWIDTH 5 0
BBX 5 6 0 0
BITMAP
6580
4040
4140
2040
4040
2540
ENDCHAR
STARTCHAR uni091C
ENCODING 2332
SWIDTH 547 0
DWIDTH 5 0
BBX 5 6 0 0
BITMAP
5640
0100
2600
0500
0500
5100
ENDCHAR
STARTCHAR uni091D
ENCODING 2333
SWIDTH 664 0
DWIDTH 6 0
BBX 6 6 0 0
BITMAP
5A90
1840
4040
1A80
4140
5540
ENDCHAR
STARTCHAR uni091E
ENCODING 2334
SWIDTH 592 0
DWIDTH 5 0
BBX 6 6 0 0
BITMAP
5590
5040
0440
0940
5440
0040
ENDCHAR
STARTCHAR uni091F
ENCODING 2335
SWIDTH 485 0
DWIDTH 4 0
BBX 5 6 0 0
BITMAP
5640
0100
1500
4000
4100
2500
ENDCHAR
STARTCHAR uni0920
ENCODING 2336
SWIDTH 512 0
DWIDTH 5 0
BBX 5 6 0 0
BITMAP
5640
0100
1900
4100
4100
2500
ENDCHAR
STARTCHAR uni0921
ENCODING 2337
SWIDTH 475 0
DWIDTH 4 0
BBX 4 6 0 0
BITMAP
56
15
40
15
01
55
ENDCHAR
STARTCHAR uni0922
ENCODING 2338
SWIDTH 485 0
DWIDTH 4 0
BBX 5 6 0 0
BITMAP
5640
0100
1500
4500
4500
2500
ENDCHAR
STARTCHAR uni0923
ENCODING 2339
SWIDTH 681 0
DWIDTH 6 0
BBX 6 6 0 0
BITMAP
A660
4110
4110
5110
1410
0010
ENDCHAR
STARTCHAR uni0924
ENCODING 2340
SWIDTH 496 0
DWIDTH 4 0
BBX 5 6 0 0
BITMAP
5640
0100
1600
4100
4100
6100
ENDCHAR
STARTCHAR uni0925
ENCODING 2341
SWIDTH 593 0
DWIDTH 5 0
BBX 6 6 0 0
BITMAP
2890
0440
5440
4040
1540
0040
ENDCHAR
STARTCHAR uni0926
ENCODING 2342
SWIDTH 489 0
DWIDTH 4 0
BBX 5 6 0 0
BITMAP
5640
1500
4000
4100
1600
0100
ENDCHAR
STARTCHAR uni0927
ENCODING 2343
SWIDTH 560 0
DWIDTH 5 0
BBX 5 6 0 0
BITMAP
A280
4140
2540
4140
4140
1640
ENDCHAR
STARTCHAR uni0928
ENCODING 2344
SWIDTH 473 0
DWIDTH 4 0
BBX 4 6 0 0
BITMAP
56
01
55
41
01
01
ENDCHAR
STARTCHAR uni0928093C
ENCODING 2345
SWIDTH 473 0
DWIDTH 4 0
BBX 4 6 0 0
BITMAP
56
01
55
41
01
11
ENDCHAR
STARTCHAR uni092A
ENCODING 2346
SWIDTH 503 0
DWIDTH 5 0
BBX 5 6 0 0
BITMAP
A640
5100
5100
5200
1600
0100
ENDCHAR
STARTCHAR uni092B
ENCODING 2347
SWIDTH 739 0
DWIDTH 7 0
BBX 7 6 0 0
BITMAP
A654
5250
5110
1210
0150
0100
ENDCHAR
STARTCHAR uni092C
ENCODING 2348
SWIDTH 491 0
DWIDTH 4 0
BBX 5 6 0 0
BITMAP
5640
1500
5100
4500
1500
0100
ENDCHAR
STARTCHAR uni092D
ENCODING 2349
SWIDTH 491 0
DWIDTH 4 0
BBX 5 6 0 0
BITMAP
8640
4100
6600
4100
0100
0100
ENDCHAR
STARTCHAR uni092E
ENCODING 2350
SWIDTH 490 0
DWIDTH 4 0
BBX 5 6 0 0
BITMAP
9640
4100
6500
4100
0100
0100
ENDCHAR
STARTCHAR uni092F
ENCODING 2351
SWIDTH 564 0
DWIDTH 5 0
BBX 5 6 0 0
BITMAP
6A80
0540
5140
4140
1640
0140
ENDCHAR
STARTCHAR uni0930
ENCODING 2352
SWIDTH 337 0
DWIDTH 3 0
BBX 3 6 0 0
BITMAP
58
04
14
50
10
14
ENDCHAR
STARTCHAR uni0930093C
ENCODING 2353
SWIDTH 347 0
DWIDTH 3 0
BBX 3 7 0 -1
BITMAP
58
04
04
50
10
10
40
ENDCHAR
STARTCHAR uni0932
ENCODING 2354
SWIDTH 676 0
DWIDTH 6 0
BBX 6 6 0 0
BITMAP
55A0
1590
4550
4450
4050
2410
ENDCHAR
STARTCHAR uni0933
ENCODING 2355
SWIDTH 672 0
DWIDTH 6 0
BBX 6 6 0 0
BITMAP
5590
0040
1680
4510
4510
2A90
ENDCHAR
STARTCHAR uni0933093C
ENCODING 2356
SWIDTH 672 0
DWIDTH 6 0
BBX 6 7 0 -1
BITMAP
5590
0040
1680
4510
4510
2A90
1000
ENDCHAR
STARTCHAR uni0935
ENCODING 2357
SWIDTH 484 0
DWIDTH 4 0
BBX 5 6 0 0
BITMAP
5640
1500
4100
4100
1500
0100
ENDCHAR
STARTCHAR uni0936
ENCODING 2358
SWIDTH 614 0
DWIDTH 6 0
BBX 6 6 0 0
BITMAP
2890
4440
0440
5440
1040
1440
ENDCHAR
STARTCHAR uni0937
ENCODING 2359
SWIDTH 505 0
DWIDTH 5 0
BBX 5 6 0 0
BITMAP
A640
6100
5500
5200
1600
0100
ENDCHAR
STARTCHAR uni0938
ENCODING 2360
SWIDTH 575 0
DWIDTH 5 0
BBX 5 6 0 0
BITMAP
6580
1040
1040
6640
5040
1040
ENDCHAR
STARTCHAR uni0939
ENCODING 2361
SWIDTH 481 0
DWIDTH 4 0
BBX 5 7 0 -1
BITMAP
5640
1500
5000
2500
5100
4000
1500
ENDCHAR
STARTCHAR uni093C
ENCODING 2364
SWIDTH 0 0
DWIDTH 0 0
BBX 1 1 -2 -1
BITMAP
40
ENDCHAR
STARTCHAR uni093D
ENCODING 2365
SWIDTH 529 0
DWIDTH 5 0
BBX 3 6 1 0
BITMAP
94
40
60
08
04
58
ENDCHAR
STARTCHAR uni093E
ENCODING 2366
SWIDTH 231 0
DWIDTH 2 0
BBX 2 6 0 0
BITMAP
A0
50
50
50
50
10
ENDCHAR
STARTCHAR uni093F
ENCODING 2367
SWIDTH 231 0
DWIDTH 2 0
BBX 6 8 0 0
BITMAP
2550
5010
A000
5000
5000
5000
5000
1000
ENDCHAR
STARTCHAR uni0940
ENCODING 2368
SWIDTH 231 0
DWIDTH 2 0
BBX 3 8 -1 0
BITMAP
A0
14
28
14
14
14
14
04
ENDCHAR
STARTCHAR uni0941
ENCODING 2369
SWIDTH 0 0
DWIDTH 0 0
BBX 4 3 -3 -2
BITMAP
04
41
58
ENDCHAR
STARTCHAR uni0942
ENCODING 2370
SWIDTH 0 0
DWIDTH 0 0
BBX 4 3 -3 -2
BITMAP
14
41
11
ENDCHAR
STARTCHAR uni0943
ENCODING 2371
SWIDTH 0 0
DWIDTH 0 0
BBX 3 3 -3 -2
BITMAP
10
40
54
ENDCHAR
STARTCHAR uni0945
ENCODING 2373
SWIDTH 0 0
DWIDTH 0 0
BBX 4 2 -3 6
BITMAP
41
14
ENDCHAR
STARTCHAR uni0946
ENCODING 2374
SWIDTH 0 0
DWIDTH 0 0
BBX 2 2 -3 6
BITMAP
40
10
ENDCHAR
STARTCHAR uni0947
ENCODING 2375
SWIDTH 0 0
DWIDTH 0 0
BBX 2 2 -3 6
BITMAP
40
10
ENDCHAR
STARTCHAR uni0948
ENCODING 2376
SWIDTH 0 0
DWIDTH 0 0
BBX 3 2 -3 6
BITMAP
50
24
ENDCHAR
STARTCHAR uni0949
ENCODING 2377
SWIDTH 231 0
DWIDTH 2 0
BBX 4 8 -1 0
BITMAP
41
14
28
14
14
14
14
04
ENDCHAR
STARTCHAR uni094A
ENCODING 2378
SWIDTH 231 0
DWIDTH 2 0
BBX 3 8 -1 0
BITMAP
40
10
28
14
14
14
14
04
ENDCHAR
STARTCHAR uni094B
ENCODING 2379
SWIDTH 231 0
DWIDTH 2 0
BBX 3 8 -1 0
BITMAP
40
10
28
14
14
14
14
04
ENDCHAR
STARTCHAR uni094C
ENCODING 2380
SWIDTH 231 0
DWIDTH 2 0
BBX 3 8 -1 0
BITMAP
54
14
28
14
14
14
14
04
ENDCHAR
STARTCHAR uni094D
ENCODING 2381
SWIDTH 0 0
DWIDTH 0 0
BBX 1 1 -1 -2
BITMAP
40
ENDCHAR
STARTCHAR uni0950
ENCODING 2384
SWIDTH 847 0
DWIDTH 8 0
BBX 7 8 0 0
BITMAP
0040
0004
1810
0100
0114
0644
4144
5858
ENDCHAR
STARTCHAR uni0951
ENCODING 2385
SWIDTH 0 0
DWIDTH 0 0
BBX 1 2 -2 6
BITMAP
40
40
ENDCHAR
STARTCHAR uni0952
ENCODING 2386
SWIDTH 0 0
DWIDTH 0 0
BBX 3 1 -4 -1
BITMAP
54
ENDCHAR
STARTCHAR uni0953
ENCODING 2387
SWIDTH 0 0
DWIDTH 0 0
BBX 1 2 -2 6
BITMAP
40
40
ENDCHAR
STARTCHAR uni0954
ENCODING 2388
SWIDTH 0 0
DWIDTH 0 0
BBX 1 2 -1 6
BITMAP
40
40
ENDCHAR
STARTCHAR uni0915093C
ENCODING 2392
SWIDTH 725 0
DWIDTH 7 0
BBX 7 7 0 -1
BITMAP
5654
1250
4110
4110
1550
0100
1000
ENDCHAR
STARTCHAR uni0916093C
ENCODING 2393
SWIDTH 696 0
DWIDTH 6 0
BBX 6 7 0 -1
BITMAP
5960
0510
1510
5110
1150
1410
4000
ENDCHAR
STARTCHAR uni0917093C
ENCODING 2394
SWIDTH 494 0
DWIDTH 4 0
BBX 5 7 0 -1
BITMAP
6640
1100
1100
5100
0100
0100
1000
ENDCHAR
STARTCHAR uni091C093C
ENCODING 2395
SWIDTH 547 0
DWIDTH 5 0
BBX 5 6 0 0
BITMAP
5640
0100
2600
0500
0500
5100
ENDCHAR
STARTCHAR uni0921093C
ENCODING 2396
SWIDTH 475 0
DWIDTH 4 0
BBX 4 7 0 -1
BITMAP
56
15
40
15
01
55
04
ENDCHAR
STARTCHAR uni0922093C
ENCODING 2397
SWIDTH 485 0
DWIDTH 4 0
BBX 5 7 0 -1
BITMAP
5640
0100
1500
4500
4500
2500
0400
ENDCHAR
STARTCHAR uni092B093C
ENCODING 2398
SWIDTH 739 0
DWIDTH 7 0
BBX 7 7 0 -1
BITMAP
A654
5250
5110
1210
0150
0100
1000
ENDCHAR
STARTCHAR uni092F093C
ENCODING 2399
SWIDTH 564 0
DWIDTH 5 0
BBX 5 7 0 -1
BITMAP
6A80
0540
5140
4140
1640
0140
1000
ENDCHAR
STARTCHAR uni0960
ENCODING 2400
SWIDTH 753 0
DWIDTH 7 0
BBX 7 7 0 -1
BITMAP
5654
0100
1660
42A0
0A40
2150
0050
ENDCHAR
STARTCHAR uni0961
ENCODING 2401
SWIDTH 676 0
DWIDTH 6 0
BBX 6 8 0 -2
BITMAP
55A0
1590
4550
4450
4090
2500
0080
0150
ENDCHAR
STARTCHAR uni0964
ENCODING 2404
SWIDTH 286 0
DWIDTH 3 0
BBX 1 6 1 0
BITMAP
40
40
40
40
40
40
ENDCHAR
STARTCHAR uni0965
ENCODING 2405
SWIDTH 518 0
DWIDTH 5 0
BBX 3 6 1 0
BITMAP
44
44
44
44
44
44
ENDCHAR
STARTCHAR uni0966
ENCODING 2406
SWIDTH 519 0
DWIDTH 5 0
BBX 4 6 0 0
BITMAP
26
41
41
41
41
26
ENDCHAR
STARTCHAR uni0967
ENCODING 2407
SWIDTH 288 0
DWIDTH 3 0
BBX 2 6 0 0
BITMAP
60
10
10
10
10
10
ENDCHAR
STARTCHAR uni0968
ENCODING 2408
SWIDTH 453 0
DWIDTH 4 0
BBX 4 6 0 0
BITMAP
55
41
05
14
50
55
ENDCHAR
STARTCHAR uni0969
ENCODING 2409
SWIDTH 489 0
DWIDTH 4 0
BBX 4 6 0 0
BITMAP
55
41
05
01
41
55
ENDCHAR
STARTCHAR uni096A
ENCODING 2410
SWIDTH 453 0
DWIDTH 4 0
BBX 4 6 0 0
BITMAP
09
15
11
41
56
01
ENDCHAR
STARTCHAR uni096B
ENCODING 2411
SWIDTH 480 0
DWIDTH 4 0
BBX 4 6 0 0
BITMAP
55
40
55
01
41
25
ENDCHAR
STARTCHAR uni096C
ENCODING 2412
SWIDTH 495 0
DWIDTH 4 0
BBX 4 6 0 0
BITMAP
25
40
55
41
41
25
ENDCHAR
STARTCHAR uni096D
ENCODING 2413
SWIDTH 380 0
DWIDTH 3 0
BBX 4 6 0 0
BITMAP
59
04
04
10
10
10
ENDCHAR
STARTCHAR uni096E
ENCODING 2414
SWIDTH 523 0
DWIDTH 5 0
BBX 4 6 0 0
BITMAP
66
41
26
41
41
15
ENDCHAR
STARTCHAR uni096F
ENCODING 2415
SWIDTH 493 0
DWIDTH 4 0
BBX 4 6 0 0
BITMAP
55
41
41
16
01
15
ENDCHAR
STARTCHAR uni0970
ENCODING 2416
SWIDTH 391 0
DWIDTH 4 0
BBX 3 4 0 1
BITMAP
14
44
44
14
ENDCHAR
STARTCHAR uni0972
ENCODING 2418
SWIDTH 598 0
DWIDTH 5 0
BBX 6 8 0 0
BITMAP
0110
0150
1490
0440
1440
0940
0440
5440
ENDCHAR
STARTCHAR Wgrave
ENCODING 7808
SWIDTH 795 0
DWIDTH 7 0
BBX 7 8 0 0
BITMAP
0100
0000
4204
4244
5444
1450
1450
1460
ENDCHAR
STARTCHAR wgrave
ENCODING 7809
SWIDTH 682 0
DWIDTH 6 0
BBX 6 7 0 0
BITMAP
0800
0000
4510
4510
5510
1580
2080
ENDCHAR
STARTCHAR Wacute
ENCODING 7810
SWIDTH 795 0
DWIDTH 7 0
BBX 7 8 0 0
BITMAP
0140
0000
4204
4244
5444
1450
1450
1460
ENDCHAR
STARTCHAR wacute
ENCODING 7811
SWIDTH 682 0
DWIDTH 6 0
BBX 6 7 0 0
BITMAP
0100
0000
4510
4510
5510
1580
2080
ENDCHAR
STARTCHAR Wdieresis
ENCODING 7812
SWIDTH 795 0
DWIDTH 7 0
BBX 7 8 0 0
BITMAP
0440
0000
4204
4244
5444
1450
1450
1460
ENDCHAR
STARTCHAR wdieresis
ENCODING 7813
SWIDTH 682 0
DWIDTH 6 0
BBX 6 7 0 0
BITMAP
0500
0000
4510
4510
5510
1580
2080
ENDCHAR
STARTCHAR uni1E9E
ENCODING 7838
SWIDTH 542 0
DWIDTH 5 0
BBX 5 6 0 0
BITMAP
2600
5100
5600
5040
5040
4600
ENDCHAR
STARTCHAR Ygrave
ENCODING 7922
SWIDTH 493 0
DWIDTH 4 0
BBX 4 8 0 0
BITMAP
10
00
41
11
14
08
04
04
ENDCHAR
STARTCHAR ygrave
ENCODING 7923
SWIDTH 459 0
DWIDTH 4 0
BBX 4 8 0 -1
BITMAP
10
00
41
51
14
14
14
60
ENDCHAR
STARTCHAR uni200B
ENCODING 8203
SWIDTH 0 0
DWIDTH 0 0
BBX 1 1 0 0
BITMAP
00
ENDCHAR
STARTCHAR uni200C
ENCODING 8204
SWIDTH 0 0
DWIDTH 0 0
BBX 2 10 -1 -2
BITMAP
50
50
50
50
50
50
50
50
50
50
ENDCHAR
STARTCHAR uni200D
ENCODING 8205
SWIDTH 0 0
DWIDTH 0 0
BBX 2 10 -1 -2
BITMAP
A0
A0
50
50
50
50
50
50
50
50
ENDCHAR
STARTCHAR endash
ENCODING 8211
SWIDTH 408 0
DWIDTH 4 0
BBX 3 1 0 3
BITMAP
54
ENDCHAR
STARTCHAR emdash
ENCODING 8212
SWIDTH 537 0
DWIDTH 5 0
BBX 5 1 0 3
BITMAP
5540
ENDCHAR
STARTCHAR quoteleft
ENCODING 8216
SWIDTH 179 0
DWIDTH 2 0
BBX 1 2 0 4
BITMAP
40
40
ENDCHAR
STARTCHAR quoteright
ENCODING 8217
SWIDTH 179 0
DWIDTH 2 0
BBX 1 2 0 4
BITMAP
40
40
ENDCHAR
STARTCHAR quotesinglbase
ENCODING 8218
SWIDTH 187 0
DWIDTH 2 0
BBX 1 2 0 -1
BITMAP
40
40
ENDCHAR
STARTCHAR quotedblleft
ENCODING 8220
SWIDTH 329 0
DWIDTH 3 0
BBX 3 2 0 4
BITMAP
44
44
ENDCHAR
STARTCHAR quotedblright
ENCODING 8221
SWIDTH 329 0
DWIDTH 3 0
BBX 3 2 0 4
BITMAP
44
44
ENDCHAR
STARTCHAR quotedblbase
ENCODING 8222
SWIDTH 337 0
DWIDTH 3 0
BBX 3 2 0 -1
BITMAP
44
44
ENDCHAR
STARTCHAR dagger
ENCODING 8224
SWIDTH 427 0
DWIDTH 4 0
BBX 4 6 0 0
BITMAP
10
65
10
10
10
10
ENDCHAR
STARTCHAR daggerdbl
ENCODING 8225
SWIDTH 427 0
DWIDTH 4 0
BBX 4 6 0 0
BITMAP
10
65
10
10
64
10
ENDCHAR
STARTCHAR bullet
ENCODING 8226
SWIDTH 273 0
DWIDTH 2 0
BBX 1 2 1 2
BITMAP
40
80
ENDCHAR
STARTCHAR ellipsis
ENCODING 8230
SWIDTH 591 0
DWIDTH 5 0
BBX 5 2 0 0
BITMAP
0440
4840
ENDCHAR
STARTCHAR perthousand
ENCODING 8240
SWIDTH 1027 0
DWIDTH 9 0
BBX 9 6 0 0
BITMAP
544000
450000
550000
055140
051440
045540
ENDCHAR
STARTCHAR guilsinglleft
ENCODING 8249
SWIDTH 290 0
DWIDTH 3 0
BBX 2 3 0 1
BITMAP
10
50
10
ENDCHAR
STARTCHAR guilsinglright
ENCODING 8250
SWIDTH 290 0
DWIDTH 3 0
BBX 2 3 0 1
BITMAP
40
10
10
ENDCHAR
STARTCHAR fraction
ENCODING 8260
SWIDTH 117 0
DWIDTH 1 0
BBX 5 6 -2 0
BITMAP
0040
0100
0400
0400
1000
4000
ENDCHAR
STARTCHAR Euro
ENCODING 8364
SWIDTH 523 0
DWIDTH 5 0
BBX 4 6 0 0
BITMAP
26
11
64
64
11
26
ENDCHAR
STARTCHAR uni20B9
ENCODING 8377
SWIDTH 414 0
DWIDTH 4 0
BBX 3 6 0 0
BITMAP
68
58
04
50
10
14
ENDCHAR
STARTCHAR trademark
ENCODING 8482
SWIDTH 591 0
DWIDTH 5 0
BBX 4 2 1 4
BITMAP
56
55
ENDCHAR
STARTCHAR uni2126
ENCODING 8486
SWIDTH 629 0
DWIDTH 6 0
BBX 5 6 0 0
BITMAP
2540
1040
1040
1040
1040
6580
ENDCHAR
STARTCHAR partialdiff
ENCODING 8706
SWIDTH 481 0
DWIDTH 4 0
BBX 4 7 0 0
BITMAP
10
05
01
26
42
41
65
ENDCHAR
STARTCHAR uni2206
ENCODING 8710
SWIDTH 594 0
DWIDTH 5 0
BBX 5 6 0 0
BITMAP
0800
0500
1100
1140
5040
9580
ENDCHAR
STARTCHAR minus
ENCODING 8722
SWIDTH 523 0
DWIDTH 5 0
BBX 3 1 1 3
BITMAP
54
ENDCHAR
STARTCHAR approxequal
ENCODING 8776
SWIDTH 523 0
DWIDTH 5 0
BBX 3 3 1 2
BITMAP
54
00
54
ENDCHAR
STARTCHAR notequal
ENCODING 8800
SWIDTH 523 0
DWIDTH 5 0
BBX 3 5 1 1
BITMAP
10
64
10
64
40
ENDCHAR
STARTCHAR lessequal
ENCODING 8804
SWIDTH 523 0
DWIDTH 5 0
BBX 4 4 0 1
BITMAP
05
64
05
15
ENDCHAR
STARTCHAR greaterequal
ENCODING 8805
SWIDTH 523 0
DWIDTH 5 0
BBX 3 4 1 1
BITMAP
50
18
40
54
ENDCHAR
STARTCHAR uni25CC
ENCODING 9676
SWIDTH 701 0
DWIDTH 6 0
BBX 6 6 0 0
BITMAP
0540
1050
1010
5000
1010
0540
ENDCHAR
STARTCHAR commaaccent
ENCODING 63171
SWIDTH 0 0
DWIDTH 0 0
BBX 2 2 1 -2
BITMAP
50
40
ENDCHAR
STARTCHAR .notdef
ENCODING -1
SWIDTH 600 0
DWIDTH 5 0
BBX 4 6 1 0
BITMAP
95
41
41
41
41
95
ENDCHAR
STARTCHAR .null
ENCODING -1
SWIDTH 0 0
DWIDTH 0 0
BBX 1 1 0 0
BITMAP
00
ENDCHAR
STARTCHAR nonmarkingreturn
ENCODING -1
SWIDTH 333 0
DWIDTH 3 0
BBX 1 1 0 0
BITMAP
00
ENDCHAR
STARTCHAR uni0915094D
ENCODING -1
SWIDTH 519 0
DWIDTH 5 0
BBX 6 6 0 0
BITMAP
5650
1250
4100
4100
1500
0100
ENDCHAR
STARTCHAR uni0916094D
ENCODING -1
SWIDTH 468 0
DWIDTH 4 0
BBX 5 6 0 0
BITMAP
5940
0500
1500
5100
1140
1400
ENDCHAR
STARTCHAR uni0917094D
ENCODING -1
SWIDTH 264 0
DWIDTH 2 0
BBX 3 4 0 2
BITMAP
64
10
10
50
ENDCHAR
STARTCHAR uni0918094D
ENCODING -1
SWIDTH 321 0
DWIDTH 3 0
BBX 4 6 0 0
BITMAP
A5
40
24
40
40
15
ENDCHAR
STARTCHAR uni0919094D
ENCODING -1
SWIDTH 505 0
DWIDTH 5 0
BBX 5 8 0 -2
BITMAP
5640
1500
4000
1500
0100
5500
0400
0400
ENDCHAR
STARTCHAR uni091A094D
ENCODING -1
SWIDTH 330 0
DWIDTH 3 0
BBX 4 5 0 1
BITMAP
55
00
64
10
15
ENDCHAR
STARTCHAR uni091B094D
ENCODING -1
SWIDTH 581 0
DWIDTH 5 0
BBX 5 6 0 0
BITMAP
6540
4140
4040
2040
4040
2540
ENDCHAR
STARTCHAR uni091C094D
ENCODING -1
SWIDTH 309 0
DWIDTH 3 0
BBX 4 6 0 0
BITMAP
55
00
25
04
04
50
ENDCHAR
STARTCHAR uni091D094D
ENCODING -1
SWIDTH 432 0
DWIDTH 4 0
BBX 5 7 0 -1
BITMAP
5A40
1800
4000
1A40
0100
5500
4000
ENDCHAR
STARTCHAR uni091E094D
ENCODING -1
SWIDTH 359 0
DWIDTH 3 0
BBX 4 5 0 1
BITMAP
55
50
04
09
54
ENDCHAR
STARTCHAR uni091F094D
ENCODING -1
SWIDTH 485 0
DWIDTH 4 0
BBX 5 8 0 -2
BITMAP
5640
0100
1500
4000
4100
2500
0400
0400
ENDCHAR
STARTCHAR uni0920094D
ENCODING -1
SWIDTH 512 0
DWIDTH 5 0
BBX 5 8 0 -2
BITMAP
5640
0100
1900
4100
4100
2500
0400
0400
ENDCHAR
STARTCHAR uni0921094D
ENCODING -1
SWIDTH 475 0
DWIDTH 4 0
BBX 4 8 0 -2
BITMAP
56
15
40
15
01
55
04
04
ENDCHAR
STARTCHAR uni0922094D
ENCODING -1
SWIDTH 485 0
DWIDTH 4 0
BBX 5 8 0 -2
BITMAP
5640
0100
1500
4500
4500
2500
0400
0400
ENDCHAR
STARTCHAR uni0923094D
ENCODING -1
SWIDTH 454 0
DWIDTH 4 0
BBX 4 5 0 1
BITMAP
A6
41
41
51
14
ENDCHAR
STARTCHAR uni0924094D
ENCODING -1
SWIDTH 263 0
DWIDTH 2 0
BBX 3 6 0 0
BITMAP
54
00
14
40
40
60
ENDCHAR
STARTCHAR uni0925094D
ENCODING -1
SWIDTH 359 0
DWIDTH 3 0
BBX 4 5 0 1
BITMAP
28
04
54
40
15
ENDCHAR
STARTCHAR uni0926094D
ENCODING -1
SWIDTH 489 0
DWIDTH 4 0
BBX 5 7 0 -1
BITMAP
5640
1500
4000
4100
1600
0100
0400
ENDCHAR
STARTCHAR uni0927094D
ENCODING -1
SWIDTH 321 0
DWIDTH 3 0
BBX 4 6 0 0
BITMAP
A1
40
24
40
40
15
ENDCHAR
STARTCHAR uni0928094D
ENCODING -1
SWIDTH 233 0
DWIDTH 2 0
BBX 3 4 0 2
BITMAP
54
00
54
40
ENDCHAR
STARTCHAR uni092A094D
ENCODING -1
SWIDTH 269 0
DWIDTH 2 0
BBX 4 5 0 1
BITMAP
A5
50
50
50
14
ENDCHAR
STARTCHAR uni092B094D
ENCODING -1
SWIDTH 530 0
DWIDTH 5 0
BBX 6 6 0 0
BITMAP
A650
5250
5100
5200
1500
0100
ENDCHAR
STARTCHAR uni092C094D
ENCODING -1
SWIDTH 265 0
DWIDTH 2 0
BBX 4 5 0 1
BITMAP
55
14
50
45
14
ENDCHAR
STARTCHAR uni092D094D
ENCODING -1
SWIDTH 261 0
DWIDTH 2 0
BBX 3 4 0 2
BITMAP
84
40
64
40
ENDCHAR
STARTCHAR uni092E094D
ENCODING -1
SWIDTH 261 0
DWIDTH 2 0
BBX 3 4 0 2
BITMAP
94
40
64
40
ENDCHAR
STARTCHAR uni092F094D
ENCODING -1
SWIDTH 323 0
DWIDTH 3 0
BBX 4 5 0 1
BITMAP
69
04
50
40
15
ENDCHAR
STARTCHAR uni0930094D
ENCODING -1
SWIDTH 337 0
DWIDTH 3 0
BBX 3 8 0 -2
BITMAP
58
04
14
50
10
14
10
14
ENDCHAR
STARTCHAR uni0932094D
ENCODING -1
SWIDTH 431 0
DWIDTH 4 0
BBX 5 6 0 0
BITMAP
5540
0000
1540
4500
4000
2400
ENDCHAR
STARTCHAR uni0933094D
ENCODING -1
SWIDTH 677 0
DWIDTH 6 0
BBX 6 6 0 0
BITMAP
5550
0000
1540
4510
4510
2A90
ENDCHAR
STARTCHAR uni0935094D
ENCODING -1
SWIDTH 255 0
DWIDTH 2 0
BBX 4 5 0 1
BITMAP
55
14
40
41
14
ENDCHAR
STARTCHAR uni0936094D
ENCODING -1
SWIDTH 378 0
DWIDTH 3 0
BBX 3 6 0 0
BITMAP
28
44
04
54
10
14
ENDCHAR
STARTCHAR uni0937094D
ENCODING -1
SWIDTH 282 0
DWIDTH 3 0
BBX 4 5 0 1
BITMAP
A5
60
54
51
14
ENDCHAR
STARTCHAR uni0938094D
ENCODING -1
SWIDTH 338 0
DWIDTH 3 0
BBX 4 6 0 0
BITMAP
65
10
10
65
50
10
ENDCHAR
STARTCHAR uni0939094D
ENCODING -1
SWIDTH 457 0
DWIDTH 4 0
BBX 5 7 0 -1
BITMAP
5600
1500
5000
2540
5000
4000
1500
ENDCHAR
STARTCHAR uni0915093C094D
ENCODING -1
SWIDTH 519 0
DWIDTH 5 0
BBX 6 7 0 -1
BITMAP
5650
1250
4100
4100
1500
0100
1000
ENDCHAR
STARTCHAR uni0916093C094D
ENCODING -1
SWIDTH 463 0
DWIDTH 4 0
BBX 5 7 0 -1
BITMAP
5940
0500
1500
5100
1140
1400
4000
ENDCHAR
STARTCHAR uni0917093C094D
ENCODING -1
SWIDTH 264 0
DWIDTH 2 0
BBX 3 6 0 0
BITMAP
64
10
10
50
00
10
ENDCHAR
STARTCHAR uni091C093C094D
ENCODING -1
SWIDTH 314 0
DWIDTH 3 0
BBX 4 6 0 0
BITMAP
55
00
25
04
04
50
ENDCHAR
STARTCHAR uni0928093C094D
ENCODING -1
SWIDTH 241 0
DWIDTH 2 0
BBX 3 6 0 0
BITMAP
54
00
54
40
00
10
ENDCHAR
STARTCHAR uni092B093C094D
ENCODING -1
SWIDTH 530 0
DWIDTH 5 0
BBX 6 7 0 -1
BITMAP
A650
5250
5100
5200
1500
0100
1000
ENDCHAR
STARTCHAR uni092F093C094D
ENCODING -1
SWIDTH 325 0
DWIDTH 3 0
BBX 4 7 0 -1
BITMAP
69
04
50
40
15
00
10
ENDCHAR
STARTCHAR uni09080902
ENCODING -1
SWIDTH 478 0
DWIDTH 4 0
BBX 4 8 0 0
BITMAP
05
05
56
15
40
15
41
55
ENDCHAR
STARTCHAR uni09300941
ENCODING -1
SWIDTH 533 0
DWIDTH 5 0
BBX 5 6 0 0
BITMAP
5940
0900
1540
5100
1100
1400
ENDCHAR
STARTCHAR uni09300942
ENCODING -1
SWIDTH 645 0
DWIDTH 6 0
BBX 6 6 0 0
BITMAP
5950
0540
1550
5140
1140
1400
ENDCHAR
STARTCHAR uni09390941
ENCODING -1
SWIDTH 495 0
DWIDTH 4 0
BBX 5 8 0 -2
BITMAP
5640
1500
5000
2500
4100
1500
4100
1500
ENDCHAR
STARTCHAR uni09390942
ENCODING -1
SWIDTH 492 0
DWIDTH 4 0
BBX 5 8 0 -2
BITMAP
5640
1500
5000
2500
5100
2400
1100
2100
ENDCHAR
STARTCHAR uni09260943
ENCODING -1
SWIDTH 390 0
DWIDTH 4 0
BBX 4 6 0 0
BITMAP
59
04
14
24
40
24
ENDCHAR
STARTCHAR uni09390943
ENCODING -1
SWIDTH 519 0
DWIDTH 5 0
BBX 5 8 0 -2
BITMAP
5640
1500
4000
2900
4400
4900
4000
1500
ENDCHAR
STARTCHAR uni094D0930
ENCODING -1
SWIDTH 0 0
DWIDTH 0 0
BBX 3 2 -4 -2
BITMAP
24
44
ENDCHAR
STARTCHAR uni0930094D.1
ENCODING -1
SWIDTH 192 0
DWIDTH 2 0
BBX 4 3 -1 3
BITMAP
14
00
55
ENDCHAR
STARTCHAR uni0930094D.2
ENCODING -1
SWIDTH 0 0
DWIDTH 0 0
BBX 2 2 -2 6
BITMAP
20
50
ENDCHAR
STARTCHAR uni0930094D0902
ENCODING -1
SWIDTH 0 0
DWIDTH 0 0
BBX 2 3 -2 5
BITMAP
20
50
50
ENDCHAR
STARTCHAR uni093E0930094D
ENCODING -1
SWIDTH 231 0
DWIDTH 2 0
BBX 2 8 0 0
BITMAP
20
50
A0
50
50
50
50
10
ENDCHAR
STARTCHAR uni093E0930094D0902
ENCODING -1
SWIDTH 231 0
DWIDTH 2 0
BBX 3 8 0 0
BITMAP
24
50
A0
50
50
50
50
10
ENDCHAR
STARTCHAR uni0930094D.aMatraI
ENCODING -1
SWIDTH 0 0
DWIDTH 0 0
BBX 2 2 -1 6
BITMAP
10
40
ENDCHAR
STARTCHAR uni0902.aMatraI
ENCODING -1
SWIDTH 0 0
DWIDTH 0 0
BBX 1 1 0 7
BITMAP
40
ENDCHAR
STARTCHAR uni0930094D0902.aMatraI
ENCODING -1
SWIDTH 0 0
DWIDTH 0 0
BBX 2 2 -1 6
BITMAP
10
50
ENDCHAR
STARTCHAR uni09400930094D
ENCODING -1
SWIDTH 231 0
DWIDTH 2 0
BBX 3 8 -1 0
BITMAP
A8
14
28
14
14
14
14
04
ENDCHAR
STARTCHAR uni09400902
ENCODING -1
SWIDTH 231 0
DWIDTH 2 0
BBX 3 8 -1 0
BITMAP
A4
14
28
14
14
14
14
04
ENDCHAR
STARTCHAR uni09400930094D0902
ENCODING -1
SWIDTH 231 0
DWIDTH 2 0
BBX 4 8 -1 0
BITMAP
A9
14
28
14
14
14
14
04
ENDCHAR
STARTCHAR uni0940.aLong
ENCODING -1
SWIDTH 231 0
DWIDTH 2 0
BBX 6 8 -4 0
BITMAP
5580
4050
00A0
0050
0050
0050
0050
0010
ENDCHAR
STARTCHAR uni09400930094D.aLong
ENCODING -1
SWIDTH 231 0
DWIDTH 2 0
BBX 6 8 -4 0
BITMAP
55A0
4050
00A0
0050
0050
0050
0050
0010
ENDCHAR
STARTCHAR uni09400902.aLong
ENCODING -1
SWIDTH 231 0
DWIDTH 2 0
BBX 7 8 -4 0
BITMAP
5594
0050
00A0
0050
0050
0050
0050
0010
ENDCHAR
STARTCHAR uni09400930094D0902.aLong
ENCODING -1
SWIDTH 231 0
DWIDTH 2 0
BBX 7 8 -4 0
BITMAP
55A4
0050
00A0
0050
0050
0050
0050
0010
ENDCHAR
STARTCHAR uni09470930094D
ENCODING -1
SWIDTH 0 0
DWIDTH 0 0
BBX 3 2 -3 6
BITMAP
54
14
ENDCHAR
STARTCHAR uni09470902
ENCODING -1
SWIDTH 0 0
DWIDTH 0 0
BBX 3 2 -3 6
BITMAP
44
10
ENDCHAR
STARTCHAR uni09470901
ENCODING -1
SWIDTH 0 0
DWIDTH 0 0
BBX 5 2 -3 6
BITMAP
4140
1540
ENDCHAR
STARTCHAR uni09470930094D0902
ENCODING -1
SWIDTH 0 0
DWIDTH 0 0
BBX 3 2 -3 6
BITMAP
68
24
ENDCHAR
STARTCHAR uni09480930094D
ENCODING -1
SWIDTH 0 0
DWIDTH 0 0
BBX 3 3 -3 5
BITMAP
54
24
10
ENDCHAR
STARTCHAR uni09480902
ENCODING -1
SWIDTH 0 0
DWIDTH 0 0
BBX 3 2 -3 6
BITMAP
50
24
ENDCHAR
STARTCHAR uni09480901
ENCODING -1
SWIDTH 0 0
DWIDTH 0 0
BBX 6 3 -3 5
BITMAP
5410
2540
1000
ENDCHAR
STARTCHAR uni09480930094D0902
ENCODING -1
SWIDTH 0 0
DWIDTH 0 0
BBX 3 3 -3 5
BITMAP
54
24
10
ENDCHAR
STARTCHAR uni094B0930094D
ENCODING -1
SWIDTH 231 0
DWIDTH 2 0
BBX 3 8 -1 0
BITMAP
58
14
28
14
14
14
14
04
ENDCHAR
STARTCHAR uni094B0902
ENCODING -1
SWIDTH 231 0
DWIDTH 2 0
BBX 3 8 -1 0
BITMAP
44
10
28
14
14
14
14
04
ENDCHAR
STARTCHAR uni094B0930094D0902
ENCODING -1
SWIDTH 231 0
DWIDTH 2 0
BBX 3 8 -1 0
BITMAP
48
14
28
14
14
14
14
04
ENDCHAR
STARTCHAR uni094C0930094D
ENCODING -1
SWIDTH 231 0
DWIDTH 2 0
BBX 3 8 -1 0
BITMAP
54
24
28
14
14
14
14
04
ENDCHAR
STARTCHAR uni094C0902
ENCODING -1
SWIDTH 231 0
DWIDTH 2 0
BBX 3 8 -1 0
BITMAP
54
14
28
14
14
14
14
04
ENDCHAR
STARTCHAR uni094C0930094D0902
ENCODING -1
SWIDTH 231 0
DWIDTH 2 0
BBX 4 8 -1 0
BITMAP
55
24
28
14
14
14
14
04
ENDCHAR
STARTCHAR uni0915094D0937
ENCODING -1
SWIDTH 656 0
DWIDTH 6 0
BBX 6 6 0 0
BITMAP
1550
1140
2A80
4040
1540
0140
ENDCHAR
STARTCHAR uni0915094D0937094D
ENCODING -1
SWIDTH 429 0
DWIDTH 4 0
BBX 5 6 0 0
BITMAP
1500
1100
2A40
4000
1500
0100
ENDCHAR
STARTCHAR uni0915094D0937094D092E
ENCODING -1
SWIDTH 933 0
DWIDTH 8 0
BBX 9 6 0 0
BITMAP
159640
114100
106600
404100
150100
010100
ENDCHAR
STARTCHAR uni0915094D0937094D092E094D
ENCODING -1
SWIDTH 717 0
DWIDTH 6 0
BBX 8 6 0 0
BITMAP
1595
1140
1065
4040
1500
0100
ENDCHAR
STARTCHAR uni0915094D0937094D092E094D092F
ENCODING -1
SWIDTH 1283 0
DWIDTH 12 0
BBX 12 6 0 0
BITMAP
159599
114044
106504
404108
150158
010004
ENDCHAR
STARTCHAR uni0915094D0937094D092F
ENCODING -1
SWIDTH 989 0
DWIDTH 9 0
BBX 9 6 0 0
BITMAP
156640
111500
2A9100
404100
151600
010100
ENDCHAR
STARTCHAR uni0915094D0937094D0935
ENCODING -1
SWIDTH 936 0
DWIDTH 8 0
BBX 9 6 0 0
BITMAP
155640
111500
2A8100
404100
151500
010100
ENDCHAR
STARTCHAR uni091C094D091E
ENCODING -1
SWIDTH 629 0
DWIDTH 6 0
BBX 6 6 0 0
BITMAP
5590
1580
5040
1540
4140
6540
ENDCHAR
STARTCHAR uni091C094D091E094D
ENCODING -1
SWIDTH 398 0
DWIDTH 4 0
BBX 5 7 0 -1
BITMAP
5540
0000
1540
1500
0100
5500
4000
ENDCHAR
STARTCHAR uni091C094D091E094D092F
ENCODING -1
SWIDTH 975 0
DWIDTH 9 0
BBX 9 6 0 0
BITMAP
556640
155100
509100
154200
411600
650100
ENDCHAR
STARTCHAR uni0915094D0928
ENCODING -1
SWIDTH 1003 0
DWIDTH 9 0
BBX 9 6 0 0
BITMAP
565680
125140
412640
411140
150140
010140
ENDCHAR
STARTCHAR uni0916094D0928
ENCODING -1
SWIDTH 958 0
DWIDTH 9 0
BBX 9 6 0 0
BITMAP
595640
054100
152600
511100
115100
140100
ENDCHAR
STARTCHAR uni0917094D0928
ENCODING -1
SWIDTH 736 0
DWIDTH 7 0
BBX 7 6 0 0
BITMAP
6564
1010
1160
5110
0010
0010
ENDCHAR
STARTCHAR uni0918094D0928
ENCODING -1
SWIDTH 814 0
DWIDTH 7 0
BBX 8 6 0 0
BITMAP
A559
4004
2554
4104
1604
0004
ENDCHAR
STARTCHAR uni091A094D0928
ENCODING -1
SWIDTH 829 0
DWIDTH 7 0
BBX 8 6 0 0
BITMAP
5559
0004
1058
1104
1504
0004
ENDCHAR
STARTCHAR uni091B094D0928
ENCODING -1
SWIDTH 977 0
DWIDTH 9 0
BBX 9 6 0 0
BITMAP
A55640
414100
205600
505100
404100
254100
ENDCHAR
STARTCHAR uni091C094D0928
ENCODING -1
SWIDTH 831 0
DWIDTH 7 0
BBX 8 6 0 0
BITMAP
5559
0004
2698
0504
0404
5404
ENDCHAR
STARTCHAR uni091D094D0928
ENCODING -1
SWIDTH 935 0
DWIDTH 8 0
BBX 9 6 0 0
BITMAP
5A5640
180100
401600
1A8100
410100
550100
ENDCHAR
STARTCHAR uni091F094D0928
ENCODING -1
SWIDTH 494 0
DWIDTH 4 0
BBX 5 8 0 -2
BITMAP
5640
1500
4000
4100
1600
1500
4100
0100
ENDCHAR
STARTCHAR uni0920094D0928
ENCODING -1
SWIDTH 516 0
DWIDTH 5 0
BBX 5 8 0 -2
BITMAP
5640
1500
4100
4100
1600
1500
4100
0100
ENDCHAR
STARTCHAR uni0921094D0928
ENCODING -1
SWIDTH 481 0
DWIDTH 4 0
BBX 5 8 0 -2
BITMAP
5640
1500
4000
1500
1500
0100
1500
0100
ENDCHAR
STARTCHAR uni0924094D0928
ENCODING -1
SWIDTH 756 0
DWIDTH 7 0
BBX 7 6 0 0
BITMAP
5564
0010
0260
4110
4010
6010
ENDCHAR
STARTCHAR uni0925094D0928
ENCODING -1
SWIDTH 855 0
DWIDTH 8 0
BBX 8 6 0 0
BITMAP
2959
0404
5458
4044
1544
0004
ENDCHAR
STARTCHAR uni0926094D0928
ENCODING -1
SWIDTH 955 0
DWIDTH 9 0
BBX 9 8 0 -2
BITMAP
565640
150100
401600
411100
160100
010100
010000
004000
ENDCHAR
STARTCHAR uni0927094D0928
ENCODING -1
SWIDTH 814 0
DWIDTH 7 0
BBX 8 6 0 0
BITMAP
A159
4004
2554
4104
1504
0004
ENDCHAR
STARTCHAR uni0928094D0928
ENCODING -1
SWIDTH 738 0
DWIDTH 7 0
BBX 7 6 0 0
BITMAP
5564
0010
5660
4110
0010
0010
ENDCHAR
STARTCHAR uni092A094D0928
ENCODING -1
SWIDTH 782 0
DWIDTH 7 0
BBX 7 6 0 0
BITMAP
A568
5014
5164
1514
0014
0014
ENDCHAR
STARTCHAR uni092B094D0928
ENCODING -1
SWIDTH 1013 0
DWIDTH 9 0
BBX 9 6 0 0
BITMAP
A65580
525040
512640
521040
151040
010040
ENDCHAR
STARTCHAR uni092C094D0928
ENCODING -1
SWIDTH 810 0
DWIDTH 7 0
BBX 7 6 0 0
BITMAP
5558
1404
5154
4504
1404
0004
ENDCHAR
STARTCHAR uni092D094D0928
ENCODING -1
SWIDTH 757 0
DWIDTH 7 0
BBX 7 6 0 0
BITMAP
8564
4010
6660
4110
0010
0010
ENDCHAR
STARTCHAR uni092E094D0928
ENCODING -1
SWIDTH 757 0
DWIDTH 7 0
BBX 7 6 0 0
BITMAP
9564
4010
6660
4110
0010
0010
ENDCHAR
STARTCHAR uni092F094D0928
ENCODING -1
SWIDTH 829 0
DWIDTH 7 0
BBX 8 6 0 0
BITMAP
6959
0404
5058
4104
1504
0004
ENDCHAR
STARTCHAR uni0935094D0928
ENCODING -1
SWIDTH 798 0
DWIDTH 7 0
BBX 7 6 0 0
BITMAP
5558
1404
4154
4104
1404
0004
ENDCHAR
STARTCHAR uni0936094D0928
ENCODING -1
SWIDTH 845 0
DWIDTH 8 0
BBX 8 6 0 0
BITMAP
2859
4404
0458
5544
1004
1404
ENDCHAR
STARTCHAR uni0938094D0928
ENCODING -1
SWIDTH 831 0
DWIDTH 7 0
BBX 8 6 0 0
BITMAP
6559
1004
1058
6604
5004
1004
ENDCHAR
STARTCHAR uni0939094D0928
ENCODING -1
SWIDTH 500 0
DWIDTH 5 0
BBX 5 8 0 -2
BITMAP
5640
0100
1500
2600
5500
4500
5000
1500
ENDCHAR
STARTCHAR uni0915094D0930
ENCODING -1
SWIDTH 725 0
DWIDTH 7 0
BBX 7 7 0 -1
BITMAP
5654
1250
4110
4110
1950
1500
1000
ENDCHAR
STARTCHAR uni0916094D0930
ENCODING -1
SWIDTH 698 0
DWIDTH 6 0
BBX 6 7 0 -1
BITMAP
5960
0510
1510
5110
1190
1550
0100
ENDCHAR
STARTCHAR uni0917094D0930
ENCODING -1
SWIDTH 494 0
DWIDTH 4 0
BBX 5 6 0 0
BITMAP
6640
1100
1100
5600
0500
1100
ENDCHAR
STARTCHAR uni0918094D0930
ENCODING -1
SWIDTH 559 0
DWIDTH 5 0
BBX 5 7 0 -1
BITMAP
A680
4140
2540
4140
1A40
0940
1000
ENDCHAR
STARTCHAR uni0919094D0930
ENCODING -1
SWIDTH 505 0
DWIDTH 5 0
BBX 5 8 0 -2
BITMAP
5640
1500
4000
1500
0100
5500
1800
1100
ENDCHAR
STARTCHAR uni091A094D0930
ENCODING -1
SWIDTH 563 0
DWIDTH 5 0
BBX 5 6 0 0
BITMAP
5680
0140
6540
1140
1A40
1540
ENDCHAR
STARTCHAR uni091B094D0930
ENCODING -1
SWIDTH 581 0
DWIDTH 5 0
BBX 5 8 0 -2
BITMAP
6580
4040
4140
2040
4040
2540
1500
1100
ENDCHAR
STARTCHAR uni091C094D0930
ENCODING -1
SWIDTH 547 0
DWIDTH 5 0
BBX 5 6 0 0
BITMAP
5640
0100
2A00
0500
5600
0500
ENDCHAR
STARTCHAR uni091D094D0930
ENCODING -1
SWIDTH 684 0
DWIDTH 6 0
BBX 6 7 0 -1
BITMAP
5A60
1810
4010
1A50
4150
5650
0100
ENDCHAR
STARTCHAR uni091E094D0930
ENCODING -1
SWIDTH 598 0
DWIDTH 5 0
BBX 6 6 0 0
BITMAP
5590
5040
0440
0980
5540
0440
ENDCHAR
STARTCHAR uni091F094D0930
ENCODING -1
SWIDTH 485 0
DWIDTH 4 0
BBX 5 7 0 -1
BITMAP
5640
0100
1500
4000
4100
2500
1500
ENDCHAR
STARTCHAR uni0920094D0930
ENCODING -1
SWIDTH 512 0
DWIDTH 5 0
BBX 5 8 0 -2
BITMAP
5640
0100
1900
4100
4100
2500
1500
1100
ENDCHAR
STARTCHAR uni0921094D0930
ENCODING -1
SWIDTH 475 0
DWIDTH 4 0
BBX 4 7 0 -1
BITMAP
56
15
40
15
41
15
15
ENDCHAR
STARTCHAR uni0922094D0930
ENCODING -1
SWIDTH 485 0
DWIDTH 4 0
BBX 5 8 0 -2
BITMAP
5640
0100
1500
4500
4500
2500
1500
1100
ENDCHAR
STARTCHAR uni0923094D0930
ENCODING -1
SWIDTH 681 0
DWIDTH 6 0
BBX 6 6 0 0
BITMAP
A660
4110
4110
5150
1590
0110
ENDCHAR
STARTCHAR uni0924094D0930
ENCODING -1
SWIDTH 493 0
DWIDTH 4 0
BBX 5 6 0 0
BITMAP
5640
0100
1600
4100
0600
1100
ENDCHAR
STARTCHAR uni0925094D0930
ENCODING -1
SWIDTH 593 0
DWIDTH 5 0
BBX 6 7 0 -1
BITMAP
2890
0440
5440
4040
1640
0840
1000
ENDCHAR
STARTCHAR uni0926094D0930
ENCODING -1
SWIDTH 489 0
DWIDTH 4 0
BBX 5 6 0 0
BITMAP
5640
1500
4000
4100
1A00
1500
ENDCHAR
STARTCHAR uni0927094D0930
ENCODING -1
SWIDTH 560 0
DWIDTH 5 0
BBX 5 6 0 0
BITMAP
A280
4140
2540
4140
1A40
0540
ENDCHAR
STARTCHAR uni0928094D0930
ENCODING -1
SWIDTH 473 0
DWIDTH 4 0
BBX 4 6 0 0
BITMAP
56
01
55
45
15
11
ENDCHAR
STARTCHAR uni092A094D0930
ENCODING -1
SWIDTH 503 0
DWIDTH 5 0
BBX 5 6 0 0
BITMAP
A640
5100
5100
1A00
0500
1100
ENDCHAR
STARTCHAR uni092B094D0930
ENCODING -1
SWIDTH 741 0
DWIDTH 7 0
BBX 7 6 0 0
BITMAP
A654
5250
5210
1A10
1550
1100
ENDCHAR
STARTCHAR uni092C094D0930
ENCODING -1
SWIDTH 491 0
DWIDTH 4 0
BBX 5 6 0 0
BITMAP
5640
1500
5100
4500
1900
1100
ENDCHAR
STARTCHAR uni092D094D0930
ENCODING -1
SWIDTH 491 0
DWIDTH 4 0
BBX 5 6 0 0
BITMAP
8640
4100
6600
4600
0500
1100
ENDCHAR
STARTCHAR uni092E094D0930
ENCODING -1
SWIDTH 490 0
DWIDTH 4 0
BBX 5 6 0 0
BITMAP
9640
4100
6600
4600
1500
1100
ENDCHAR
STARTCHAR uni092F094D0930
ENCODING -1
SWIDTH 564 0
DWIDTH 5 0
BBX 5 7 0 -1
BITMAP
6A80
0540
5140
4140
1A40
0940
1000
ENDCHAR
STARTCHAR uni0935094D0930
ENCODING -1
SWIDTH 484 0
DWIDTH 4 0
BBX 5 6 0 0
BITMAP
5640
1500
4100
4100
1900
1100
ENDCHAR
STARTCHAR uni0936094D0930
ENCODING -1
SWIDTH 558 0
DWIDTH 5 0
BBX 5 6 0 0
BITMAP
5580
4540
2540
6940
4640
1540
ENDCHAR
STARTCHAR uni0938094D0930
ENCODING -1
SWIDTH 604 0
DWIDTH 5 0
BBX 6 6 0 0
BITMAP
6590
1040
1040
6680
5140
1040
ENDCHAR
STARTCHAR uni0939094D0930
ENCODING -1
SWIDTH 505 0
DWIDTH 5 0
BBX 5 7 0 -1
BITMAP
5640
0100
1500
2600
4600
4500
1500
ENDCHAR
STARTCHAR uni0915093C094D0930
ENCODING -1
SWIDTH 725 0
DWIDTH 7 0
BBX 7 7 0 -1
BITMAP
5654
1250
4110
4110
1950
1100
0400
ENDCHAR
STARTCHAR uni0916093C094D0930
ENCODING -1
SWIDTH 698 0
DWIDTH 6 0
BBX 6 7 0 -1
BITMAP
5960
0510
1510
5110
1190
1510
0040
ENDCHAR
STARTCHAR uni0917093C094D0930
ENCODING -1
SWIDTH 494 0
DWIDTH 4 0
BBX 5 7 0 -1
BITMAP
6640
1100
1100
5600
0500
1100
0400
ENDCHAR
STARTCHAR uni091C093C094D0930
ENCODING -1
SWIDTH 547 0
DWIDTH 5 0
BBX 5 7 0 -1
BITMAP
5640
0100
2600
0500
0500
5600
4400
ENDCHAR
STARTCHAR uni0921093C094D0930
ENCODING -1
SWIDTH 475 0
DWIDTH 4 0
BBX 4 7 0 -1
BITMAP
56
15
40
15
41
15
55
ENDCHAR
STARTCHAR uni0922093C094D0930
ENCODING -1
SWIDTH 485 0
DWIDTH 4 0
BBX 5 8 0 -2
BITMAP
5640
0100
1500
4500
4500
2500
5900
1100
ENDCHAR
STARTCHAR uni0928093C094D0930
ENCODING -1
SWIDTH 473 0
DWIDTH 4 0
BBX 4 7 0 -1
BITMAP
56
01
55
45
15
11
10
ENDCHAR
STARTCHAR uni092B093C094D0930
ENCODING -1
SWIDTH 741 0
DWIDTH 7 0
BBX 7 6 0 0
BITMAP
A654
5250
5210
1A10
1550
1100
ENDCHAR
STARTCHAR uni092F093C094D0930
ENCODING -1
SWIDTH 564 0
DWIDTH 5 0
BBX 5 7 0 -1
BITMAP
6A80
0540
5140
4140
1A40
1540
0400
ENDCHAR
STARTCHAR uni0915094D0930094D
ENCODING -1
SWIDTH 518 0
DWIDTH 5 0
BBX 6 7 0 -1
BITMAP
5650
1250
4100
4100
1900
1500
1000
ENDCHAR
STARTCHAR uni0916094D0930094D
ENCODING -1
SWIDTH 469 0
DWIDTH 4 0
BBX 5 7 0 -1
BITMAP
5940
0500
1500
5100
1180
1540
0100
ENDCHAR
STARTCHAR uni0917094D0930094D
ENCODING -1
SWIDTH 264 0
DWIDTH 2 0
BBX 4 6 0 0
BITMAP
64
10
10
55
04
10
ENDCHAR
STARTCHAR uni0918094D0930094D
ENCODING -1
SWIDTH 319 0
DWIDTH 3 0
BBX 4 7 0 -1
BITMAP
A5
40
24
40
1A
08
10
ENDCHAR
STARTCHAR uni091A094D0930094D
ENCODING -1
SWIDTH 331 0
DWIDTH 3 0
BBX 4 7 0 -1
BITMAP
55
00
64
10
1A
08
10
ENDCHAR
STARTCHAR uni091C094D0930094D
ENCODING -1
SWIDTH 312 0
DWIDTH 3 0
BBX 4 7 0 -1
BITMAP
55
00
25
04
04
55
04
ENDCHAR
STARTCHAR uni091D094D0930094D
ENCODING -1
SWIDTH 441 0
DWIDTH 4 0
BBX 5 7 0 -1
BITMAP
5A40
1800
4000
1A80
0140
5540
4100
ENDCHAR
STARTCHAR uni091E094D0930094D
ENCODING -1
SWIDTH 374 0
DWIDTH 3 0
BBX 5 6 0 0
BITMAP
5500
5000
0400
0940
5540
0500
ENDCHAR
STARTCHAR uni091F094D0930094D
ENCODING -1
SWIDTH 485 0
DWIDTH 4 0
BBX 5 9 0 -3
BITMAP
5640
0100
1500
4000
4100
2500
1500
0400
0500
ENDCHAR
STARTCHAR uni0920094D0930094D
ENCODING -1
SWIDTH 512 0
DWIDTH 5 0
BBX 5 9 0 -3
BITMAP
5640
0100
1900
4100
4100
2500
1500
1500
0500
ENDCHAR
STARTCHAR uni0921094D0930094D
ENCODING -1
SWIDTH 475 0
DWIDTH 4 0
BBX 4 9 0 -3
BITMAP
56
15
40
15
01
55
14
15
04
ENDCHAR
STARTCHAR uni0922094D0930094D
ENCODING -1
SWIDTH 485 0
DWIDTH 4 0
BBX 5 9 0 -3
BITMAP
5640
0100
1500
4500
4500
2500
1500
1500
0500
ENDCHAR
STARTCHAR uni0923094D0930094D
ENCODING -1
SWIDTH 457 0
DWIDTH 4 0
BBX 5 6 0 0
BITMAP
A600
4100
4100
5140
1540
0100
ENDCHAR
STARTCHAR uni0924094D0930094D
ENCODING -1
SWIDTH 268 0
DWIDTH 2 0
BBX 4 6 0 0
BITMAP
55
00
14
41
04
10
ENDCHAR
STARTCHAR uni0925094D0930094D
ENCODING -1
SWIDTH 358 0
DWIDTH 3 0
BBX 4 7 0 -1
BITMAP
28
04
54
40
16
08
10
ENDCHAR
STARTCHAR uni0926094D0930094D
ENCODING -1
SWIDTH 489 0
DWIDTH 4 0
BBX 5 8 0 -2
BITMAP
5640
1500
4000
4100
1A00
1500
0400
0100
ENDCHAR
STARTCHAR uni0927094D0930094D
ENCODING -1
SWIDTH 322 0
DWIDTH 3 0
BBX 4 6 0 0
BITMAP
A1
40
24
40
19
04
ENDCHAR
STARTCHAR uni0928094D0930094D
ENCODING -1
SWIDTH 247 0
DWIDTH 2 0
BBX 4 6 0 0
BITMAP
54
00
55
45
14
10
ENDCHAR
STARTCHAR uni092A094D0930094D
ENCODING -1
SWIDTH 270 0
DWIDTH 2 0
BBX 4 6 0 0
BITMAP
A4
50
50
19
14
20
ENDCHAR
STARTCHAR uni092B094D0930094D
ENCODING -1
SWIDTH 523 0
DWIDTH 5 0
BBX 6 6 0 0
BITMAP
9650
4250
4200
1900
1500
1100
ENDCHAR
STARTCHAR uni092C094D0930094D
ENCODING -1
SWIDTH 267 0
DWIDTH 2 0
BBX 4 6 0 0
BITMAP
55
14
50
45
18
10
ENDCHAR
STARTCHAR uni092D094D0930094D
ENCODING -1
SWIDTH 257 0
DWIDTH 2 0
BBX 4 6 0 0
BITMAP
84
40
65
44
14
10
ENDCHAR
STARTCHAR uni092E094D0930094D
ENCODING -1
SWIDTH 261 0
DWIDTH 2 0
BBX 4 6 0 0
BITMAP
94
40
65
44
14
10
ENDCHAR
STARTCHAR uni092F094D0930094D
ENCODING -1
SWIDTH 323 0
DWIDTH 3 0
BBX 4 7 0 -1
BITMAP
69
04
50
40
1A
08
10
ENDCHAR
STARTCHAR uni0935094D0930094D
ENCODING -1
SWIDTH 255 0
DWIDTH 2 0
BBX 3 6 0 0
BITMAP
54
14
40
40
18
10
ENDCHAR
STARTCHAR uni0938094D0930094D
ENCODING -1
SWIDTH 347 0
DWIDTH 3 0
BBX 4 6 0 0
BITMAP
65
10
10
66
51
14
ENDCHAR
STARTCHAR uni0915093C094D0930094D
ENCODING -1
SWIDTH 518 0
DWIDTH 5 0
BBX 6 7 0 -1
BITMAP
5650
1250
4100
4100
1900
1100
0400
ENDCHAR
STARTCHAR uni0916093C094D0930094D
ENCODING -1
SWIDTH 466 0
DWIDTH 4 0
BBX 5 7 0 -1
BITMAP
5940
0500
1500
5100
1180
1500
0040
ENDCHAR
STARTCHAR uni0917093C094D0930094D
ENCODING -1
SWIDTH 264 0
DWIDTH 2 0
BBX 4 7 0 -1
BITMAP
64
10
10
55
04
10
04
ENDCHAR
STARTCHAR uni091C093C094D0930094D
ENCODING -1
SWIDTH 320 0
DWIDTH 3 0
BBX 4 7 0 -1
BITMAP
55
00
25
04
05
58
40
ENDCHAR
STARTCHAR uni0928093C094D0930094D
ENCODING -1
SWIDTH 247 0
DWIDTH 2 0
BBX 4 7 0 -1
BITMAP
54
00
55
45
14
10
10
ENDCHAR
STARTCHAR uni092B093C094D0930094D
ENCODING -1
SWIDTH 523 0
DWIDTH 5 0
BBX 6 7 0 -1
BITMAP
9650
4250
4200
1900
1500
1100
1000
ENDCHAR
STARTCHAR uni092F093C094D0930094D
ENCODING -1
SWIDTH 323 0
DWIDTH 3 0
BBX 4 7 0 -1
BITMAP
69
04
50
40
1A
14
04
ENDCHAR
STARTCHAR uni0915094D0915
ENCODING -1
SWIDTH 1255 0
DWIDTH 11 0
BBX 11 6 0 0
BITMAP
565694
125594
411144
411144
151654
010040
ENDCHAR
STARTCHAR uni0915094D0916
ENCODING -1
SWIDTH 1256 0
DWIDTH 11 0
BBX 11 6 0 0
BITMAP
565658
125144
411144
412444
150404
010504
ENDCHAR
STARTCHAR uni0915094D091A
ENCODING -1
SWIDTH 1086 0
DWIDTH 10 0
BBX 10 6 0 0
BITMAP
565590
124040
412940
411080
150580
010040
ENDCHAR
STARTCHAR uni0915094D091C
ENCODING -1
SWIDTH 1071 0
DWIDTH 10 0
BBX 10 6 0 0
BITMAP
565590
110040
425980
410540
150540
011440
ENDCHAR
STARTCHAR uni0915094D091F
ENCODING -1
SWIDTH 984 0
DWIDTH 9 0
BBX 9 6 0 0
BITMAP
565640
125500
411000
411040
151040
011600
ENDCHAR
STARTCHAR uni0915094D0923
ENCODING -1
SWIDTH 1183 0
DWIDTH 11 0
BBX 11 6 0 0
BITMAP
566664
126110
411110
411110
150010
010010
ENDCHAR
STARTCHAR uni0915094D0924
ENCODING -1
SWIDTH 761 0
DWIDTH 7 0
BBX 7 6 0 0
BITMAP
5654
0100
6650
1114
1114
1550
ENDCHAR
STARTCHAR uni0915094D0925
ENCODING -1
SWIDTH 1118 0
DWIDTH 10 0
BBX 10 6 0 0
BITMAP
565560
111150
426550
421050
151590
010050
ENDCHAR
STARTCHAR uni0915094D0926
ENCODING -1
SWIDTH 1009 0
DWIDTH 9 0
BBX 9 6 0 0
BITMAP
565680
125540
411000
411040
151540
010040
ENDCHAR
STARTCHAR uni0915094D092A
ENCODING -1
SWIDTH 1007 0
DWIDTH 9 0
BBX 9 6 0 0
BITMAP
566680
126140
411140
411140
150140
010140
ENDCHAR
STARTCHAR uni0915094D092B
ENCODING -1
SWIDTH 1242 0
DWIDTH 11 0
BBX 11 6 0 0
BITMAP
566654
126194
411144
411104
150154
010100
ENDCHAR
STARTCHAR uni0915094D092E
ENCODING -1
SWIDTH 994 0
DWIDTH 9 0
BBX 9 6 0 0
BITMAP
566640
126100
412600
411100
150100
010100
ENDCHAR
STARTCHAR uni0915094D092F
ENCODING -1
SWIDTH 1076 0
DWIDTH 10 0
BBX 10 6 0 0
BITMAP
565990
110440
426440
411040
151580
010040
ENDCHAR
STARTCHAR uni0915094D0932
ENCODING -1
SWIDTH 1178 0
DWIDTH 11 0
BBX 11 6 0 0
BITMAP
565564
125560
411110
411110
151010
011410
ENDCHAR
STARTCHAR uni0915094D0935
ENCODING -1
SWIDTH 1013 0
DWIDTH 9 0
BBX 9 6 0 0
BITMAP
565580
125540
411040
411140
151640
010040
ENDCHAR
STARTCHAR uni0915094D0936
ENCODING -1
SWIDTH 1194 0
DWIDTH 11 0
BBX 11 6 0 0
BITMAP
564A14
125150
411150
411510
150410
010110
ENDCHAR
STARTCHAR uni0915094D0938
ENCODING -1
SWIDTH 1143 0
DWIDTH 10 0
BBX 10 6 0 0
BITMAP
565A60
125510
411510
411950
150410
010410
ENDCHAR
STARTCHAR uni0916094D0916
ENCODING -1
SWIDTH 1223 0
DWIDTH 11 0
BBX 11 6 0 0
BITMAP
595968
050454
150514
512514
115464
140410
ENDCHAR
STARTCHAR uni0916094D0924
ENCODING -1
SWIDTH 984 0
DWIDTH 9 0
BBX 9 6 0 0
BITMAP
595640
050100
151600
511100
115100
142500
ENDCHAR
STARTCHAR uni0916094D092E
ENCODING -1
SWIDTH 965 0
DWIDTH 9 0
BBX 9 6 0 0
BITMAP
596640
051100
152600
511100
114100
140100
ENDCHAR
STARTCHAR uni0916094D092F
ENCODING -1
SWIDTH 1047 0
DWIDTH 9 0
BBX 10 6 0 0
BITMAP
595990
050440
152440
511040
115540
140040
ENDCHAR
STARTCHAR uni0916094D0935
ENCODING -1
SWIDTH 975 0
DWIDTH 9 0
BBX 9 6 0 0
BITMAP
595640
051500
151100
511100
115600
140100
ENDCHAR
STARTCHAR uni0916094D0936
ENCODING -1
SWIDTH 1123 0
DWIDTH 10 0
BBX 10 6 0 0
BITMAP
595520
051110
150110
516410
115010
140410
ENDCHAR
STARTCHAR uni0917094D0917
ENCODING -1
SWIDTH 744 0
DWIDTH 7 0
BBX 7 6 0 0
BITMAP
6664
1110
1110
5510
0010
0010
ENDCHAR
STARTCHAR uni0917094D0918
ENCODING -1
SWIDTH 823 0
DWIDTH 7 0
BBX 8 6 0 0
BITMAP
6659
1104
1244
5104
0108
0154
ENDCHAR
STARTCHAR uni0917094D091C
ENCODING -1
SWIDTH 801 0
DWIDTH 7 0
BBX 7 6 0 0
BITMAP
6558
1004
1194
5044
0044
0544
ENDCHAR
STARTCHAR uni0917094D0923
ENCODING -1
SWIDTH 945 0
DWIDTH 9 0
BBX 9 6 0 0
BITMAP
666640
111100
111100
511100
015100
000100
ENDCHAR
STARTCHAR uni0917094D0926
ENCODING -1
SWIDTH 748 0
DWIDTH 7 0
BBX 7 6 0 0
BITMAP
6564
1160
1100
5110
0160
0010
ENDCHAR
STARTCHAR uni0917094D0927
ENCODING -1
SWIDTH 823 0
DWIDTH 7 0
BBX 8 6 0 0
BITMAP
6659
1104
1244
5104
0108
0154
ENDCHAR
STARTCHAR uni0917094D092C
ENCODING -1
SWIDTH 755 0
DWIDTH 7 0
BBX 7 6 0 0
BITMAP
6564
1150
1250
5160
0160
0010
ENDCHAR
STARTCHAR uni0917094D092D
ENCODING -1
SWIDTH 755 0
DWIDTH 7 0
BBX 7 6 0 0
BITMAP
6524
1110
1260
5110
0010
0010
ENDCHAR
STARTCHAR uni0917094D092E
ENCODING -1
SWIDTH 754 0
DWIDTH 7 0
BBX 7 6 0 0
BITMAP
6664
1110
1260
5110
0010
0010
ENDCHAR
STARTCHAR uni0917094D092F
ENCODING -1
SWIDTH 828 0
DWIDTH 7 0
BBX 8 6 0 0
BITMAP
6599
1044
1244
5104
0154
0004
ENDCHAR
STARTCHAR uni0917094D0932
ENCODING -1
SWIDTH 924 0
DWIDTH 8 0
BBX 8 6 0 0
BITMAP
6556
1155
1111
5111
0101
0241
ENDCHAR
STARTCHAR uni0917094D0935
ENCODING -1
SWIDTH 747 0
DWIDTH 7 0
BBX 7 6 0 0
BITMAP
6564
1150
1110
5110
0160
0010
ENDCHAR
STARTCHAR uni0917094D0938
ENCODING -1
SWIDTH 839 0
DWIDTH 8 0
BBX 8 6 0 0
BITMAP
6599
1044
1044
5104
0104
0044
ENDCHAR
STARTCHAR uni0918094D092E
ENCODING -1
SWIDTH 818 0
DWIDTH 7 0
BBX 8 6 0 0
BITMAP
A659
4104
2554
4104
4104
1504
ENDCHAR
STARTCHAR uni0918094D092F
ENCODING -1
SWIDTH 867 0
DWIDTH 8 0
BBX 8 6 0 0
BITMAP
A599
4044
2544
4104
4298
1504
ENDCHAR
STARTCHAR uni091A094D091A
ENCODING -1
SWIDTH 868 0
DWIDTH 8 0
BBX 8 6 0 0
BITMAP
5559
0004
6594
1148
1558
0004
ENDCHAR
STARTCHAR uni091A094D091B
ENCODING -1
SWIDTH 922 0
DWIDTH 8 0
BBX 8 6 0 0
BITMAP
5596
0141
6545
1081
1141
1595
ENDCHAR
STARTCHAR uni091A094D092E
ENCODING -1
SWIDTH 830 0
DWIDTH 7 0
BBX 8 6 0 0
BITMAP
5699
6544
1198
1104
1504
0004
ENDCHAR
STARTCHAR uni091A094D092F
ENCODING -1
SWIDTH 904 0
DWIDTH 8 0
BBX 8 6 0 0
BITMAP
55A6
0011
6581
1145
1555
0001
ENDCHAR
STARTCHAR uni091B094D092F
ENCODING -1
SWIDTH 1068 0
DWIDTH 10 0
BBX 10 6 0 0
BITMAP
A55590
419440
204440
505440
405580
254040
ENDCHAR
STARTCHAR uni091B094D0935
ENCODING -1
SWIDTH 581 0
DWIDTH 5 0
BBX 5 7 0 -1
BITMAP
A580
5140
2040
5040
2640
1140
1500
ENDCHAR
STARTCHAR uni091C094D0915
ENCODING -1
SWIDTH 1054 0
DWIDTH 9 0
BBX 10 6 0 0
BITMAP
555950
004940
260440
050440
045540
500400
ENDCHAR
STARTCHAR uni091C094D091C
ENCODING -1
SWIDTH 903 0
DWIDTH 8 0
BBX 8 6 0 0
BITMAP
5556
0001
2969
0411
0411
5151
ENDCHAR
STARTCHAR uni091C094D091D
ENCODING -1
SWIDTH 990 0
DWIDTH 9 0
BBX 9 6 0 0
BITMAP
556640
006100
260100
046600
050500
516500
ENDCHAR
STARTCHAR uni091C094D091F
ENCODING -1
SWIDTH 815 0
DWIDTH 7 0
BBX 8 6 0 0
BITMAP
5559
0004
6554
0500
0504
6094
ENDCHAR
STARTCHAR uni091C094D0921
ENCODING -1
SWIDTH 797 0
DWIDTH 7 0
BBX 7 6 0 0
BITMAP
5558
0054
6600
0554
0404
5154
ENDCHAR
STARTCHAR uni091C094D0924
ENCODING -1
SWIDTH 830 0
DWIDTH 7 0
BBX 8 6 0 0
BITMAP
5559
0004
6A98
0504
0504
5184
ENDCHAR
STARTCHAR uni091C094D0926
ENCODING -1
SWIDTH 817 0
DWIDTH 7 0
BBX 8 6 0 0
BITMAP
5559
0054
2600
0504
0458
5004
ENDCHAR
STARTCHAR uni091C094D092C
ENCODING -1
SWIDTH 820 0
DWIDTH 7 0
BBX 8 6 0 0
BITMAP
5559
0054
2644
0514
0454
5004
ENDCHAR
STARTCHAR uni091C094D092E
ENCODING -1
SWIDTH 813 0
DWIDTH 7 0
BBX 7 6 0 0
BITMAP
5658
0104
0554
0504
0404
5004
ENDCHAR
STARTCHAR uni091C094D092F
ENCODING -1
SWIDTH 893 0
DWIDTH 8 0
BBX 8 6 0 0
BITMAP
55AA
0015
2645
0505
0459
6005
ENDCHAR
STARTCHAR uni091C094D0935
ENCODING -1
SWIDTH 813 0
DWIDTH 7 0
BBX 7 6 0 0
BITMAP
5558
0044
2604
0504
0454
5004
ENDCHAR
STARTCHAR uni091D094D092E
ENCODING -1
SWIDTH 936 0
DWIDTH 8 0
BBX 9 6 0 0
BITMAP
5AA640
184100
406600
1A8100
410100
550100
ENDCHAR
STARTCHAR uni091D094D092F
ENCODING -1
SWIDTH 1000 0
DWIDTH 9 0
BBX 9 6 0 0
BITMAP
5A6A80
180540
405140
1A8140
411640
550140
ENDCHAR
STARTCHAR uni091E094D091B
ENCODING -1
SWIDTH 913 0
DWIDTH 8 0
BBX 8 6 0 0
BITMAP
5696
5101
0505
0A81
0501
5095
ENDCHAR
STARTCHAR uni091E094D091C
ENCODING -1
SWIDTH 932 0
DWIDTH 8 0
BBX 9 6 0 0
BITMAP
555640
000100
146500
091100
541100
005100
ENDCHAR
STARTCHAR uni091E094D0936
ENCODING -1
SWIDTH 975 0
DWIDTH 9 0
BBX 9 6 0 0
BITMAP
54A140
505500
041500
0A9100
544100
001100
ENDCHAR
STARTCHAR uni091F094D091F
ENCODING -1
SWIDTH 494 0
DWIDTH 4 0
BBX 5 9 0 -3
BITMAP
5640
1500
4000
4100
1500
1500
5000
4100
1500
ENDCHAR
STARTCHAR uni091F094D0920
ENCODING -1
SWIDTH 495 0
DWIDTH 4 0
BBX 5 9 0 -3
BITMAP
5640
1500
4000
4100
1600
1500
5100
4100
1500
ENDCHAR
STARTCHAR uni091F094D092F
ENCODING -1
SWIDTH 990 0
DWIDTH 9 0
BBX 9 6 0 0
BITMAP
565640
165100
400500
416100
415100
252600
ENDCHAR
STARTCHAR uni091F094D0935
ENCODING -1
SWIDTH 501 0
DWIDTH 5 0
BBX 5 7 0 -1
BITMAP
5640
1500
4000
4100
2600
5100
1500
ENDCHAR
STARTCHAR uni0920094D092F
ENCODING -1
SWIDTH 998 0
DWIDTH 9 0
BBX 9 6 0 0
BITMAP
565680
155500
420500
412500
411100
251600
ENDCHAR
STARTCHAR uni0921094D0921
ENCODING -1
SWIDTH 493 0
DWIDTH 4 0
BBX 5 9 0 -3
BITMAP
5640
1500
4000
1500
4100
6500
1500
4100
1500
ENDCHAR
STARTCHAR uni0921094D0922
ENCODING -1
SWIDTH 493 0
DWIDTH 4 0
BBX 5 8 0 -2
BITMAP
5640
1500
4000
1500
2500
4500
4500
1600
ENDCHAR
STARTCHAR uni0921094D092F
ENCODING -1
SWIDTH 973 0
DWIDTH 9 0
BBX 9 6 0 0
BITMAP
565640
165100
401500
156100
014200
551600
ENDCHAR
STARTCHAR uni0921094D0935
ENCODING -1
SWIDTH 493 0
DWIDTH 4 0
BBX 5 8 0 -2
BITMAP
5640
1500
4000
1500
4100
2600
5100
1500
ENDCHAR
STARTCHAR uni0922094D092F
ENCODING -1
SWIDTH 981 0
DWIDTH 9 0
BBX 9 6 0 0
BITMAP
565640
165100
400500
455100
454100
252600
ENDCHAR
STARTCHAR uni0923094D091F
ENCODING -1
SWIDTH 908 0
DWIDTH 8 0
BBX 8 6 0 0
BITMAP
A65A
4105
4114
5140
1441
0055
ENDCHAR
STARTCHAR uni0923094D0920
ENCODING -1
SWIDTH 936 0
DWIDTH 8 0
BBX 9 6 0 0
BITMAP
A65640
410100
411900
514100
144100
005500
ENDCHAR
STARTCHAR uni0923094D0921
ENCODING -1
SWIDTH 892 0
DWIDTH 8 0
BBX 8 6 0 0
BITMAP
A65A
4158
4140
5154
1401
0055
ENDCHAR
STARTCHAR uni0923094D0922
ENCODING -1
SWIDTH 908 0
DWIDTH 8 0
BBX 8 6 0 0
BITMAP
A65A
4101
4115
5145
1445
0055
ENDCHAR
STARTCHAR uni0923094D0923
ENCODING -1
SWIDTH 1127 0
DWIDTH 10 0
BBX 10 6 0 0
BITMAP
A6A660
415110
415110
515110
141410
000010
ENDCHAR
STARTCHAR uni0923094D092E
ENCODING -1
SWIDTH 932 0
DWIDTH 8 0
BBX 9 6 0 0
BITMAP
A69640
414100
416500
514100
284100
000100
ENDCHAR
STARTCHAR uni0923094D092F
ENCODING -1
SWIDTH 998 0
DWIDTH 9 0
BBX 9 6 0 0
BITMAP
A66680
411500
415100
114100
001600
000100
ENDCHAR
STARTCHAR uni0923094D0935
ENCODING -1
SWIDTH 923 0
DWIDTH 8 0
BBX 8 6 0 0
BITMAP
A656
4111
4141
1141
0015
0001
ENDCHAR
STARTCHAR uni0924094D0915
ENCODING -1
SWIDTH 992 0
DWIDTH 9 0
BBX 9 6 0 0
BITMAP
556540
015500
151040
411040
416500
601000
ENDCHAR
STARTCHAR uni0924094D0916
ENCODING -1
SWIDTH 1014 0
DWIDTH 9 0
BBX 9 6 0 0
BITMAP
55A580
005540
155440
425540
414540
604040
ENDCHAR
STARTCHAR uni0924094D0924
ENCODING -1
SWIDTH 542 0
DWIDTH 5 0
BBX 5 6 0 0
BITMAP
5640
0100
6600
1100
1100
2500
ENDCHAR
STARTCHAR uni0924094D0925
ENCODING -1
SWIDTH 869 0
DWIDTH 8 0
BBX 8 6 0 0
BITMAP
5555
0114
1644
4108
4158
6004
ENDCHAR
STARTCHAR uni0924094D092A
ENCODING -1
SWIDTH 757 0
DWIDTH 7 0
BBX 7 6 0 0
BITMAP
5664
0110
1510
4120
4160
6010
ENDCHAR
STARTCHAR uni0924094D092B
ENCODING -1
SWIDTH 992 0
DWIDTH 9 0
BBX 9 6 0 0
BITMAP
566540
011500
151040
412040
402500
601000
ENDCHAR
STARTCHAR uni0924094D092E
ENCODING -1
SWIDTH 764 0
DWIDTH 7 0
BBX 7 6 0 0
BITMAP
5664
0110
0260
4110
4010
6010
ENDCHAR
STARTCHAR uni0924094D092F
ENCODING -1
SWIDTH 830 0
DWIDTH 7 0
BBX 8 6 0 0
BITMAP
5599
0044
1644
4108
4158
6004
ENDCHAR
STARTCHAR uni0924094D0932
ENCODING -1
SWIDTH 957 0
DWIDTH 9 0
BBX 9 6 0 0
BITMAP
555640
155600
422100
411100
410100
114100
ENDCHAR
STARTCHAR uni0924094D0935
ENCODING -1
SWIDTH 751 0
DWIDTH 7 0
BBX 7 6 0 0
BITMAP
5564
0150
1510
4110
4160
6010
ENDCHAR
STARTCHAR uni0924094D0938
ENCODING -1
SWIDTH 876 0
DWIDTH 8 0
BBX 8 6 0 0
BITMAP
5599
0044
1444
4298
4104
6044
ENDCHAR
STARTCHAR uni0925094D092F
ENCODING -1
SWIDTH 931 0
DWIDTH 8 0
BBX 9 6 0 0
BITMAP
286640
041100
549100
404100
155500
000100
ENDCHAR
STARTCHAR uni0925094D0935
ENCODING -1
SWIDTH 862 0
DWIDTH 8 0
BBX 8 6 0 0
BITMAP
2859
0454
5444
4044
1558
0004
ENDCHAR
STARTCHAR uni0926094D0917
ENCODING -1
SWIDTH 489 0
DWIDTH 4 0
BBX 5 7 0 -1
BITMAP
5640
1500
4000
4100
2600
1100
5000
ENDCHAR
STARTCHAR uni0926094D0918
ENCODING -1
SWIDTH 686 0
DWIDTH 6 0
BBX 6 7 0 -1
BITMAP
5560
0150
5800
4410
4650
4110
1400
ENDCHAR
STARTCHAR uni0926094D0926
ENCODING -1
SWIDTH 506 0
DWIDTH 5 0
BBX 5 7 0 -1
BITMAP
5640
1500
5000
2400
4000
2600
0100
ENDCHAR
STARTCHAR uni0926094D0927
ENCODING -1
SWIDTH 686 0
DWIDTH 6 0
BBX 6 7 0 -1
BITMAP
5560
0550
5400
4410
4250
4110
1400
ENDCHAR
STARTCHAR uni0926094D092C
ENCODING -1
SWIDTH 481 0
DWIDTH 4 0
BBX 5 7 0 -1
BITMAP
5640
1500
4000
4100
2600
5500
1500
ENDCHAR
STARTCHAR uni0926094D092D
ENCODING -1
SWIDTH 499 0
DWIDTH 4 0
BBX 5 7 0 -1
BITMAP
5640
1500
5000
5100
5100
1100
2600
ENDCHAR
STARTCHAR uni0926094D092E
ENCODING -1
SWIDTH 706 0
DWIDTH 6 0
BBX 7 6 0 0
BITMAP
5664
1510
4010
1510
0250
0110
ENDCHAR
STARTCHAR uni0926094D092F
ENCODING -1
SWIDTH 583 0
DWIDTH 5 0
BBX 5 6 0 0
BITMAP
5980
1440
5040
2040
4040
2640
ENDCHAR
STARTCHAR uni0926094D0935
ENCODING -1
SWIDTH 483 0
DWIDTH 4 0
BBX 5 7 0 -1
BITMAP
5640
1500
4000
4100
2600
5100
1500
ENDCHAR
STARTCHAR uni0927094D092E
ENCODING -1
SWIDTH 817 0
DWIDTH 7 0
BBX 8 6 0 0
BITMAP
A259
4104
1154
4104
4104
1504
ENDCHAR
STARTCHAR uni0927094D092F
ENCODING -1
SWIDTH 886 0
DWIDTH 8 0
BBX 8 6 0 0
BITMAP
A19A
4054
2544
4104
4158
1504
ENDCHAR
STARTCHAR uni0927094D0935
ENCODING -1
SWIDTH 810 0
DWIDTH 7 0
BBX 7 6 0 0
BITMAP
A158
4044
2504
4104
4294
1504
ENDCHAR
STARTCHAR uni0928094D0915
ENCODING -1
SWIDTH 973 0
DWIDTH 9 0
BBX 9 6 0 0
BITMAP
556540
016500
591140
451140
016500
001000
ENDCHAR
STARTCHAR uni0928094D091A
ENCODING -1
SWIDTH 820 0
DWIDTH 7 0
BBX 8 6 0 0
BITMAP
5559
0284
0104
5504
0154
0004
ENDCHAR
STARTCHAR uni0928094D091B
ENCODING -1
SWIDTH 781 0
DWIDTH 7 0
BBX 7 6 0 0
BITMAP
5964
0410
0420
5A04
4404
0560
ENDCHAR
STARTCHAR uni0928094D091F
ENCODING -1
SWIDTH 715 0
DWIDTH 6 0
BBX 7 6 0 0
BITMAP
5564
0010
5900
4400
0410
0250
ENDCHAR
STARTCHAR uni0928094D0921
ENCODING -1
SWIDTH 705 0
DWIDTH 6 0
BBX 7 6 0 0
BITMAP
5564
0150
5900
4150
0010
0250
ENDCHAR
STARTCHAR uni0928094D0924
ENCODING -1
SWIDTH 717 0
DWIDTH 6 0
BBX 7 6 0 0
BITMAP
5564
0010
5A60
4410
0410
0610
ENDCHAR
STARTCHAR uni0928094D0925
ENCODING -1
SWIDTH 804 0
DWIDTH 7 0
BBX 7 6 0 0
BITMAP
5248
0044
5944
4404
0154
0004
ENDCHAR
STARTCHAR uni0928094D0926
ENCODING -1
SWIDTH 724 0
DWIDTH 7 0
BBX 7 6 0 0
BITMAP
5564
0150
5900
4510
0160
0010
ENDCHAR
STARTCHAR uni0928094D0927
ENCODING -1
SWIDTH 753 0
DWIDTH 7 0
BBX 7 6 0 0
BITMAP
5924
0410
5A10
4410
0420
0160
ENDCHAR
STARTCHAR uni0928094D092A
ENCODING -1
SWIDTH 742 0
DWIDTH 7 0
BBX 7 6 0 0
BITMAP
5664
0110
5510
4120
4160
0010
ENDCHAR
STARTCHAR uni0928094D092B
ENCODING -1
SWIDTH 970 0
DWIDTH 9 0
BBX 9 6 0 0
BITMAP
5A6540
052500
591100
412100
001500
001000
ENDCHAR
STARTCHAR uni0928094D092D
ENCODING -1
SWIDTH 739 0
DWIDTH 7 0
BBX 7 6 0 0
BITMAP
5564
0110
5660
4110
0010
0010
ENDCHAR
STARTCHAR uni0928094D092E
ENCODING -1
SWIDTH 735 0
DWIDTH 7 0
BBX 7 6 0 0
BITMAP
5664
0110
5660
4110
0010
0010
ENDCHAR
STARTCHAR uni0928094D092F
ENCODING -1
SWIDTH 801 0
DWIDTH 7 0
BBX 7 6 0 0
BITMAP
5698
0044
5604
4504
0154
0004
ENDCHAR
STARTCHAR uni0928094D0935
ENCODING -1
SWIDTH 732 0
DWIDTH 7 0
BBX 7 6 0 0
BITMAP
5564
0150
5910
4510
0160
0010
ENDCHAR
STARTCHAR uni0928094D0938
ENCODING -1
SWIDTH 867 0
DWIDTH 8 0
BBX 8 6 0 0
BITMAP
5599
0044
5444
4298
0104
0044
ENDCHAR
STARTCHAR uni0928094D0939
ENCODING -1
SWIDTH 714 0
DWIDTH 6 0
BBX 7 7 0 -1
BITMAP
5564
0150
5500
4250
0510
0500
0150
ENDCHAR
STARTCHAR uni092A094D091F
ENCODING -1
SWIDTH 489 0
DWIDTH 4 0
BBX 5 6 0 0
BITMAP
9640
5100
2500
4000
4100
1500
ENDCHAR
STARTCHAR uni092A094D0920
ENCODING -1
SWIDTH 506 0
DWIDTH 5 0
BBX 5 6 0 0
BITMAP
9640
5100
2600
4100
4100
1500
ENDCHAR
STARTCHAR uni092A094D0924
ENCODING -1
SWIDTH 495 0
DWIDTH 4 0
BBX 5 6 0 0
BITMAP
9640
4100
2600
4100
4100
1100
ENDCHAR
STARTCHAR uni092A094D092A
ENCODING -1
SWIDTH 770 0
DWIDTH 7 0
BBX 7 6 0 0
BITMAP
A664
5110
5110
5110
1560
0010
ENDCHAR
STARTCHAR uni092A094D092B
ENCODING -1
SWIDTH 1003 0
DWIDTH 9 0
BBX 9 6 0 0
BITMAP
A66540
511500
511040
112040
012100
001000
ENDCHAR
STARTCHAR uni092A094D092E
ENCODING -1
SWIDTH 774 0
DWIDTH 7 0
BBX 7 6 0 0
BITMAP
A664
5110
5260
1610
0010
0010
ENDCHAR
STARTCHAR uni092A094D092F
ENCODING -1
SWIDTH 855 0
DWIDTH 8 0
BBX 8 6 0 0
BITMAP
A599
5044
5144
1104
0158
0004
ENDCHAR
STARTCHAR uni092A094D0932
ENCODING -1
SWIDTH 960 0
DWIDTH 9 0
BBX 9 6 0 0
BITMAP
A55640
515600
512100
511100
161100
014100
ENDCHAR
STARTCHAR uni092A094D0935
ENCODING -1
SWIDTH 780 0
DWIDTH 7 0
BBX 7 6 0 0
BITMAP
A568
5154
5114
1214
0164
0014
ENDCHAR
STARTCHAR uni092A094D0938
ENCODING -1
SWIDTH 880 0
DWIDTH 8 0
BBX 8 6 0 0
BITMAP
A599
5044
5044
5298
1604
0044
ENDCHAR
STARTCHAR uni092B094D091C
ENCODING -1
SWIDTH 1100 0
DWIDTH 10 0
BBX 10 6 0 0
BITMAP
A65590
510040
524980
520140
150140
011440
ENDCHAR
STARTCHAR uni092B094D091F
ENCODING -1
SWIDTH 1006 0
DWIDTH 9 0
BBX 9 6 0 0
BITMAP
A65640
525600
521000
251040
011040
011540
ENDCHAR
STARTCHAR uni092B094D0924
ENCODING -1
SWIDTH 1034 0
DWIDTH 9 0
BBX 9 6 0 0
BITMAP
A65580
525040
511540
521040
151040
011440
ENDCHAR
STARTCHAR uni092B094D092A
ENCODING -1
SWIDTH 1021 0
DWIDTH 9 0
BBX 9 6 0 0
BITMAP
A66580
526040
511040
521040
150540
010040
ENDCHAR
STARTCHAR uni092B094D092B
ENCODING -1
SWIDTH 1256 0
DWIDTH 11 0
BBX 11 6 0 0
BITMAP
A66694
526194
511144
121144
010154
010040
ENDCHAR
STARTCHAR uni092B094D092F
ENCODING -1
SWIDTH 1120 0
DWIDTH 10 0
BBX 10 6 0 0
BITMAP
A65990
510440
526440
121080
010580
010040
ENDCHAR
STARTCHAR uni092B094D0932
ENCODING -1
SWIDTH 1202 0
DWIDTH 11 0
BBX 11 6 0 0
BITMAP
A65564
525560
511210
521110
151110
011410
ENDCHAR
STARTCHAR uni092B094D0936
ENCODING -1
SWIDTH 1211 0
DWIDTH 11 0
BBX 11 6 0 0
BITMAP
A65A54
525450
511050
522510
150410
010510
ENDCHAR
STARTCHAR uni092C094D091C
ENCODING -1
SWIDTH 883 0
DWIDTH 8 0
BBX 8 6 0 0
BITMAP
5559
2404
50A8
5014
4414
1644
ENDCHAR
STARTCHAR uni092C094D091D
ENCODING -1
SWIDTH 962 0
DWIDTH 9 0
BBX 9 7 0 -1
BITMAP
556640
155100
510100
466600
151100
016100
010000
ENDCHAR
STARTCHAR uni092C094D0924
ENCODING -1
SWIDTH 786 0
DWIDTH 7 0
BBX 7 6 0 0
BITMAP
5568
2414
5164
4614
1514
0154
ENDCHAR
STARTCHAR uni092C094D0926
ENCODING -1
SWIDTH 775 0
DWIDTH 7 0
BBX 7 6 0 0
BITMAP
5568
1560
5100
4600
1554
0004
ENDCHAR
STARTCHAR uni092C094D0927
ENCODING -1
SWIDTH 844 0
DWIDTH 8 0
BBX 8 6 0 0
BITMAP
5659
1504
5144
4604
1508
0054
ENDCHAR
STARTCHAR uni092C094D092C
ENCODING -1
SWIDTH 783 0
DWIDTH 7 0
BBX 7 6 0 0
BITMAP
5568
1554
5254
4624
1564
0014
ENDCHAR
STARTCHAR uni092C094D092D
ENCODING -1
SWIDTH 764 0
DWIDTH 7 0
BBX 7 6 0 0
BITMAP
5524
1510
5260
4510
1410
0010
ENDCHAR
STARTCHAR uni092C094D092F
ENCODING -1
SWIDTH 852 0
DWIDTH 8 0
BBX 8 6 0 0
BITMAP
5599
1444
5144
4608
1558
0004
ENDCHAR
STARTCHAR uni092C094D0932
ENCODING -1
SWIDTH 961 0
DWIDTH 9 0
BBX 9 6 0 0
BITMAP
555640
115600
551100
461100
150100
014100
ENDCHAR
STARTCHAR uni092C094D0935
ENCODING -1
SWIDTH 776 0
DWIDTH 7 0
BBX 7 6 0 0
BITMAP
5568
1554
5114
4614
1564
0010
ENDCHAR
STARTCHAR uni092C094D0936
ENCODING -1
SWIDTH 926 0
DWIDTH 8 0
BBX 9 6 0 0
BITMAP
555240
151100
501100
465100
154100
004100
ENDCHAR
STARTCHAR uni092C094D0938
ENCODING -1
SWIDTH 897 0
DWIDTH 8 0
BBX 8 6 0 0
BITMAP
559A
1445
5045
4699
1545
0041
ENDCHAR
STARTCHAR uni092D094D092F
ENCODING -1
SWIDTH 827 0
DWIDTH 7 0
BBX 8 6 0 0
BITMAP
8599
4044
6504
4104
0154
0004
ENDCHAR
STARTCHAR uni092D094D0932
ENCODING -1
SWIDTH 941 0
DWIDTH 8 0
BBX 9 6 0 0
BITMAP
855640
415600
652100
411100
010100
014100
ENDCHAR
STARTCHAR uni092D094D0935
ENCODING -1
SWIDTH 755 0
DWIDTH 7 0
BBX 7 6 0 0
BITMAP
8564
4150
6510
4110
0160
0010
ENDCHAR
STARTCHAR uni092E094D0924
ENCODING -1
SWIDTH 765 0
DWIDTH 7 0
BBX 7 6 0 0
BITMAP
9564
4010
6510
4110
0110
0150
ENDCHAR
STARTCHAR uni092E094D0926
ENCODING -1
SWIDTH 766 0
DWIDTH 7 0
BBX 7 6 0 0
BITMAP
9564
4160
6600
4100
0164
0014
ENDCHAR
STARTCHAR uni092E094D092A
ENCODING -1
SWIDTH 762 0
DWIDTH 7 0
BBX 7 6 0 0
BITMAP
9664
4110
6510
4110
4160
0010
ENDCHAR
STARTCHAR uni092E094D092C
ENCODING -1
SWIDTH 768 0
DWIDTH 7 0
BBX 7 6 0 0
BITMAP
9564
4150
6650
4120
0160
0010
ENDCHAR
STARTCHAR uni092E094D092D
ENCODING -1
SWIDTH 768 0
DWIDTH 7 0
BBX 7 6 0 0
BITMAP
9524
4110
6660
4110
0010
0010
ENDCHAR
STARTCHAR uni092E094D092E
ENCODING -1
SWIDTH 759 0
DWIDTH 7 0
BBX 7 6 0 0
BITMAP
9664
4110
6660
4110
0010
0010
ENDCHAR
STARTCHAR uni092E094D092F
ENCODING -1
SWIDTH 834 0
DWIDTH 8 0
BBX 8 6 0 0
BITMAP
9599
4044
6504
4104
0154
0004
ENDCHAR
STARTCHAR uni092E094D0932
ENCODING -1
SWIDTH 945 0
DWIDTH 9 0
BBX 9 6 0 0
BITMAP
955640
415600
652100
411100
010100
014100
ENDCHAR
STARTCHAR uni092E094D0935
ENCODING -1
SWIDTH 761 0
DWIDTH 7 0
BBX 7 6 0 0
BITMAP
9564
4150
6610
4110
0160
0010
ENDCHAR
STARTCHAR uni092E094D0936
ENCODING -1
SWIDTH 884 0
DWIDTH 8 0
BBX 8 6 0 0
BITMAP
9155
4114
4014
6644
4104
0044
ENDCHAR
STARTCHAR uni092E094D0938
ENCODING -1
SWIDTH 816 0
DWIDTH 7 0
BBX 8 6 0 0
BITMAP
9699
4044
4144
6A54
4104
0144
ENDCHAR
STARTCHAR uni092E094D0939
ENCODING -1
SWIDTH 758 0
DWIDTH 7 0
BBX 7 7 0 -1
BITMAP
9564
4160
6600
4150
0110
0100
0150
ENDCHAR
STARTCHAR uni092F094D092F
ENCODING -1
SWIDTH 897 0
DWIDTH 8 0
BBX 8 6 0 0
BITMAP
69AA
0415
5145
4105
1559
0005
ENDCHAR
STARTCHAR uni0930094D092F
ENCODING -1
SWIDTH 713 0
DWIDTH 6 0
BBX 7 6 0 0
BITMAP
5664
0110
5910
0410
0550
0010
ENDCHAR
STARTCHAR uni0930094D0939
ENCODING -1
SWIDTH 619 0
DWIDTH 6 0
BBX 6 7 0 -1
BITMAP
5590
0540
5400
0940
0440
0400
0540
ENDCHAR
STARTCHAR uni0932094D0915
ENCODING -1
SWIDTH 1182 0
DWIDTH 11 0
BBX 11 6 0 0
BITMAP
555654
155650
454110
404110
401550
240100
ENDCHAR
STARTCHAR uni0932094D0916
ENCODING -1
SWIDTH 1195 0
DWIDTH 11 0
BBX 11 6 0 0
BITMAP
555964
154550
454510
446510
401160
240410
ENDCHAR
STARTCHAR uni0932094D0917
ENCODING -1
SWIDTH 950 0
DWIDTH 9 0
BBX 9 6 0 0
BITMAP
556640
151100
451100
445100
400100
240100
ENDCHAR
STARTCHAR uni0932094D091C
ENCODING -1
SWIDTH 1035 0
DWIDTH 9 0
BBX 10 6 0 0
BITMAP
555590
151940
450440
440440
400440
245440
ENDCHAR
STARTCHAR uni0932094D091F
ENCODING -1
SWIDTH 929 0
DWIDTH 8 0
BBX 9 6 0 0
BITMAP
555640
000100
155500
454000
404100
242500
ENDCHAR
STARTCHAR uni0932094D0920
ENCODING -1
SWIDTH 953 0
DWIDTH 9 0
BBX 9 6 0 0
BITMAP
555640
000100
155900
454100
404100
246500
ENDCHAR
STARTCHAR uni0932094D0921
ENCODING -1
SWIDTH 916 0
DWIDTH 8 0
BBX 8 6 0 0
BITMAP
5556
1555
4540
4415
4001
2455
ENDCHAR
STARTCHAR uni0932094D0922
ENCODING -1
SWIDTH 924 0
DWIDTH 8 0
BBX 9 6 0 0
BITMAP
555640
000100
155500
454500
404500
246500
ENDCHAR
STARTCHAR uni0932094D0924
ENCODING -1
SWIDTH 929 0
DWIDTH 8 0
BBX 9 6 0 0
BITMAP
555640
154100
456500
444100
404100
245100
ENDCHAR
STARTCHAR uni0932094D0925
ENCODING -1
SWIDTH 1061 0
DWIDTH 10 0
BBX 10 6 0 0
BITMAP
552890
154440
455440
445080
401580
240040
ENDCHAR
STARTCHAR uni0932094D0926
ENCODING -1
SWIDTH 939 0
DWIDTH 8 0
BBX 9 6 0 0
BITMAP
555640
156500
455000
444100
401600
240100
ENDCHAR
STARTCHAR uni0932094D092A
ENCODING -1
SWIDTH 939 0
DWIDTH 8 0
BBX 9 6 0 0
BITMAP
559640
158100
454100
444200
401500
240100
ENDCHAR
STARTCHAR uni0932094D092B
ENCODING -1
SWIDTH 1176 0
DWIDTH 11 0
BBX 11 6 0 0
BITMAP
559654
158250
454110
440110
400150
240100
ENDCHAR
STARTCHAR uni0932094D092C
ENCODING -1
SWIDTH 949 0
DWIDTH 9 0
BBX 9 6 0 0
BITMAP
555640
155100
455500
405600
401600
240100
ENDCHAR
STARTCHAR uni0932094D092D
ENCODING -1
SWIDTH 931 0
DWIDTH 8 0
BBX 9 6 0 0
BITMAP
558640
158100
455500
444100
400100
240100
ENDCHAR
STARTCHAR uni0932094D092E
ENCODING -1
SWIDTH 931 0
DWIDTH 8 0
BBX 9 6 0 0
BITMAP
559640
158100
455500
444100
400100
240100
ENDCHAR
STARTCHAR uni0932094D092F
ENCODING -1
SWIDTH 1033 0
DWIDTH 9 0
BBX 9 6 0 0
BITMAP
555980
154440
456440
401040
401540
240040
ENDCHAR
STARTCHAR uni0932094D0932
ENCODING -1
SWIDTH 1112 0
DWIDTH 10 0
BBX 10 6 0 0
BITMAP
5555A0
155590
454450
444450
404050
241050
ENDCHAR
STARTCHAR uni0932094D0935
ENCODING -1
SWIDTH 940 0
DWIDTH 8 0
BBX 9 6 0 0
BITMAP
555640
156500
455100
405100
401500
240100
ENDCHAR
STARTCHAR uni0932094D0938
ENCODING -1
SWIDTH 1068 0
DWIDTH 10 0
BBX 10 6 0 0
BITMAP
555990
154440
454440
446980
401040
240440
ENDCHAR
STARTCHAR uni0932094D0939
ENCODING -1
SWIDTH 922 0
DWIDTH 8 0
BBX 8 7 0 -1
BITMAP
5556
0001
1555
4525
4041
2440
0015
ENDCHAR
STARTCHAR uni0933094D092F
ENCODING -1
SWIDTH 1050 0
DWIDTH 9 0
BBX 10 6 0 0
BITMAP
555990
154440
452440
451040
452540
154040
ENDCHAR
STARTCHAR uni0935094D092F
ENCODING -1
SWIDTH 852 0
DWIDTH 8 0
BBX 8 6 0 0
BITMAP
5599
1444
4144
4208
1558
0004
ENDCHAR
STARTCHAR uni0935094D0932
ENCODING -1
SWIDTH 961 0
DWIDTH 9 0
BBX 9 6 0 0
BITMAP
555640
155600
411100
421100
150100
014100
ENDCHAR
STARTCHAR uni0935094D0935
ENCODING -1
SWIDTH 776 0
DWIDTH 7 0
BBX 7 6 0 0
BITMAP
5568
1554
4114
4214
1564
0010
ENDCHAR
STARTCHAR uni0935094D0939
ENCODING -1
SWIDTH 754 0
DWIDTH 7 0
BBX 7 7 0 -1
BITMAP
5564
1550
4100
4250
1610
0100
0150
ENDCHAR
STARTCHAR uni0936094D0915
ENCODING -1
SWIDTH 1093 0
DWIDTH 10 0
BBX 10 6 0 0
BITMAP
285950
445540
044450
544450
105940
140400
ENDCHAR
STARTCHAR uni0936094D091A
ENCODING -1
SWIDTH 950 0
DWIDTH 9 0
BBX 9 6 0 0
BITMAP
285640
440100
04A100
544200
105600
140100
ENDCHAR
STARTCHAR uni0936094D091B
ENCODING -1
SWIDTH 968 0
DWIDTH 9 0
BBX 9 6 0 0
BITMAP
249640
444100
049100
544100
104100
145600
ENDCHAR
STARTCHAR uni0936094D091F
ENCODING -1
SWIDTH 854 0
DWIDTH 8 0
BBX 8 6 0 0
BITMAP
5859
0454
0440
5440
1045
1458
ENDCHAR
STARTCHAR uni0936094D0924
ENCODING -1
SWIDTH 864 0
DWIDTH 8 0
BBX 8 6 0 0
BITMAP
2859
4404
0458
5444
1044
1494
ENDCHAR
STARTCHAR uni0936094D092E
ENCODING -1
SWIDTH 885 0
DWIDTH 8 0
BBX 8 6 0 0
BITMAP
6899
0444
0498
5444
1044
1404
ENDCHAR
STARTCHAR uni0936094D092F
ENCODING -1
SWIDTH 940 0
DWIDTH 8 0
BBX 9 6 0 0
BITMAP
286640
441100
049100
544200
105600
140100
ENDCHAR
STARTCHAR uni0936094D0932
ENCODING -1
SWIDTH 1039 0
DWIDTH 9 0
BBX 10 6 0 0
BITMAP
585590
045540
044440
544440
104040
145040
ENDCHAR
STARTCHAR uni0936094D0935
ENCODING -1
SWIDTH 850 0
DWIDTH 8 0
BBX 8 6 0 0
BITMAP
2859
4454
0444
5444
1058
1404
ENDCHAR
STARTCHAR uni0936094D0936
ENCODING -1
SWIDTH 1009 0
DWIDTH 9 0
BBX 9 6 0 0
BITMAP
285480
444540
040540
549140
104140
141040
ENDCHAR
STARTCHAR uni0937094D0915
ENCODING -1
SWIDTH 1039 0
DWIDTH 9 0
BBX 10 6 0 0
BITMAP
A55950
505940
550440
121440
015540
000400
ENDCHAR
STARTCHAR uni0937094D091F
ENCODING -1
SWIDTH 493 0
DWIDTH 4 0
BBX 5 6 0 0
BITMAP
A640
5500
2500
4000
4100
1500
ENDCHAR
STARTCHAR uni0937094D0920
ENCODING -1
SWIDTH 511 0
DWIDTH 5 0
BBX 5 6 0 0
BITMAP
BF40
7F00
3E00
5200
4100
2500
ENDCHAR
STARTCHAR uni0937094D0923
ENCODING -1
SWIDTH 980 0
DWIDTH 9 0
BBX 9 6 0 0
BITMAP
A66640
611100
551100
521100
155100
000100
ENDCHAR
STARTCHAR uni0937094D092A
ENCODING -1
SWIDTH 980 0
DWIDTH 9 0
BBX 9 6 0 0
BITMAP
A66640
611100
551100
521100
155100
000100
ENDCHAR
STARTCHAR uni0937094D092B
ENCODING -1
SWIDTH 1036 0
DWIDTH 9 0
BBX 10 6 0 0
BITMAP
A66950
510940
550440
121440
001540
000400
ENDCHAR
STARTCHAR uni0937094D092E
ENCODING -1
SWIDTH 791 0
DWIDTH 7 0
BBX 7 6 0 0
BITMAP
A658
5504
5664
5204
1904
0004
ENDCHAR
STARTCHAR uni0937094D092F
ENCODING -1
SWIDTH 877 0
DWIDTH 8 0
BBX 8 6 0 0
BITMAP
A599
5054
5544
1204
0158
0004
ENDCHAR
STARTCHAR uni0937094D0935
ENCODING -1
SWIDTH 802 0
DWIDTH 7 0
BBX 7 6 0 0
BITMAP
A558
5044
5504
1204
0154
0004
ENDCHAR
STARTCHAR uni0937094D0937
ENCODING -1
SWIDTH 804 0
DWIDTH 7 0
BBX 7 6 0 0
BITMAP
A658
6144
5514
5214
1554
0004
ENDCHAR
STARTCHAR uni0938094D0915
ENCODING -1
SWIDTH 1089 0
DWIDTH 10 0
BBX 10 6 0 0
BITMAP
655950
105940
104450
664450
505940
100400
ENDCHAR
STARTCHAR uni0938094D0916
ENCODING -1
SWIDTH 990 0
DWIDTH 9 0
BBX 9 6 0 0
BITMAP
659640
104500
105100
665100
510600
104100
ENDCHAR
STARTCHAR uni0938094D091C
ENCODING -1
SWIDTH 970 0
DWIDTH 9 0
BBX 9 6 0 0
BITMAP
655640
100100
106600
651500
501500
106100
ENDCHAR
STARTCHAR uni0938094D091F
ENCODING -1
SWIDTH 844 0
DWIDTH 8 0
BBX 8 6 0 0
BITMAP
6559
1054
1040
6640
5044
1098
ENDCHAR
STARTCHAR uni0938094D0924
ENCODING -1
SWIDTH 852 0
DWIDTH 8 0
BBX 8 6 0 0
BITMAP
6559
1004
1058
6644
5144
1084
ENDCHAR
STARTCHAR uni0938094D0925
ENCODING -1
SWIDTH 960 0
DWIDTH 9 0
BBX 9 6 0 0
BITMAP
645240
105500
659100
504200
105600
100100
ENDCHAR
STARTCHAR uni0938094D0926
ENCODING -1
SWIDTH 851 0
DWIDTH 8 0
BBX 8 6 0 0
BITMAP
6559
1054
1040
5544
1058
1004
ENDCHAR
STARTCHAR uni0938094D092A
ENCODING -1
SWIDTH 857 0
DWIDTH 8 0
BBX 8 6 0 0
BITMAP
6599
1044
1044
6548
5058
1004
ENDCHAR
STARTCHAR uni0938094D092B
ENCODING -1
SWIDTH 1092 0
DWIDTH 10 0
BBX 10 6 0 0
BITMAP
659950
104940
104450
654850
500940
100400
ENDCHAR
STARTCHAR uni0938094D092C
ENCODING -1
SWIDTH 857 0
DWIDTH 8 0
BBX 8 6 0 0
BITMAP
6559
1054
1084
6658
5058
1004
ENDCHAR
STARTCHAR uni0938094D092E
ENCODING -1
SWIDTH 850 0
DWIDTH 8 0
BBX 8 6 0 0
BITMAP
6599
1044
1044
6598
5044
1004
ENDCHAR
STARTCHAR uni0938094D092F
ENCODING -1
SWIDTH 920 0
DWIDTH 8 0
BBX 8 6 0 0
BITMAP
6566
1011
1091
6641
5055
1001
ENDCHAR
STARTCHAR uni0938094D0932
ENCODING -1
SWIDTH 1027 0
DWIDTH 9 0
BBX 9 6 0 0
BITMAP
655580
105540
105440
664440
514040
109040
ENDCHAR
STARTCHAR uni0938094D0935
ENCODING -1
SWIDTH 842 0
DWIDTH 8 0
BBX 8 6 0 0
BITMAP
6559
1054
1044
6644
5058
1004
ENDCHAR
STARTCHAR uni0938094D0938
ENCODING -1
SWIDTH 871 0
DWIDTH 8 0
BBX 8 6 0 0
BITMAP
6599
1044
1044
6698
5104
1044
ENDCHAR
STARTCHAR uni0939094D0923
ENCODING -1
SWIDTH 1136 0
DWIDTH 10 0
BBX 10 8 0 -2
BITMAP
56A660
155110
501110
111410
410010
150010
040000
050000
ENDCHAR
STARTCHAR uni0939094D092E
ENCODING -1
SWIDTH 746 0
DWIDTH 7 0
BBX 7 7 0 -1
BITMAP
5664
1510
4010
2510
4260
4110
1510
ENDCHAR
STARTCHAR uni0939094D092F
ENCODING -1
SWIDTH 785 0
DWIDTH 7 0
BBX 7 7 0 -1
BITMAP
5668
1514
4014
2554
4054
4254
1554
ENDCHAR
STARTCHAR uni0939094D0932
ENCODING -1
SWIDTH 1110 0
DWIDTH 10 0
BBX 10 8 0 -2
BITMAP
5655A0
151590
504450
254450
414050
151040
040000
050000
ENDCHAR
STARTCHAR uni0939094D0935
ENCODING -1
SWIDTH 920 0
DWIDTH 8 0
BBX 8 8 0 -2
BITMAP
5656
1511
5041
2541
4115
1501
0400
0500
ENDCHAR
STARTCHAR uni0915093C094D0915093C
ENCODING -1
SWIDTH 1275 0
DWIDTH 11 0
BBX 12 7 0 -1
BITMAP
565595
125494
411044
411044
150554
010040
100400
ENDCHAR
STARTCHAR uni0915093C094D0924
ENCODING -1
SWIDTH 1016 0
DWIDTH 9 0
BBX 9 7 0 -1
BITMAP
565580
125040
411640
411040
151040
011440
100000
ENDCHAR
STARTCHAR uni0915093C094D092B
ENCODING -1
SWIDTH 1246 0
DWIDTH 11 0
BBX 11 7 0 -1
BITMAP
566694
126194
411144
411104
150154
010100
100000
ENDCHAR
STARTCHAR uni0915093C094D092B093C
ENCODING -1
SWIDTH 1247 0
DWIDTH 11 0
BBX 11 7 0 -1
BITMAP
566694
126194
411144
411144
150154
010100
100000
ENDCHAR
STARTCHAR uni0915093C094D092C
ENCODING -1
SWIDTH 1043 0
DWIDTH 9 0
BBX 10 7 0 -1
BITMAP
565590
125540
411440
411140
250940
010040
100000
ENDCHAR
STARTCHAR uni0915093C094D092E
ENCODING -1
SWIDTH 998 0
DWIDTH 9 0
BBX 9 7 0 -1
BITMAP
566680
126100
412600
411100
150100
010100
100000
ENDCHAR
STARTCHAR uni0916093C094D0924
ENCODING -1
SWIDTH 984 0
DWIDTH 9 0
BBX 9 7 0 -1
BITMAP
595640
050100
151600
511100
115100
142500
004000
ENDCHAR
STARTCHAR uni0916093C094D092E
ENCODING -1
SWIDTH 965 0
DWIDTH 9 0
BBX 9 7 0 -1
BITMAP
596640
051100
152600
511100
114100
140100
004000
ENDCHAR
STARTCHAR uni0916093C094D092F
ENCODING -1
SWIDTH 1045 0
DWIDTH 9 0
BBX 10 6 0 0
BITMAP
595990
050440
152440
511080
115540
140040
ENDCHAR
STARTCHAR uni0916093C094D0935
ENCODING -1
SWIDTH 972 0
DWIDTH 9 0
BBX 9 6 0 0
BITMAP
595640
051500
151100
511100
101600
140100
ENDCHAR
STARTCHAR uni0916093C094D0936
ENCODING -1
SWIDTH 1123 0
DWIDTH 10 0
BBX 10 6 0 0
BITMAP
595520
051110
150110
516410
115010
140410
ENDCHAR
STARTCHAR uni0916093C094D0938
ENCODING -1
SWIDTH 1066 0
DWIDTH 10 0
BBX 10 6 0 0
BITMAP
595990
050440
150440
512980
115040
140440
ENDCHAR
STARTCHAR uni091C093C094D091C093C
ENCODING -1
SWIDTH 934 0
DWIDTH 8 0
BBX 8 7 0 -1
BITMAP
5556
0001
2969
0411
0411
5151
0040
ENDCHAR
STARTCHAR uni091C093C094D092F
ENCODING -1
SWIDTH 893 0
DWIDTH 8 0
BBX 8 6 0 0
BITMAP
55AA
0015
2645
0505
0459
6005
ENDCHAR
STARTCHAR uni092B093C094D091C093C
ENCODING -1
SWIDTH 1100 0
DWIDTH 10 0
BBX 10 7 0 -1
BITMAP
A65590
510040
524980
520140
150140
011440
100400
ENDCHAR
STARTCHAR uni092B093C094D0924
ENCODING -1
SWIDTH 1036 0
DWIDTH 9 0
BBX 10 7 0 -1
BITMAP
A65590
525040
511540
521040
151040
011440
100000
ENDCHAR
STARTCHAR uni092B093C094D092B093C
ENCODING -1
SWIDTH 1256 0
DWIDTH 11 0
BBX 11 7 0 -1
BITMAP
A66694
526194
511144
121144
010154
010040
100400
ENDCHAR
STARTCHAR uni092B093C094D0938
ENCODING -1
SWIDTH 1141 0
DWIDTH 10 0
BBX 10 7 0 -1
BITMAP
A65A60
525510
511410
522950
150410
010410
100000
ENDCHAR
STARTCHAR uni092C094D091C093C
ENCODING -1
SWIDTH 883 0
DWIDTH 8 0
BBX 8 6 0 0
BITMAP
5559
2404
50A8
5014
4414
1644
ENDCHAR
STARTCHAR uni0932094D091C093C
ENCODING -1
SWIDTH 1062 0
DWIDTH 10 0
BBX 10 7 0 -1
BITMAP
555590
151940
450440
440440
400440
245440
001000
ENDCHAR
STARTCHAR uni0936094D0915093C
ENCODING -1
SWIDTH 1093 0
DWIDTH 10 0
BBX 10 7 0 -1
BITMAP
285950
445540
044450
544450
105940
140400
004000
ENDCHAR
STARTCHAR uni0924094D0924094D
ENCODING -1
SWIDTH 309 0
DWIDTH 3 0
BBX 4 6 0 0
BITMAP
55
00
65
10
10
24
ENDCHAR
STARTCHAR uni0928094D092D094D
ENCODING -1
SWIDTH 505 0
DWIDTH 5 0
BBX 6 4 0 2
BITMAP
5550
0100
5650
4100
ENDCHAR
STARTCHAR uni0928094D0938094D
ENCODING -1
SWIDTH 635 0
DWIDTH 6 0
BBX 7 6 0 0
BITMAP
5594
0040
5440
4294
0100
0040
ENDCHAR
STARTCHAR uni092E094D092D094D
ENCODING -1
SWIDTH 533 0
DWIDTH 5 0
BBX 6 4 0 2
BITMAP
9510
4100
6650
4100
ENDCHAR
STARTCHAR uni0932094D092D094D
ENCODING -1
SWIDTH 694 0
DWIDTH 6 0
BBX 7 6 0 0
BITMAP
5584
0040
1580
4554
4040
2400
ENDCHAR
STARTCHAR uni0938094D0924094D0930094D
ENCODING -1
SWIDTH 575 0
DWIDTH 5 0
BBX 7 6 0 0
BITMAP
6550
1000
1150
6504
5010
1140
ENDCHAR
STARTCHAR uni0915094D0924094D092F
ENCODING -1
SWIDTH 1356 0
DWIDTH 12 0
BBX 12 6 0 0
BITMAP
5655A6
125011
411681
411141
151055
011401
ENDCHAR
STARTCHAR uni0915094D0924094D0930
ENCODING -1
SWIDTH 997 0
DWIDTH 9 0
BBX 9 6 0 0
BITMAP
565640
125100
412600
411100
150500
011500
ENDCHAR
STARTCHAR uni0915094D0924094D0935
ENCODING -1
SWIDTH 1242 0
DWIDTH 11 0
BBX 11 6 0 0
BITMAP
565558
125054
412604
411104
151154
012404
ENDCHAR
STARTCHAR uni0915094D092A094D0930
ENCODING -1
SWIDTH 1007 0
DWIDTH 9 0
BBX 9 6 0 0
BITMAP
566680
126140
411140
411640
150540
011540
ENDCHAR
STARTCHAR uni0915094D0935094D092F
ENCODING -1
SWIDTH 1384 0
DWIDTH 12 0
BBX 13 6 0 0
BITMAP
56556640
12541100
41109100
41104100
251A5500
01000100
ENDCHAR
STARTCHAR uni0915094D0938094D091F
ENCODING -1
SWIDTH 1376 0
DWIDTH 12 0
BBX 13 6 0 0
BITMAP
56565640
12511500
41154000
41198000
15044100
01052500
ENDCHAR
STARTCHAR uni0915094D0938094D0921
ENCODING -1
SWIDTH 1388 0
DWIDTH 12 0
BBX 13 6 0 0
BITMAP
56565640
12511500
41151000
41141500
25041100
01052600
ENDCHAR
STARTCHAR uni0915094D0938094D0924
ENCODING -1
SWIDTH 1423 0
DWIDTH 13 0
BBX 13 6 0 0
BITMAP
56565640
12510100
41151600
41195100
15041100
01052500
ENDCHAR
STARTCHAR uni0915094D0938094D092A094D0930
ENCODING -1
SWIDTH 1437 0
DWIDTH 13 0
BBX 13 6 0 0
BITMAP
56566640
12511100
41196100
41041600
15040500
01051100
ENDCHAR
STARTCHAR uni0915094D0938094D092A094D0932
ENCODING -1
SWIDTH 1866 0
DWIDTH 17 0
BBX 17 6 0 0
BITMAP
5656655640
1251105600
4115112100
4119511100
1504010100
0105014100
ENDCHAR
STARTCHAR uni0917094D0927094D092F
ENCODING -1
SWIDTH 1156 0
DWIDTH 10 0
BBX 11 6 0 0
BITMAP
665664
110110
124910
510410
010950
015010
ENDCHAR
STARTCHAR uni0917094D0927094D0935
ENCODING -1
SWIDTH 1084 0
DWIDTH 10 0
BBX 10 6 0 0
BITMAP
665590
110540
124440
510440
010D80
015040
ENDCHAR
STARTCHAR uni0917094D0928094D092F
ENCODING -1
SWIDTH 1069 0
DWIDTH 10 0
BBX 10 6 0 0
BITMAP
655990
100440
116440
501080
001580
000040
ENDCHAR
STARTCHAR uni0917094D092D094D092F
ENCODING -1
SWIDTH 1102 0
DWIDTH 10 0
BBX 10 6 0 0
BITMAP
651990
110440
125040
511040
000580
000040
ENDCHAR
STARTCHAR uni0917094D0930094D092F
ENCODING -1
SWIDTH 817 0
DWIDTH 7 0
BBX 8 6 0 0
BITMAP
6599
1044
1244
5104
0164
0084
ENDCHAR
STARTCHAR uni091A094D091B094D0935
ENCODING -1
SWIDTH 913 0
DWIDTH 8 0
BBX 8 7 0 -1
BITMAP
5696
0145
1081
1141
1599
0041
0054
ENDCHAR
STARTCHAR uni091C094D091C094D091E
ENCODING -1
SWIDTH 945 0
DWIDTH 9 0
BBX 9 6 0 0
BITMAP
555640
005600
2A0100
055100
050500
515500
ENDCHAR
STARTCHAR uni091C094D091C094D092F
ENCODING -1
SWIDTH 1252 0
DWIDTH 11 0
BBX 11 6 0 0
BITMAP
555598
000044
246A44
041504
041154
515004
ENDCHAR
STARTCHAR uni091C094D091C094D0935
ENCODING -1
SWIDTH 1243 0
DWIDTH 11 0
BBX 11 6 0 0
BITMAP
555564
000150
286510
041510
041160
515010
ENDCHAR
STARTCHAR uni0924094D0915094D092F
ENCODING -1
SWIDTH 1346 0
DWIDTH 12 0
BBX 12 6 0 0
BITMAP
5565A6
015011
151641
412105
416055
601001
ENDCHAR
STARTCHAR uni0924094D0915094D0930
ENCODING -1
SWIDTH 995 0
DWIDTH 9 0
BBX 9 7 0 -1
BITMAP
556540
015500
151040
411040
41A100
605000
010000
ENDCHAR
STARTCHAR uni0924094D0915094D0935
ENCODING -1
SWIDTH 1282 0
DWIDTH 12 0
BBX 12 6 0 0
BITMAP
556559
015654
151144
411144
416098
601004
ENDCHAR
STARTCHAR uni0924094D0915094D0937
ENCODING -1
SWIDTH 943 0
DWIDTH 8 0
BBX 9 6 0 0
BITMAP
559240
011100
15A600
410100
416100
601100
ENDCHAR
STARTCHAR uni0924094D0916094D0930
ENCODING -1
SWIDTH 1008 0
DWIDTH 9 0
BBX 9 7 0 -1
BITMAP
559680
004540
145140
425140
414640
604540
000400
ENDCHAR
STARTCHAR uni0924094D0924094D092F
ENCODING -1
SWIDTH 888 0
DWIDTH 8 0
BBX 8 6 0 0
BITMAP
559A
0014
1144
1104
1058
2404
ENDCHAR
STARTCHAR uni0924094D0924094D0935
ENCODING -1
SWIDTH 788 0
DWIDTH 7 0
BBX 7 6 0 0
BITMAP
5568
0054
6604
1114
1164
2404
ENDCHAR
STARTCHAR uni0924094D0928094D092F
ENCODING -1
SWIDTH 1098 0
DWIDTH 10 0
BBX 10 6 0 0
BITMAP
555990
000440
156440
411040
400580
600040
ENDCHAR
STARTCHAR uni0924094D092A094D0930
ENCODING -1
SWIDTH 763 0
DWIDTH 7 0
BBX 7 6 0 0
BITMAP
5664
1510
4110
41A0
4050
1110
ENDCHAR
STARTCHAR uni0924094D092A094D0932
ENCODING -1
SWIDTH 1219 0
DWIDTH 11 0
BBX 11 6 0 0
BITMAP
565568
010560
151110
411110
416110
601810
ENDCHAR
STARTCHAR uni0924094D092E094D092F
ENCODING -1
SWIDTH 1096 0
DWIDTH 10 0
BBX 10 6 0 0
BITMAP
565990
010440
025040
411040
400580
600040
ENDCHAR
STARTCHAR uni0924094D0930094D092F
ENCODING -1
SWIDTH 848 0
DWIDTH 8 0
BBX 8 6 0 0
BITMAP
5599
1444
4244
0204
0558
1004
ENDCHAR
STARTCHAR uni0924094D0938094D092F
ENCODING -1
SWIDTH 1234 0
DWIDTH 11 0
BBX 11 6 0 0
BITMAP
5596A8
004044
154504
429814
414264
604004
ENDCHAR
STARTCHAR uni0924094D0938094D0935
ENCODING -1
SWIDTH 1155 0
DWIDTH 10 0
BBX 11 6 0 0
BITMAP
559564
004150
154410
429810
414150
604010
ENDCHAR
STARTCHAR uni0926094D0917094D0930
ENCODING -1
SWIDTH 493 0
DWIDTH 4 0
BBX 5 8 0 -2
BITMAP
5640
1500
4000
4100
2600
1200
5500
1000
ENDCHAR
STARTCHAR uni0926094D092C094D0930
ENCODING -1
SWIDTH 483 0
DWIDTH 4 0
BBX 5 8 0 -2
BITMAP
5640
1500
4000
4100
2600
5500
1900
0800
ENDCHAR
STARTCHAR uni0926094D092F094D092D
ENCODING -1
SWIDTH 607 0
DWIDTH 5 0
BBX 6 8 0 -2
BITMAP
5990
1440
1040
2440
1680
5540
1840
0440
ENDCHAR
STARTCHAR uni0926094D092F094D0930
ENCODING -1
SWIDTH 595 0
DWIDTH 5 0
BBX 6 7 0 -1
BITMAP
5990
1440
4040
2440
4040
2640
0500
ENDCHAR
STARTCHAR uni0927094D0928094D092F
ENCODING -1
SWIDTH 1138 0
DWIDTH 10 0
BBX 10 6 0 0
BITMAP
A15660
400110
255910
411410
160550
000010
ENDCHAR
STARTCHAR uni0928094D0915094D0938
ENCODING -1
SWIDTH 1384 0
DWIDTH 12 0
BBX 13 6 0 0
BITMAP
55656640
01651100
59111100
45119600
01604100
00105100
ENDCHAR
STARTCHAR uni0928094D0924094D092F
ENCODING -1
SWIDTH 1073 0
DWIDTH 10 0
BBX 10 6 0 0
BITMAP
555990
000440
566440
451080
051580
020040
ENDCHAR
STARTCHAR uni0928094D0924094D0930
ENCODING -1
SWIDTH 732 0
DWIDTH 7 0
BBX 7 6 0 0
BITMAP
5564
0010
5520
4420
0060
0210
ENDCHAR
STARTCHAR uni0928094D0924094D0938
ENCODING -1
SWIDTH 1134 0
DWIDTH 10 0
BBX 10 6 0 0
BITMAP
555960
015410
591410
452950
050410
020410
ENDCHAR
STARTCHAR uni0928094D0925094D092F
ENCODING -1
SWIDTH 1168 0
DWIDTH 11 0
BBX 11 6 0 0
BITMAP
528664
014110
554910
450420
015560
000010
ENDCHAR
STARTCHAR uni0928094D0925094D0935
ENCODING -1
SWIDTH 1089 0
DWIDTH 10 0
BBX 10 6 0 0
BITMAP
528590
014540
554440
450440
015580
000040
ENDCHAR
STARTCHAR uni0928094D0926094D0930
ENCODING -1
SWIDTH 734 0
DWIDTH 7 0
BBX 7 6 0 0
BITMAP
5564
0150
5500
4510
01A0
0050
ENDCHAR
STARTCHAR uni0928094D0926094D0935
ENCODING -1
SWIDTH 732 0
DWIDTH 7 0
BBX 7 7 0 -1
BITMAP
5564
0150
5500
4510
0260
0110
0150
ENDCHAR
STARTCHAR uni0928094D0927094D092F
ENCODING -1
SWIDTH 1097 0
DWIDTH 10 0
BBX 10 6 0 0
BITMAP
5A1990
040440
5A5440
441040
041980
015040
ENDCHAR
STARTCHAR uni0928094D0927094D0930
ENCODING -1
SWIDTH 783 0
DWIDTH 7 0
BBX 7 6 0 0
BITMAP
5A28
0414
5A54
4414
01A4
0054
ENDCHAR
STARTCHAR uni0928094D0927094D0935
ENCODING -1
SWIDTH 1036 0
DWIDTH 9 0
BBX 10 6 0 0
BITMAP
5A1590
040440
5A5040
441040
041940
015040
ENDCHAR
STARTCHAR uni0928094D0928094D092F
ENCODING -1
SWIDTH 1071 0
DWIDTH 10 0
BBX 10 6 0 0
BITMAP
555990
000440
566440
411080
001580
000040
ENDCHAR
STARTCHAR uni0928094D092A094D0930
ENCODING -1
SWIDTH 737 0
DWIDTH 7 0
BBX 7 6 0 0
BITMAP
5A64
0110
5910
41A0
0050
0110
ENDCHAR
STARTCHAR uni0928094D092B094D0930
ENCODING -1
SWIDTH 975 0
DWIDTH 9 0
BBX 9 6 0 0
BITMAP
5A6540
012500
592140
41A140
005500
011000
ENDCHAR
STARTCHAR uni0928094D092D094D092F
ENCODING -1
SWIDTH 1071 0
DWIDTH 10 0
BBX 10 6 0 0
BITMAP
595990
010440
565040
411080
001580
000040
ENDCHAR
STARTCHAR uni0928094D092D094D0935
ENCODING -1
SWIDTH 995 0
DWIDTH 9 0
BBX 9 6 0 0
BITMAP
595640
011500
566100
411100
001600
000100
ENDCHAR
STARTCHAR uni0928094D092E094D092F
ENCODING -1
SWIDTH 1071 0
DWIDTH 10 0
BBX 10 6 0 0
BITMAP
565990
010440
565040
411080
001580
000040
ENDCHAR
STARTCHAR uni0928094D0938094D091F
ENCODING -1
SWIDTH 1113 0
DWIDTH 10 0
BBX 10 6 0 0
BITMAP
559590
004180
544400
469800
010410
004550
ENDCHAR
STARTCHAR uni0928094D0938094D092E094D092F
ENCODING -1
SWIDTH 1453 0
DWIDTH 13 0
BBX 13 6 0 0
BITMAP
55996A80
00440540
54445140
46998140
01002640
00400140
ENDCHAR
STARTCHAR uni0928094D0938094D092F
ENCODING -1
SWIDTH 1194 0
DWIDTH 11 0
BBX 11 6 0 0
BITMAP
559664
004110
544510
469810
010560
004010
ENDCHAR
STARTCHAR uni092A094D0924094D092F
ENCODING -1
SWIDTH 1119 0
DWIDTH 10 0
BBX 10 6 0 0
BITMAP
A55AA0
500150
516850
111050
020590
014050
ENDCHAR
STARTCHAR uni092C094D091C094D092F
ENCODING -1
SWIDTH 1235 0
DWIDTH 11 0
BBX 11 6 0 0
BITMAP
555698
140044
609904
541414
441154
164004
ENDCHAR
STARTCHAR uni092C094D0927094D0935
ENCODING -1
SWIDTH 1097 0
DWIDTH 10 0
BBX 10 6 0 0
BITMAP
564590
150540
514440
460440
420980
145040
ENDCHAR
STARTCHAR uni092C094D092D094D0930
ENCODING -1
SWIDTH 764 0
DWIDTH 7 0
BBX 7 6 0 0
BITMAP
5524
1510
5260
4520
1450
0150
ENDCHAR
STARTCHAR uni092C094D0932094D092F
ENCODING -1
SWIDTH 480 0
DWIDTH 4 0
BBX 12 6 0 0
BITMAP
555599
155544
511244
451104
150058
014004
ENDCHAR
STARTCHAR uni092D094D0930094D092F
ENCODING -1
SWIDTH 830 0
DWIDTH 7 0
BBX 8 6 0 0
BITMAP
8599
4044
6504
4504
0554
1004
ENDCHAR
STARTCHAR uni092E094D092A094D0930
ENCODING -1
SWIDTH 765 0
DWIDTH 7 0
BBX 7 6 0 0
BITMAP
9664
4110
6510
41A0
0050
0110
ENDCHAR
STARTCHAR uni092E094D092C094D092F
ENCODING -1
SWIDTH 1124 0
DWIDTH 10 0
BBX 10 6 0 0
BITMAP
955A60
414110
665010
416050
015550
000010
ENDCHAR
STARTCHAR uni092E094D092C094D0930
ENCODING -1
SWIDTH 768 0
DWIDTH 7 0
BBX 7 6 0 0
BITMAP
9564
4150
6650
4120
01A0
0050
ENDCHAR
STARTCHAR uni092E094D092D094D092F
ENCODING -1
SWIDTH 1101 0
DWIDTH 10 0
BBX 10 6 0 0
BITMAP
951990
410440
665040
411040
000580
000040
ENDCHAR
STARTCHAR uni092E094D092D094D0930
ENCODING -1
SWIDTH 759 0
DWIDTH 7 0
BBX 7 6 0 0
BITMAP
9524
4110
5660
4120
0050
0110
ENDCHAR
STARTCHAR uni092E094D092D094D0935
ENCODING -1
SWIDTH 1028 0
DWIDTH 9 0
BBX 9 6 0 0
BITMAP
951580
411440
666040
411040
000540
000040
ENDCHAR
STARTCHAR uni0932094D0915094D092F
ENCODING -1
SWIDTH 1534 0
DWIDTH 14 0
BBX 14 6 0 0
BITMAP
55565990
15550440
45426440
44421080
40151580
24010040
ENDCHAR
STARTCHAR uni0932094D0925094D092F
ENCODING -1
SWIDTH 1397 0
DWIDTH 13 0
BBX 13 6 0 0
BITMAP
55286640
15441100
45544100
44504100
40155600
24000100
ENDCHAR
STARTCHAR uni0932094D0926094D0930
ENCODING -1
SWIDTH 933 0
DWIDTH 8 0
BBX 9 6 0 0
BITMAP
555640
155500
454000
444100
401A00
241500
ENDCHAR
STARTCHAR uni0932094D0932094D092F
ENCODING -1
SWIDTH 1476 0
DWIDTH 13 0
BBX 13 6 0 0
BITMAP
55555980
15554440
45456440
40401040
40401540
24240040
ENDCHAR
STARTCHAR uni0932094D0935094D0921
ENCODING -1
SWIDTH 1247 0
DWIDTH 11 0
BBX 11 6 0 0
BITMAP
555558
155454
454100
444154
401504
240154
ENDCHAR
STARTCHAR uni0937094D0915094D0930
ENCODING -1
SWIDTH 1042 0
DWIDTH 9 0
BBX 10 7 0 -1
BITMAP
A55950
505940
550440
120440
01A540
005400
004000
ENDCHAR
STARTCHAR uni0937094D091F094D092F
ENCODING -1
SWIDTH 997 0
DWIDTH 9 0
BBX 9 6 0 0
BITMAP
A65680
565500
250500
402500
411600
150100
ENDCHAR
STARTCHAR uni0937094D091F094D0930
ENCODING -1
SWIDTH 493 0
DWIDTH 4 0
BBX 5 7 0 -1
BITMAP
A640
5500
2500
4000
4100
1500
1500
ENDCHAR
STARTCHAR uni0937094D091F094D0935
ENCODING -1
SWIDTH 493 0
DWIDTH 4 0
BBX 5 8 0 -2
BITMAP
A640
5500
5600
2500
4100
2600
5100
1500
ENDCHAR
STARTCHAR uni0937094D0920094D092F
ENCODING -1
SWIDTH 1006 0
DWIDTH 9 0
BBX 9 6 0 0
BITMAP
BF5680
7F5540
3E0540
562540
411640
150140
ENDCHAR
STARTCHAR uni0937094D0920094D0930
ENCODING -1
SWIDTH 512 0
DWIDTH 5 0
BBX 5 8 0 -2
BITMAP
BF40
7F00
3E00
5200
4100
2600
1500
1100
ENDCHAR
STARTCHAR uni0937094D0923094D092F
ENCODING -1
SWIDTH 1273 0
DWIDTH 11 0
BBX 12 6 0 0
BITMAP
A66599
511044
551244
121108
010158
000004
ENDCHAR
STARTCHAR uni0937094D092A094D0930
ENCODING -1
SWIDTH 798 0
DWIDTH 7 0
BBX 7 6 0 0
BITMAP
A658
5504
5604
1564
0054
0144
ENDCHAR
STARTCHAR uni0937094D092E094D092F
ENCODING -1
SWIDTH 1121 0
DWIDTH 10 0
BBX 10 6 0 0
BITMAP
A65AA0
550150
566050
121050
010590
000010
ENDCHAR
STARTCHAR uni0938094D0915094D0930
ENCODING -1
SWIDTH 1084 0
DWIDTH 10 0
BBX 10 7 0 -1
BITMAP
655950
105940
104450
664450
50A940
105400
004000
ENDCHAR
STARTCHAR uni0938094D0915094D0935
ENCODING -1
SWIDTH 1369 0
DWIDTH 12 0
BBX 13 6 0 0
BITMAP
65595640
10595100
10444100
66444100
50982500
10040100
ENDCHAR
STARTCHAR uni0938094D0924094D092F
ENCODING -1
SWIDTH 1185 0
DWIDTH 11 0
BBX 11 6 0 0
BITMAP
655664
100110
105910
664420
514560
108010
ENDCHAR
STARTCHAR uni0938094D0924094D0930
ENCODING -1
SWIDTH 818 0
DWIDTH 7 0
BBX 8 6 0 0
BITMAP
6559
1004
1054
6604
5014
1044
ENDCHAR
STARTCHAR uni0938094D0924094D0935
ENCODING -1
SWIDTH 1126 0
DWIDTH 10 0
BBX 10 6 0 0
BITMAP
655560
100150
105810
664450
514550
108010
ENDCHAR
STARTCHAR uni0938094D0925094D092F
ENCODING -1
SWIDTH 1303 0
DWIDTH 12 0
BBX 12 6 0 0
BITMAP
646199
105444
109144
664108
105558
100004
ENDCHAR
STARTCHAR uni0938094D092A094D0930
ENCODING -1
SWIDTH 850 0
DWIDTH 8 0
BBX 8 6 0 0
BITMAP
6599
1044
6544
5068
1014
1044
ENDCHAR
STARTCHAR uni0938094D092E094D092F
ENCODING -1
SWIDTH 1189 0
DWIDTH 11 0
BBX 11 6 0 0
BITMAP
659664
104110
104510
659820
500560
100010
ENDCHAR
STARTCHAR uni093F.a01
ENCODING -1
SWIDTH 231 0
DWIDTH 2 0
BBX 5 8 0 0
BITMAP
2640
5040
A000
5000
5000
5000
5000
1000
ENDCHAR
STARTCHAR uni093F.a04
ENCODING -1
SWIDTH 231 0
DWIDTH 2 0
BBX 6 8 0 0
BITMAP
2550
5010
A000
5000
5000
5000
5000
1000
ENDCHAR
STARTCHAR uni093F.a05
ENCODING -1
SWIDTH 231 0
DWIDTH 2 0
BBX 6 8 0 0
BITMAP
2560
5010
A000
5000
5000
5000
5000
1000
ENDCHAR
STARTCHAR uni093F.a06
ENCODING -1
SWIDTH 231 0
DWIDTH 2 0
BBX 7 8 0 0
BITMAP
2554
5004
A000
5000
5000
5000
5000
1000
ENDCHAR
STARTCHAR uni093F.a07
ENCODING -1
SWIDTH 231 0
DWIDTH 2 0
BBX 7 8 0 0
BITMAP
2558
5004
A000
5000
5000
5000
5000
1000
ENDCHAR
STARTCHAR uni093F.a08
ENCODING -1
SWIDTH 231 0
DWIDTH 2 0
BBX 8 8 0 0
BITMAP
2559
5001
A000
5000
5000
5000
5000
1000
ENDCHAR
STARTCHAR uni093F.a09
ENCODING -1
SWIDTH 231 0
DWIDTH 2 0
BBX 8 8 0 0
BITMAP
2555
5001
A000
5000
5000
5000
5000
1000
ENDCHAR
STARTCHAR uni093F.a10
ENCODING -1
SWIDTH 231 0
DWIDTH 2 0
BBX 8 8 0 0
BITMAP
2556
5000
A000
5000
5000
5000
5000
1000
ENDCHAR
STARTCHAR uni093F.a11
ENCODING -1
SWIDTH 231 0
DWIDTH 2 0
BBX 9 8 0 0
BITMAP
255540
500040
A00000
500000
500000
500000
500000
100000
ENDCHAR
STARTCHAR uni093F.a12
ENCODING -1
SWIDTH 231 0
DWIDTH 2 0
BBX 9 8 0 0
BITMAP
255580
500040
A00000
500000
500000
500000
500000
100000
ENDCHAR
STARTCHAR uni093F.a13
ENCODING -1
SWIDTH 231 0
DWIDTH 2 0
BBX 10 8 0 0
BITMAP
255550
500010
A00000
500000
500000
500000
500000
100000
ENDCHAR
STARTCHAR uni093F.a14
ENCODING -1
SWIDTH 231 0
DWIDTH 2 0
BBX 10 8 0 0
BITMAP
255560
500010
A00000
500000
500000
500000
500000
100000
ENDCHAR
STARTCHAR uni093F.a15
ENCODING -1
SWIDTH 231 0
DWIDTH 2 0
BBX 10 8 0 0
BITMAP
255560
500000
A00000
500000
500000
500000
500000
100000
ENDCHAR
STARTCHAR uni093F.a16
ENCODING -1
SWIDTH 231 0
DWIDTH 2 0
BBX 11 8 0 0
BITMAP
255554
500004
A00000
500000
500000
500000
500000
100000
ENDCHAR
STARTCHAR uni093F.a17
ENCODING -1
SWIDTH 231 0
DWIDTH 2 0
BBX 11 8 0 0
BITMAP
255558
500000
A00000
500000
500000
500000
500000
100000
ENDCHAR
STARTCHAR uni093F.a18
ENCODING -1
SWIDTH 231 0
DWIDTH 2 0
BBX 12 8 0 0
BITMAP
255555
500001
A00000
500000
500000
500000
500000
100000
ENDCHAR
STARTCHAR uni093F.a19
ENCODING -1
SWIDTH 231 0
DWIDTH 2 0
BBX 12 8 0 0
BITMAP
255556
500001
A00000
500000
500000
500000
500000
100000
ENDCHAR
STARTCHAR uni093F.a20
ENCODING -1
SWIDTH 231 0
DWIDTH 2 0
BBX 13 8 0 0
BITMAP
25555640
50000040
A0000000
50000000
50000000
50000000
50000000
10000000
ENDCHAR
STARTCHAR uni093F.a21
ENCODING -1
SWIDTH 231 0
DWIDTH 2 0
BBX 13 8 0 0
BITMAP
25555540
50000040
A0000000
50000000
50000000
50000000
50000000
10000000
ENDCHAR
STARTCHAR uni093F.a22
ENCODING -1
SWIDTH 231 0
DWIDTH 2 0
BBX 13 8 0 0
BITMAP
25555580
50000000
A0000000
50000000
50000000
50000000
50000000
10000000
ENDCHAR
STARTCHAR uni093F.a23
ENCODING -1
SWIDTH 231 0
DWIDTH 2 0
BBX 14 8 0 0
BITMAP
25555550
50000010
A0000000
50000000
50000000
50000000
50000000
10000000
ENDCHAR
STARTCHAR uni093F.a24
ENCODING -1
SWIDTH 231 0
DWIDTH 2 0
BBX 14 8 0 0
BITMAP
25555560
50000000
A0000000
50000000
50000000
50000000
50000000
10000000
ENDCHAR
STARTCHAR uni093F.a25
ENCODING -1
SWIDTH 231 0
DWIDTH 2 0
BBX 15 8 0 0
BITMAP
25555554
50000004
A0000000
50000000
50000000
50000000
50000000
10000000
ENDCHAR
STARTCHAR uni093F.a26
ENCODING -1
SWIDTH 231 0
DWIDTH 2 0
BBX 15 8 0 0
BITMAP
25555558
50000004
A0000000
50000000
50000000
50000000
50000000
10000000
ENDCHAR
STARTCHAR uni093F.a32
ENCODING -1
SWIDTH 231 0
DWIDTH 2 0
BBX 18 8 0 0
BITMAP
2555555560
5000000000
A000000000
5000000000
5000000000
5000000000
5000000000
1000000000
ENDCHAR
STARTCHAR uni093E0901
ENCODING -1
SWIDTH 231 0
DWIDTH 2 0
BBX 3 8 0 0
BITMAP
04
50
A0
50
50
50
50
10
ENDCHAR
STARTCHAR dvNG_GA
ENCODING -1
SWIDTH 562 0
DWIDTH 5 0
BBX 5 9 0 -3
BITMAP
5640
1600
4040
1500
0140
1600
1100
5100
0100
ENDCHAR
STARTCHAR dvNG_MA
ENCODING -1
SWIDTH 728 0
DWIDTH 7 0
BBX 7 8 0 -2
BITMAP
5664
1510
1510
0110
4110
1660
0410
0010
ENDCHAR
STARTCHAR dvNY_CA
ENCODING -1
SWIDTH 963 0
DWIDTH 9 0
BBX 9 6 0 0
BITMAP
555640
500100
04A500
094200
541600
000100
ENDCHAR
STARTCHAR dvTT_GA
ENCODING -1
SWIDTH 510 0
DWIDTH 5 0
BBX 5 8 0 -2
BITMAP
5640
1500
4000
4100
2600
1100
5100
0100
ENDCHAR
STARTCHAR dvTTH_TTHA
ENCODING -1
SWIDTH 511 0
DWIDTH 5 0
BBX 5 9 0 -3
BITMAP
5640
1500
4100
4100
1600
1500
5100
4100
1500
ENDCHAR
STARTCHAR dvDD_GA
ENCODING -1
SWIDTH 541 0
DWIDTH 5 0
BBX 5 9 0 -3
BITMAP
5640
1500
4000
1500
0140
1600
1100
5100
0100
ENDCHAR
STARTCHAR dvDDH_DDHA
ENCODING -1
SWIDTH 487 0
DWIDTH 4 0
BBX 5 8 0 -2
BITMAP
5640
1500
4500
4500
2500
4500
4500
1500
ENDCHAR
STARTCHAR dvSHA_MatraVocalicR
ENCODING -1
SWIDTH 558 0
DWIDTH 5 0
BBX 5 8 0 -2
BITMAP
5980
4540
2540
5640
0140
0140
0400
0540
ENDCHAR
STARTCHAR dvT_KH_NA
ENCODING -1
SWIDTH 1341 0
DWIDTH 12 0
BBX 12 6 0 0
BITMAP
55955A
004505
005159
425185
414505
604005
ENDCHAR
STARTCHAR dvT_S_NA
ENCODING -1
SWIDTH 1169 0
DWIDTH 11 0
BBX 11 6 0 0
BITMAP
559564
004010
004160
429810
414010
604010
ENDCHAR
ENDFONT
